{"glyphs":{"0":{"ha":696,"x_min":99,"x_max":596,"o":"m 497 497 q 470 729 497 620 q 348 894 431 894 q 226 729 266 894 q 199 497 199 617 q 225 264 199 374 q 348 99 265 99 q 470 264 431 99 q 497 497 497 374 m 596 497 q 553 190 596 319 q 348 0 489 0 q 143 189 207 0 q 99 497 99 318 q 143 805 99 675 q 348 994 207 994 q 553 804 489 994 q 596 497 596 674 z "},"1":{"ha":497,"x_min":99,"x_max":397,"o":"m 298 824 l 184 710 q 149 696 169 696 q 99 745 99 696 q 114 780 99 766 l 308 974 q 348 994 327 994 q 397 944 397 994 l 397 50 q 348 0 397 0 q 298 50 298 0 l 298 824 z "},"2":{"ha":696,"x_min":99,"x_max":596,"o":"m 348 994 q 524 921 451 994 q 596 745 596 848 q 551 602 596 674 l 238 99 l 547 99 q 596 50 596 99 q 547 0 596 0 l 149 0 q 99 50 99 0 q 108 78 99 65 l 472 663 q 497 745 497 703 q 453 851 497 807 q 348 894 410 894 q 192 769 263 894 q 149 745 178 745 q 99 795 99 745 q 104 815 99 806 q 348 994 196 994 z "},"3":{"ha":696,"x_min":99,"x_max":596,"o":"m 348 497 l 248 497 q 199 547 199 497 q 248 596 199 596 l 348 596 q 454 639 410 596 q 497 745 497 683 q 453 851 497 807 q 348 894 410 894 l 149 894 q 99 944 99 894 q 149 994 99 994 l 348 994 q 524 921 451 994 q 596 745 596 848 q 497 547 596 622 q 596 348 596 471 l 596 248 q 523 73 596 145 q 348 0 450 0 l 149 0 q 99 50 99 0 q 149 99 99 99 l 348 99 q 454 143 410 99 q 497 248 497 186 l 497 348 q 453 453 497 410 q 348 497 410 497 z "},"4":{"ha":795,"x_min":99,"x_max":696,"o":"m 99 248 q 101 262 99 257 l 300 958 q 348 994 310 994 q 397 944 397 994 q 395 930 397 937 l 215 298 l 447 298 l 447 447 q 497 497 447 497 q 547 447 547 497 l 547 298 l 646 298 q 696 248 696 298 q 646 199 696 199 l 547 199 l 547 50 q 497 0 547 0 q 447 50 447 0 l 447 199 l 149 199 q 99 248 99 199 z "},"5":{"ha":696,"x_min":99,"x_max":596,"o":"m 99 547 l 99 944 q 149 994 99 994 l 497 994 q 547 944 547 994 q 497 894 547 894 l 199 894 l 199 596 l 348 596 q 524 523 451 596 q 596 348 596 450 l 596 248 q 523 73 596 145 q 348 0 450 0 l 149 0 q 99 50 99 0 q 149 99 99 99 l 348 99 q 454 143 410 99 q 497 248 497 186 l 497 348 q 453 453 497 410 q 348 497 410 497 l 149 497 q 99 547 99 497 z "},"6":{"ha":696,"x_min":99,"x_max":596,"o":"m 199 497 l 199 248 q 242 143 199 186 q 348 99 285 99 q 454 143 410 99 q 497 248 497 187 l 497 348 q 453 454 497 410 q 348 497 410 497 l 199 497 m 447 994 q 497 944 497 994 q 472 901 497 907 q 279 769 361 873 q 202 596 213 686 l 348 596 q 525 524 453 596 q 596 348 596 452 l 596 248 q 524 72 596 145 q 348 0 451 0 q 172 72 244 0 q 99 247 99 144 l 99 547 q 212 842 99 715 q 402 982 299 941 q 447 994 431 994 z "},"7":{"ha":696,"x_min":104,"x_max":601,"o":"m 489 897 l 202 897 l 202 842 q 154 792 202 792 q 104 842 104 793 l 105 946 q 154 996 105 996 l 552 996 q 601 948 601 996 q 600 936 601 943 l 401 41 q 354 2 392 2 q 303 52 303 2 q 304 63 303 59 l 489 897 z "},"8":{"ha":696,"x_min":99,"x_max":596,"o":"m 348 99 q 454 143 410 99 q 497 248 497 186 l 497 348 q 453 453 497 410 q 348 497 410 497 q 242 454 285 497 q 199 348 199 410 l 199 248 q 242 143 199 186 q 348 99 285 99 m 348 0 q 172 73 245 0 q 99 248 99 145 l 99 348 q 199 547 99 471 q 99 745 99 622 q 172 921 99 848 q 348 994 245 994 q 524 921 451 994 q 596 745 596 848 q 497 547 596 622 q 587 413 568 492 q 596 248 596 373 q 524 73 596 145 q 348 0 451 0 m 348 596 q 454 639 410 596 q 497 745 497 683 q 453 851 497 807 q 348 894 410 894 q 242 851 285 894 q 199 745 199 808 q 242 639 199 683 q 348 596 285 596 z "},"9":{"ha":696,"x_min":99,"x_max":596,"o":"m 497 497 l 497 745 q 453 851 497 807 q 348 894 410 894 q 242 851 286 894 q 199 745 199 807 l 199 646 q 242 540 199 583 q 348 497 285 497 l 497 497 m 248 0 q 214 15 229 0 q 199 50 199 30 q 224 93 199 84 q 314 134 278 111 q 493 397 474 238 l 348 397 q 172 470 245 397 q 99 646 99 543 l 99 745 q 172 921 99 848 q 348 994 245 994 q 524 922 452 994 q 596 747 596 850 l 596 447 q 361 47 596 194 q 248 0 285 0 z "}," ":{"ha":340,"x_min":0,"x_max":0,"o":""},"!":{"ha":298,"x_min":99,"x_max":199,"o":"m 99 348 l 99 944 q 149 994 99 994 q 199 944 199 994 l 199 348 q 149 298 199 298 q 99 348 99 298 m 99 99 q 149 149 99 149 q 199 99 199 149 l 199 50 q 149 0 199 0 q 99 50 99 0 l 99 99 z "},"\"":{"ha":596,"x_min":99,"x_max":497,"o":"m 199 994 q 248 945 248 994 q 247 932 248 938 l 197 733 q 149 696 188 696 q 99 745 99 696 q 151 956 99 751 q 199 994 160 994 m 447 994 q 497 945 497 994 q 495 932 497 938 l 446 733 q 397 696 437 696 q 348 745 348 696 q 399 956 348 751 q 447 994 408 994 z "},"#":{"ha":894,"x_min":99,"x_max":795,"o":"m 646 298 l 646 50 q 596 0 646 0 q 547 50 547 0 l 547 298 l 348 298 l 348 50 q 298 0 348 0 q 248 50 248 0 l 248 298 l 149 298 q 99 348 99 298 q 149 397 99 397 l 248 397 l 248 596 l 149 596 q 99 646 99 596 q 149 696 99 696 l 248 696 l 248 944 q 298 994 248 994 q 348 944 348 994 l 348 696 l 547 696 l 547 944 q 596 994 547 994 q 646 944 646 994 l 646 696 l 745 696 q 795 646 795 696 q 745 596 795 596 l 646 596 l 646 397 l 745 397 q 795 348 795 397 q 745 298 795 298 l 646 298 m 547 397 l 547 596 l 348 596 l 348 397 l 547 397 z "},"$":{"ha":696,"x_min":99,"x_max":596,"o":"m 397 99 l 397 50 q 348 0 397 0 q 298 50 298 0 l 298 102 q 124 158 201 112 q 99 202 99 173 q 150 252 99 252 q 174 246 162 252 q 298 203 242 212 l 298 467 l 201 522 q 99 696 99 580 q 149 827 99 772 q 298 894 209 894 l 298 944 q 348 994 298 994 q 397 944 397 994 l 397 891 q 572 833 491 880 q 596 791 596 820 q 582 756 596 771 q 547 741 567 741 q 522 748 534 741 q 397 791 464 782 l 397 526 l 495 472 q 596 298 596 416 q 547 167 596 224 q 397 99 488 99 m 397 199 q 468 228 439 199 q 498 298 498 257 q 449 383 498 356 l 397 412 l 397 199 m 298 582 l 298 795 q 228 766 257 795 q 199 696 199 737 q 248 610 199 637 l 298 582 z "},"%":{"ha":1093,"x_min":99,"x_max":994,"o":"m 795 299 q 725 270 754 299 q 696 199 696 241 q 725 129 696 159 q 795 100 754 100 q 865 129 836 100 q 894 199 894 158 q 866 270 894 242 q 795 299 837 299 m 795 398 q 936 340 878 398 q 994 199 994 282 q 936 59 994 117 q 795 1 878 1 q 654 59 712 1 q 596 199 596 117 q 654 340 596 282 q 795 398 712 398 m 298 895 q 228 866 257 895 q 199 796 199 837 q 228 726 199 755 q 298 696 257 696 q 368 725 340 696 q 397 796 397 754 q 369 866 397 838 q 298 895 340 895 m 298 994 q 439 936 381 994 q 497 796 497 879 q 439 655 497 713 q 298 597 381 597 q 157 655 215 597 q 99 796 99 713 q 157 936 99 879 q 298 994 215 994 m 99 50 q 112 83 99 69 l 906 976 q 944 994 921 994 q 979 979 964 994 q 994 944 994 964 q 981 911 994 925 l 187 17 q 149 0 172 0 q 114 15 129 0 q 99 50 99 30 z "},"&":{"ha":894,"x_min":99,"x_max":795,"o":"m 483 213 l 341 437 l 215 254 q 199 199 199 230 q 228 129 199 158 q 298 99 257 99 q 357 118 332 99 l 483 213 m 617 189 l 688 76 q 696 50 696 64 q 681 15 696 29 q 646 0 666 0 q 604 23 619 0 l 537 129 l 416 38 q 298 0 366 0 q 157 58 215 0 q 99 199 99 116 q 134 311 99 260 l 283 527 l 181 687 q 149 795 149 737 q 207 936 149 878 q 348 994 265 994 q 489 936 431 994 q 547 795 547 878 q 512 683 547 733 l 403 525 l 563 273 l 715 387 q 745 397 729 397 q 795 348 795 397 q 776 309 795 323 l 617 189 m 345 616 l 430 739 q 447 795 447 764 q 419 866 447 837 q 348 894 390 894 q 277 865 306 894 q 248 795 248 836 q 263 744 248 766 l 345 616 z "},"'":{"ha":348,"x_min":99,"x_max":248,"o":"m 199 994 q 248 945 248 994 q 247 932 248 938 l 197 733 q 149 696 188 696 q 99 745 99 696 q 151 956 99 751 q 199 994 160 994 z "},"(":{"ha":397,"x_min":99,"x_max":298,"o":"m 199 497 q 228 198 199 346 q 294 -32 245 109 q 298 -50 298 -42 q 283 -85 298 -70 q 248 -99 268 -99 q 206 -76 216 -99 q 132 172 164 13 q 99 497 99 332 q 132 821 99 662 q 206 1070 164 981 q 248 1093 216 1093 q 298 1043 298 1093 q 294 1025 298 1036 q 228 796 245 885 q 199 497 199 647 z "},")":{"ha":397,"x_min":99,"x_max":298,"o":"m 199 497 q 169 796 199 647 q 102 1025 153 879 q 99 1043 99 1034 q 114 1078 99 1064 q 150 1093 129 1093 q 192 1070 181 1093 q 266 821 233 981 q 298 497 298 662 q 266 172 298 332 q 192 -76 233 13 q 150 -99 181 -99 q 115 -84 130 -99 q 99 -50 99 -69 q 102 -32 99 -41 q 169 198 153 114 q 199 497 199 346 z "},"*":{"ha":681,"x_min":114,"x_max":557,"o":"m 508 741 l 416 741 l 467 641 q 473 616 473 629 q 457 582 473 596 q 423 568 442 568 q 382 595 396 568 l 335 683 l 282 597 q 243 574 267 574 q 208 588 224 574 q 193 623 193 602 q 202 650 193 637 l 255 741 l 163 741 q 114 790 114 741 q 163 840 114 840 l 253 840 l 210 923 q 204 947 204 935 q 220 983 204 968 q 255 997 236 997 q 295 970 282 997 l 342 881 l 393 965 q 434 990 409 990 q 468 975 453 990 q 483 939 483 961 q 475 912 483 927 l 431 840 l 508 840 q 557 790 557 840 q 508 741 557 741 z "},"+":{"ha":696,"x_min":99,"x_max":596,"o":"m 298 298 l 149 298 q 99 348 99 298 q 149 397 99 397 l 298 397 l 298 547 q 348 596 298 596 q 397 547 397 596 l 397 397 l 547 397 q 596 348 596 397 q 547 298 596 298 l 397 298 l 397 149 q 348 99 397 99 q 298 149 298 99 l 298 298 z "},",":{"ha":348,"x_min":99,"x_max":248,"o":"m 199 99 q 248 50 248 99 q 197 -161 248 44 q 149 -199 188 -199 q 99 -149 99 -199 q 151 62 99 -115 q 199 99 161 99 z "},"-":{"ha":696,"x_min":99,"x_max":596,"o":"m 547 248 l 149 248 q 99 298 99 248 q 149 348 99 348 l 547 348 q 596 298 596 348 q 547 248 596 248 z "},"‐":{"ha":696,"x_min":99,"x_max":596,"o":"m 547 248 l 149 248 q 99 298 99 248 q 149 348 99 348 l 547 348 q 596 298 596 348 q 547 248 596 248 z "},".":{"ha":298,"x_min":99,"x_max":199,"o":"m 99 99 q 149 149 99 149 q 199 99 199 149 l 199 50 q 149 0 199 0 q 99 50 99 0 l 99 99 z "},"/":{"ha":696,"x_min":99,"x_max":596,"o":"m 99 50 q 104 70 99 60 l 501 964 q 546 994 514 994 q 581 979 566 994 q 596 945 596 965 q 592 924 596 934 l 194 29 q 150 0 181 0 q 114 15 129 0 q 99 50 99 29 z "},":":{"ha":298,"x_min":99,"x_max":199,"o":"m 99 149 q 149 199 99 199 q 199 149 199 199 l 199 99 q 149 50 199 50 q 99 99 99 50 l 99 149 m 99 547 q 149 596 99 596 q 199 547 199 596 l 199 497 q 149 447 199 447 q 99 497 99 447 l 99 547 z "},";":{"ha":348,"x_min":99,"x_max":248,"o":"m 149 447 q 199 497 149 497 q 248 447 248 497 l 248 397 q 199 348 248 348 q 149 397 149 348 l 149 447 m 199 99 q 248 50 248 99 q 247 38 248 44 l 197 -161 q 149 -199 188 -199 q 99 -149 99 -199 q 151 62 99 -143 q 199 99 160 99 z "},"<":{"ha":696,"x_min":99,"x_max":596,"o":"m 291 348 l 564 245 q 596 199 596 233 q 547 149 596 149 q 529 152 537 149 l 132 301 q 99 348 99 313 q 132 394 99 382 l 529 544 q 547 547 537 547 q 596 497 596 547 q 564 450 596 462 l 291 348 z "},"=":{"ha":696,"x_min":99,"x_max":596,"o":"m 547 447 l 149 447 q 99 497 99 447 q 149 547 99 547 l 547 547 q 596 497 596 547 q 547 447 596 447 m 547 149 l 149 149 q 99 199 99 149 q 149 248 99 248 l 547 248 q 596 199 596 248 q 547 149 596 149 z "},">":{"ha":696,"x_min":99,"x_max":596,"o":"m 405 348 l 132 450 q 99 497 99 462 q 149 547 99 547 q 166 544 158 547 l 564 394 q 596 348 596 382 q 564 301 596 313 l 166 152 q 149 149 158 149 q 114 164 129 149 q 99 199 99 178 q 132 245 99 233 l 405 348 z "},"?":{"ha":696,"x_min":99,"x_max":596,"o":"m 298 99 q 348 149 298 149 q 397 99 397 149 l 397 50 q 348 0 397 0 q 298 50 298 0 l 298 99 m 397 994 q 539 936 481 994 q 596 795 596 879 q 537 654 596 711 l 413 533 q 397 497 397 518 l 397 348 q 348 298 397 298 q 298 348 298 298 l 298 497 q 346 605 298 559 l 469 726 q 497 795 497 753 q 468 866 497 837 q 397 894 440 894 q 297 886 348 894 q 168 848 257 880 q 149 845 157 845 q 114 860 129 845 q 99 894 99 875 q 129 939 99 926 q 397 994 251 994 z "},"@":{"ha":1093,"x_min":99,"x_max":994,"o":"m 547 -298 q 231 -167 362 -298 q 99 149 99 -35 l 99 547 q 230 863 99 732 q 547 994 361 994 q 863 863 732 994 q 994 547 994 732 l 994 199 q 949 61 994 118 q 821 0 900 0 q 696 75 726 0 q 547 0 650 0 q 405 58 463 0 q 348 199 348 115 l 348 497 q 405 638 348 580 q 547 696 463 696 l 696 696 q 745 646 745 696 l 745 199 q 820 99 745 99 q 877 132 857 99 q 894 199 894 160 l 894 547 q 793 793 894 691 q 547 894 691 894 q 300 793 402 894 q 199 547 199 691 l 199 149 q 301 -96 199 6 q 547 -199 403 -199 q 596 -248 596 -199 q 582 -283 596 -269 q 547 -298 567 -298 m 646 596 l 547 596 q 476 567 505 596 q 447 497 447 538 l 447 199 q 477 129 447 158 q 547 99 506 99 q 617 128 588 99 q 646 199 646 157 l 646 596 z "},"A":{"ha":894,"x_min":99,"x_max":795,"o":"m 447 786 l 301 348 l 593 348 l 447 786 m 795 50 q 745 0 795 0 q 698 34 709 0 l 626 248 l 268 248 l 196 34 q 149 0 185 0 q 99 50 99 0 q 102 65 99 59 l 397 954 q 447 994 411 994 q 496 955 483 994 l 793 65 q 795 50 795 59 z "},"B":{"ha":795,"x_min":99,"x_max":696,"o":"m 554 552 q 696 298 696 467 q 608 87 696 175 q 397 0 521 0 l 149 0 q 99 50 99 0 l 99 944 q 149 994 99 994 l 397 994 q 574 922 502 994 q 646 745 646 850 q 554 552 646 626 m 199 894 l 199 596 l 397 596 q 503 640 459 596 q 547 745 547 684 q 503 851 547 807 q 397 894 459 894 l 199 894 m 199 497 l 199 99 l 397 99 q 539 157 481 99 q 596 298 596 215 q 539 439 596 382 q 397 497 481 497 l 199 497 z "},"C":{"ha":696,"x_min":99,"x_max":596,"o":"m 547 994 q 596 944 596 994 q 547 894 596 894 l 348 894 q 242 851 285 894 q 199 745 199 807 l 199 248 q 242 143 199 187 q 348 99 286 99 l 547 99 q 596 50 596 99 q 547 0 596 0 l 348 0 q 172 73 245 0 q 99 248 99 145 l 99 745 q 172 921 99 848 q 348 994 245 994 l 547 994 z "},"D":{"ha":795,"x_min":99,"x_max":696,"o":"m 99 944 q 149 994 99 994 l 447 994 q 624 922 552 994 q 696 745 696 850 l 696 248 q 623 73 696 145 q 447 0 550 0 l 149 0 q 99 50 99 0 l 99 944 m 199 894 l 199 99 l 447 99 q 553 143 509 99 q 596 248 596 187 l 596 745 q 553 851 596 807 q 447 894 509 894 l 199 894 z "},"E":{"ha":696,"x_min":99,"x_max":596,"o":"m 99 50 l 99 944 q 149 994 99 994 l 547 994 q 596 944 596 994 q 547 894 596 894 l 199 894 l 199 596 l 447 596 q 497 547 497 596 q 447 497 497 497 l 199 497 l 199 99 l 547 99 q 596 50 596 99 q 547 0 596 0 l 149 0 q 99 50 99 0 z "},"F":{"ha":696,"x_min":99,"x_max":596,"o":"m 99 50 l 99 944 q 149 994 99 994 l 547 994 q 596 944 596 994 q 547 894 596 894 l 199 894 l 199 596 l 547 596 q 596 547 596 596 q 547 497 596 497 l 199 497 l 199 50 q 149 0 199 0 q 99 50 99 0 z "},"G":{"ha":795,"x_min":99,"x_max":696,"o":"m 348 99 l 596 99 l 596 497 l 497 497 q 447 547 447 497 q 497 596 447 596 l 646 596 q 696 547 696 596 l 696 50 q 646 0 696 0 l 348 0 q 172 73 245 0 q 99 248 99 145 l 99 745 q 172 921 99 848 q 348 994 245 994 l 646 994 q 696 944 696 994 q 646 894 696 894 l 348 894 q 242 851 285 894 q 199 745 199 807 l 199 248 q 242 143 199 186 q 348 99 285 99 z "},"H":{"ha":795,"x_min":99,"x_max":696,"o":"m 99 50 l 99 944 q 149 994 99 994 q 199 944 199 994 l 199 596 l 596 596 l 596 944 q 646 994 596 994 q 696 944 696 994 l 696 50 q 646 0 696 0 q 596 50 596 0 l 596 497 l 199 497 l 199 50 q 149 0 199 0 q 99 50 99 0 z "},"I":{"ha":298,"x_min":99,"x_max":199,"o":"m 149 0 q 99 50 99 0 l 99 944 q 149 994 99 994 q 199 944 199 994 l 199 50 q 149 0 199 0 z "},"J":{"ha":596,"x_min":99,"x_max":497,"o":"m 497 944 l 497 248 q 424 72 497 145 q 248 0 352 0 l 149 0 q 99 50 99 0 q 149 99 99 99 l 248 99 q 354 143 311 99 q 397 248 397 187 l 397 944 q 447 994 397 994 q 497 944 497 994 z "},"K":{"ha":795,"x_min":99,"x_max":696,"o":"m 327 519 l 199 378 l 199 50 q 149 0 199 0 q 99 50 99 0 l 99 944 q 149 994 99 994 q 199 944 199 994 l 199 526 l 608 977 q 646 994 623 994 q 696 944 696 994 q 682 910 696 925 l 398 598 l 689 75 q 696 50 696 62 q 680 15 696 31 q 646 0 665 0 q 601 26 616 0 l 327 519 z "},"L":{"ha":696,"x_min":99,"x_max":596,"o":"m 99 944 q 149 994 99 994 q 199 944 199 994 l 199 99 l 547 99 q 596 50 596 99 q 547 0 596 0 l 149 0 q 99 50 99 0 l 99 944 z "},"M":{"ha":894,"x_min":99,"x_max":795,"o":"m 745 994 q 795 944 795 994 l 795 50 q 745 0 795 0 q 696 50 696 0 l 696 781 l 493 477 q 447 447 473 447 q 400 477 421 447 l 199 781 l 199 50 q 149 0 199 0 q 99 50 99 0 l 99 944 q 149 994 99 994 q 193 969 176 994 l 447 587 l 703 972 q 745 994 717 994 z "},"N":{"ha":795,"x_min":99,"x_max":696,"o":"m 596 242 l 596 944 q 646 994 596 994 q 696 944 696 994 l 696 50 q 646 0 696 0 q 602 25 616 0 l 199 753 l 199 50 q 149 0 199 0 q 99 50 99 0 l 99 944 q 149 994 99 994 q 195 964 178 994 l 596 242 z "},"O":{"ha":795,"x_min":99,"x_max":696,"o":"m 596 298 l 596 696 q 539 837 596 779 q 397 894 481 894 q 256 837 314 894 q 199 696 199 779 l 199 298 q 256 157 199 215 q 397 99 314 99 q 539 157 481 99 q 596 298 596 215 m 696 298 q 608 87 696 175 q 397 0 521 0 q 187 87 274 0 q 99 298 99 175 l 99 696 q 187 906 99 819 q 397 994 274 994 q 609 907 522 994 q 696 696 696 820 l 696 298 z "},"P":{"ha":795,"x_min":99,"x_max":696,"o":"m 149 994 l 397 994 q 609 907 522 994 q 696 696 696 820 q 613 480 696 563 q 397 397 530 397 l 199 397 l 199 50 q 149 0 199 0 q 99 50 99 0 l 99 944 q 149 994 99 994 m 199 894 l 199 497 l 397 497 q 539 554 481 497 q 596 696 596 612 q 539 837 596 779 q 397 894 481 894 l 199 894 z "},"Q":{"ha":795,"x_min":99,"x_max":795,"o":"m 552 172 q 516 205 534 188 q 498 247 498 226 q 547 297 498 297 q 594 270 568 297 q 596 298 596 284 l 596 696 q 539 837 596 779 q 397 894 481 894 q 256 837 314 894 q 199 696 199 779 l 199 298 q 256 157 199 215 q 397 99 314 99 q 552 172 492 99 m 621 102 q 397 0 534 0 q 187 87 274 0 q 99 298 99 175 l 99 696 q 187 906 99 819 q 397 994 274 994 q 609 907 522 994 q 696 696 696 820 l 696 298 q 675 189 696 244 l 778 86 q 795 49 795 69 q 745 0 795 0 q 708 15 723 0 l 621 102 z "},"R":{"ha":795,"x_min":99,"x_max":696,"o":"m 516 419 l 690 72 q 696 50 696 60 q 681 15 696 30 q 646 0 665 0 q 601 28 614 0 l 416 398 q 397 397 409 397 l 199 397 l 199 50 q 149 0 199 0 q 99 50 99 0 l 99 944 q 149 994 99 994 l 397 994 q 609 907 522 994 q 696 696 696 820 q 516 419 696 490 m 199 894 l 199 497 l 397 497 q 539 554 481 497 q 596 696 596 612 q 539 837 596 779 q 397 894 481 894 l 199 894 z "},"S":{"ha":795,"x_min":99,"x_max":696,"o":"m 696 248 q 623 73 696 146 q 447 0 550 0 q 121 108 263 0 q 99 149 99 125 q 114 184 99 169 q 149 199 129 199 q 178 190 161 199 q 315 120 221 163 q 447 99 376 99 q 553 143 509 99 q 596 248 596 187 q 513 382 596 340 l 234 525 q 99 745 99 594 q 172 921 99 848 q 348 994 245 994 q 617 939 524 994 q 646 894 646 922 q 631 859 646 874 q 596 845 617 845 q 575 850 589 845 q 348 894 461 894 q 242 851 286 894 q 199 745 199 807 q 280 613 199 654 l 559 470 q 696 248 696 400 z "},"T":{"ha":795,"x_min":99,"x_max":696,"o":"m 99 944 q 149 994 99 994 l 646 994 q 696 944 696 994 q 646 894 696 894 l 447 894 l 447 50 q 397 0 447 0 q 348 50 348 0 l 348 894 l 149 894 q 99 944 99 894 z "},"U":{"ha":795,"x_min":99,"x_max":696,"o":"m 696 944 l 696 298 q 608 87 696 175 q 397 0 521 0 q 187 87 274 0 q 99 298 99 175 l 99 944 q 149 994 99 994 q 199 944 199 994 l 199 298 q 256 157 199 215 q 397 99 314 99 q 539 157 481 99 q 596 298 596 215 l 596 944 q 646 994 596 994 q 696 944 696 994 z "},"V":{"ha":894,"x_min":99,"x_max":795,"o":"m 447 0 q 398 38 411 0 l 102 928 q 99 944 99 935 q 149 994 99 994 q 196 960 185 994 l 447 208 l 698 960 q 745 994 709 994 q 795 944 795 994 q 793 928 795 935 l 496 38 q 447 0 483 0 z "},"W":{"ha":1093,"x_min":99,"x_max":994,"o":"m 735 236 l 895 955 q 944 994 904 994 q 994 944 994 994 q 992 933 994 939 l 794 41 q 745 0 785 0 q 696 43 710 0 l 547 489 l 398 43 q 348 0 384 0 q 299 43 309 0 l 101 933 q 99 944 99 939 q 149 994 99 994 q 198 955 189 994 l 358 235 l 498 654 q 547 696 511 696 q 596 654 583 696 l 735 236 z "},"X":{"ha":894,"x_min":99,"x_max":795,"o":"m 507 497 l 787 78 q 795 50 795 65 q 745 0 795 0 q 704 22 718 0 l 447 407 l 190 22 q 149 0 176 0 q 99 50 99 0 q 108 78 99 65 l 387 497 l 108 916 q 99 944 99 929 q 149 994 99 994 q 190 972 176 994 l 447 587 l 704 972 q 745 994 718 994 q 795 944 795 994 q 787 916 795 929 l 507 497 z "},"Y":{"ha":894,"x_min":99,"x_max":795,"o":"m 497 497 l 497 50 q 447 0 497 0 q 397 50 397 0 l 397 497 l 108 915 q 99 944 99 928 q 149 994 99 994 q 190 973 176 994 l 447 599 l 704 973 q 745 994 718 994 q 795 944 795 994 q 786 915 795 928 l 497 497 z "},"Z":{"ha":795,"x_min":99,"x_max":696,"o":"m 234 99 l 646 99 q 696 50 696 99 q 646 0 696 0 l 149 0 q 99 50 99 0 q 109 80 99 62 l 562 894 l 149 894 q 99 944 99 894 q 149 994 99 994 l 646 994 q 696 945 696 994 q 686 914 696 931 l 234 99 z "},"[":{"ha":397,"x_min":99,"x_max":298,"o":"m 199 0 l 248 0 q 298 -50 298 0 q 248 -99 298 -99 l 149 -99 q 99 -50 99 -99 l 99 1043 q 149 1093 99 1093 l 248 1093 q 298 1043 298 1093 q 248 994 298 994 l 199 994 l 199 0 z "},"\\":{"ha":696,"x_min":99,"x_max":596,"o":"m 547 0 q 501 29 514 0 l 104 924 q 99 945 99 934 q 150 994 99 994 q 194 964 181 994 l 592 70 q 596 49 596 59 q 582 14 596 29 q 547 0 567 0 z "},"]":{"ha":397,"x_min":99,"x_max":298,"o":"m 199 0 l 199 994 l 149 994 q 99 1043 99 994 q 149 1093 99 1093 l 248 1093 q 298 1043 298 1093 l 298 -50 q 248 -99 298 -99 l 149 -99 q 99 -50 99 -99 q 149 0 99 0 l 199 0 z "},"^":{"ha":596,"x_min":99,"x_max":497,"o":"m 298 1220 l 185 1107 q 149 1093 171 1093 q 99 1143 99 1093 q 114 1178 99 1163 l 254 1318 q 298 1341 278 1341 q 342 1318 318 1341 l 482 1178 q 497 1143 497 1163 q 447 1093 497 1093 q 411 1107 425 1093 l 298 1220 z "},"_":{"ha":894,"x_min":-149,"x_max":1043,"o":"m 1043 -248 q 994 -298 1043 -298 l -99 -298 q -149 -248 -149 -298 q -99 -199 -149 -199 l 994 -199 q 1043 -248 1043 -199 z "},"`":{"ha":497,"x_min":99,"x_max":397,"o":"m 99 1292 q 149 1341 99 1341 q 179 1332 166 1341 l 378 1183 q 397 1143 397 1168 q 348 1093 397 1093 q 318 1103 330 1093 l 119 1252 q 99 1292 99 1266 z "},"a":{"ha":696,"x_min":99,"x_max":596,"o":"m 298 0 q 157 58 215 0 q 99 199 99 115 q 126 299 99 253 q 298 397 182 397 l 497 397 l 497 497 q 468 568 497 539 q 397 596 440 596 l 199 596 q 149 646 149 596 q 199 696 149 696 l 397 696 q 539 638 481 696 q 596 497 596 580 l 596 50 q 547 0 596 0 l 298 0 m 497 298 l 298 298 q 228 269 257 298 q 199 199 199 240 q 228 129 199 158 q 298 99 257 99 l 497 99 l 497 298 z "},"b":{"ha":696,"x_min":99,"x_max":596,"o":"m 596 497 l 596 199 q 539 58 596 115 q 397 0 481 0 l 149 0 q 99 50 99 0 l 99 944 q 149 994 99 994 q 199 944 199 994 l 199 696 l 397 696 q 570 597 513 696 q 596 497 596 551 m 397 596 l 199 596 l 199 99 l 397 99 q 468 128 439 99 q 497 199 497 157 l 497 497 q 468 568 497 539 q 397 596 440 596 z "},"c":{"ha":596,"x_min":99,"x_max":497,"o":"m 199 497 l 199 199 q 228 129 199 158 q 298 99 257 99 l 447 99 q 497 50 497 99 q 447 0 497 0 l 298 0 q 157 58 215 0 q 99 199 99 115 l 99 497 q 157 638 99 580 q 298 696 215 696 l 447 696 q 497 646 497 696 q 447 596 497 596 l 298 596 q 228 567 257 596 q 199 497 199 538 z "},"d":{"ha":696,"x_min":99,"x_max":596,"o":"m 99 497 q 126 597 99 551 q 298 696 182 696 l 497 696 l 497 944 q 547 994 497 994 q 596 944 596 994 l 596 50 q 547 0 596 0 l 298 0 q 157 58 215 0 q 99 199 99 115 l 99 497 m 298 596 q 228 567 257 596 q 199 497 199 538 l 199 199 q 228 129 199 158 q 298 99 257 99 l 497 99 l 497 596 l 298 596 z "},"e":{"ha":696,"x_min":99,"x_max":596,"o":"m 348 596 q 242 553 286 596 q 199 447 199 509 l 199 397 l 497 397 l 497 447 q 453 553 497 509 q 348 596 410 596 m 199 298 l 199 199 q 228 129 199 158 q 298 99 257 99 l 547 99 q 596 50 596 99 q 547 0 596 0 l 298 0 q 157 58 215 0 q 99 199 99 115 l 99 447 q 172 623 99 550 q 348 696 245 696 q 524 624 452 696 q 596 447 596 552 l 596 298 l 199 298 z "},"f":{"ha":596,"x_min":99,"x_max":497,"o":"m 149 696 l 199 696 l 199 795 q 257 936 199 879 q 397 994 315 994 l 447 994 q 497 944 497 994 q 447 894 497 894 l 397 894 q 327 865 356 894 q 298 795 298 836 l 298 696 l 447 696 q 497 646 497 696 q 447 596 497 596 l 298 596 l 298 50 q 248 0 298 0 q 199 50 199 0 l 199 596 l 149 596 q 99 646 99 596 q 149 696 99 696 z "},"g":{"ha":696,"x_min":99,"x_max":596,"o":"m 547 696 q 596 646 596 696 l 596 -99 q 539 -241 596 -183 q 397 -298 481 -298 l 199 -298 q 149 -248 149 -298 q 199 -199 149 -199 l 397 -199 q 468 -170 439 -199 q 497 -99 497 -141 l 497 0 l 298 0 q 126 99 182 0 q 99 199 99 145 l 99 497 q 157 638 99 580 q 298 696 215 696 l 547 696 m 497 596 l 298 596 q 228 567 257 596 q 199 497 199 538 l 199 199 q 228 129 199 158 q 298 99 257 99 l 497 99 l 497 596 z "},"h":{"ha":696,"x_min":99,"x_max":596,"o":"m 99 944 q 149 994 99 994 q 199 944 199 994 l 199 696 l 397 696 q 538 638 480 696 q 596 501 596 581 l 596 50 q 547 0 596 0 q 497 50 497 0 l 497 497 q 468 568 497 539 q 397 596 440 596 l 199 596 l 199 50 q 149 0 199 0 q 99 50 99 0 l 99 944 z "},"i":{"ha":298,"x_min":99,"x_max":199,"o":"m 99 646 q 149 696 99 696 q 199 646 199 696 l 199 50 q 149 0 199 0 q 99 50 99 0 l 99 646 m 99 894 l 99 944 q 149 994 99 994 q 199 944 199 994 l 199 894 q 149 845 199 845 q 99 894 99 845 z "},"j":{"ha":298,"x_min":-99,"x_max":199,"o":"m 149 994 q 199 944 199 994 l 199 894 q 149 845 199 845 q 99 894 99 845 l 99 944 q 149 994 99 994 m 199 -99 q 141 -241 199 -183 q 0 -298 84 -298 l -50 -298 q -99 -248 -99 -298 q -50 -199 -99 -199 q 0 -199 -36 -199 q 71 -169 42 -199 q 99 -99 99 -140 l 99 646 q 149 696 99 696 q 199 646 199 696 l 199 -99 z "},"k":{"ha":696,"x_min":99,"x_max":596,"o":"m 199 323 l 199 50 q 149 0 199 0 q 99 50 99 0 l 99 944 q 149 994 99 994 q 199 944 199 994 l 199 448 l 516 686 q 547 696 529 696 q 596 646 596 696 q 577 606 596 620 l 384 461 l 591 73 q 596 50 596 63 q 582 15 596 29 q 547 0 567 0 q 503 26 517 0 l 303 400 l 199 323 z "},"l":{"ha":397,"x_min":99,"x_max":298,"o":"m 99 944 q 149 994 99 994 q 199 944 199 994 l 199 149 q 248 99 199 111 q 298 50 298 88 q 248 0 298 0 q 140 40 181 0 q 99 149 99 79 l 99 944 z "},"m":{"ha":894,"x_min":99,"x_max":795,"o":"m 149 696 l 596 696 q 737 638 680 696 q 795 497 795 580 l 795 50 q 745 0 795 0 q 696 50 696 0 l 696 497 q 667 568 696 539 q 596 596 638 596 l 497 596 l 497 50 q 447 0 497 0 q 397 50 397 0 l 397 596 l 199 596 l 199 50 q 149 0 199 0 q 99 50 99 0 l 99 646 q 149 696 99 696 z "},"n":{"ha":696,"x_min":99,"x_max":596,"o":"m 99 50 l 99 646 q 149 696 99 696 l 397 696 q 539 638 481 696 q 596 497 596 580 l 596 50 q 547 0 596 0 q 497 50 497 0 l 497 497 q 468 568 497 539 q 397 596 440 596 l 199 596 l 199 50 q 149 0 199 0 q 99 50 99 0 z "},"o":{"ha":696,"x_min":99,"x_max":596,"o":"m 99 248 l 99 447 q 172 623 99 550 q 348 696 245 696 q 524 624 452 696 q 596 447 596 552 l 596 248 q 524 73 596 145 q 348 0 451 0 q 172 73 245 0 q 99 248 99 145 m 497 248 l 497 447 q 453 553 497 509 q 348 596 410 596 q 242 553 286 596 q 199 447 199 509 l 199 248 q 242 143 199 186 q 348 99 285 99 q 453 143 410 99 q 497 248 497 187 z "},"p":{"ha":696,"x_min":99,"x_max":596,"o":"m 99 646 q 149 696 99 696 l 397 696 q 539 638 481 696 q 596 497 596 580 l 596 199 q 539 58 596 116 q 397 0 481 0 l 199 0 l 199 -248 q 149 -298 199 -298 q 99 -248 99 -298 l 99 646 m 199 596 l 199 99 l 397 99 q 468 128 439 99 q 497 199 497 157 l 497 497 q 468 568 497 539 q 397 596 440 596 l 199 596 z "},"q":{"ha":696,"x_min":99,"x_max":596,"o":"m 596 646 l 596 -248 q 547 -298 596 -298 q 497 -248 497 -298 l 497 0 l 298 0 q 157 58 215 0 q 99 199 99 116 l 99 497 q 157 638 99 580 q 298 696 215 696 l 547 696 q 596 646 596 696 m 497 596 l 298 596 q 228 567 257 596 q 199 497 199 538 l 199 199 q 228 129 199 158 q 298 99 257 99 l 497 99 l 497 596 z "},"r":{"ha":596,"x_min":99,"x_max":497,"o":"m 99 646 q 149 696 99 696 l 447 696 q 497 646 497 696 l 497 547 q 447 497 497 497 q 397 547 397 497 l 397 596 l 199 596 l 199 50 q 149 0 199 0 q 99 50 99 0 l 99 646 z "},"s":{"ha":696,"x_min":99,"x_max":596,"o":"m 497 174 q 455 242 497 221 l 199 364 q 99 522 99 413 q 170 654 99 607 q 322 695 231 695 q 520 640 433 695 q 547 596 547 623 q 532 561 547 576 q 497 547 517 547 q 474 553 483 547 q 322 595 402 595 q 199 522 199 595 q 239 455 199 475 l 497 331 q 596 174 596 283 q 525 38 596 84 q 367 0 464 0 q 127 55 224 0 q 99 99 99 71 q 114 134 99 120 q 149 149 129 149 q 168 145 159 149 q 239 117 192 135 q 370 99 306 99 q 497 174 497 99 z "},"t":{"ha":596,"x_min":99,"x_max":497,"o":"m 199 596 l 149 596 q 99 646 99 596 q 149 696 99 696 l 199 696 l 199 944 q 248 994 199 994 q 298 944 298 994 l 298 696 l 447 696 q 497 646 497 696 q 447 596 497 596 l 298 596 l 298 50 q 248 0 298 0 q 199 50 199 0 l 199 596 z "},"u":{"ha":696,"x_min":99,"x_max":596,"o":"m 596 646 l 596 50 q 547 0 596 0 l 298 0 q 157 58 215 0 q 99 199 99 115 l 99 646 q 149 696 99 696 q 199 646 199 696 l 199 199 q 228 129 199 158 q 298 99 257 99 l 497 99 l 497 646 q 547 696 497 696 q 596 646 596 696 z "},"v":{"ha":696,"x_min":99,"x_max":596,"o":"m 348 208 l 498 662 q 546 696 510 696 q 596 647 596 696 q 593 630 596 639 l 397 41 q 348 0 384 0 q 298 41 312 0 l 102 630 q 99 647 99 639 q 114 681 99 667 q 149 696 129 696 q 196 662 185 696 l 348 208 z "},"w":{"ha":894,"x_min":99,"x_max":795,"o":"m 596 0 q 548 36 562 0 l 447 306 l 346 38 q 298 0 332 0 q 248 47 259 0 l 101 634 q 99 648 99 640 q 149 696 99 696 q 197 658 188 696 l 307 218 l 400 464 q 447 497 412 497 q 494 464 482 497 l 586 217 l 697 658 q 745 696 707 696 q 780 682 765 696 q 795 648 795 668 q 793 634 795 640 l 646 44 q 596 0 635 0 z "},"x":{"ha":696,"x_min":99,"x_max":596,"o":"m 408 348 l 588 78 q 596 50 596 65 q 547 0 596 0 q 505 22 519 0 l 348 258 l 190 22 q 149 0 176 0 q 114 15 129 0 q 99 50 99 29 q 108 78 99 65 l 288 348 l 108 618 q 99 646 99 631 q 149 696 99 696 q 190 674 176 696 l 348 438 l 505 674 q 547 696 519 696 q 596 647 596 696 q 588 618 596 631 l 408 348 z "},"y":{"ha":696,"x_min":99,"x_max":596,"o":"m 212 -199 l 295 50 l 102 630 q 99 646 99 639 q 149 696 99 696 q 196 662 185 696 l 348 208 l 499 662 q 547 696 510 696 q 596 646 596 696 q 593 630 596 639 l 296 -264 q 248 -298 285 -298 l 148 -298 q 99 -248 99 -298 q 140 -200 99 -209 q 212 -199 147 -199 z "},"z":{"ha":696,"x_min":99,"x_max":596,"o":"m 453 596 l 149 596 q 99 646 99 596 q 149 696 99 696 l 547 696 q 596 645 596 696 q 586 616 596 631 l 242 99 l 547 99 q 596 50 596 99 q 547 0 596 0 l 149 0 q 99 49 99 0 q 109 80 99 65 l 453 596 z "},"{":{"ha":497,"x_min":99,"x_max":397,"o":"m 298 50 q 348 0 298 11 q 397 -50 397 -11 q 348 -99 397 -99 q 242 -56 285 -99 q 199 50 199 -13 l 199 397 q 149 447 199 436 q 99 497 99 458 q 149 547 99 535 q 199 596 199 558 l 199 944 q 242 1050 199 1006 q 348 1093 286 1093 q 397 1043 397 1093 q 348 994 397 1005 q 298 944 298 982 l 298 596 q 248 497 298 514 q 286 455 271 490 q 298 397 298 425 l 298 50 z "},"|":{"ha":298,"x_min":99,"x_max":199,"o":"m 149 -300 q 99 -250 99 -300 l 99 1343 q 149 1393 99 1393 q 199 1343 199 1393 l 199 -250 q 149 -300 199 -300 z "},"}":{"ha":497,"x_min":99,"x_max":397,"o":"m 199 944 q 149 994 199 982 q 99 1043 99 1005 q 149 1093 99 1093 q 255 1050 212 1093 q 298 944 298 1006 l 298 596 q 348 547 298 558 q 397 497 397 535 q 348 447 397 458 q 298 397 298 436 l 298 50 q 254 -56 298 -13 q 149 -99 211 -99 q 99 -50 99 -99 q 149 0 99 -11 q 199 50 199 11 l 199 397 q 248 497 199 480 q 211 539 226 504 q 199 596 199 569 l 199 944 z "},"~":{"ha":696,"x_min":99,"x_max":596,"o":"m 447 199 q 331 248 394 199 q 248 298 269 298 q 199 273 229 298 q 149 248 169 248 q 114 263 129 248 q 99 298 99 279 q 120 338 99 323 q 179 380 167 373 q 248 397 211 397 q 364 348 300 397 q 447 298 428 298 q 498 323 467 298 q 547 348 528 348 q 596 298 596 348 q 576 257 596 276 q 537 229 556 243 q 447 199 496 199 z "}," ":{"ha":346,"x_min":0,"x_max":0,"o":""},"¡":{"ha":298,"x_min":99,"x_max":199,"o":"m 99 646 q 149 696 99 696 q 199 646 199 696 l 199 50 q 149 0 199 0 q 99 50 99 0 l 99 646 m 99 894 l 99 944 q 149 994 99 994 q 199 944 199 994 l 199 894 q 149 845 199 845 q 99 894 99 845 z "},"¢":{"ha":696,"x_min":99,"x_max":596,"o":"m 348 0 l 298 0 q 157 58 215 0 q 99 199 99 115 l 99 497 q 157 638 99 580 q 298 696 215 696 l 348 696 l 348 795 q 397 845 348 845 q 447 795 447 845 l 447 696 l 547 696 q 596 646 596 696 q 547 596 596 596 l 447 596 l 447 99 l 547 99 q 596 50 596 99 q 547 0 596 0 l 447 0 l 447 -99 q 397 -149 447 -149 q 348 -99 348 -149 l 348 0 m 348 99 l 348 596 l 298 596 q 228 567 257 596 q 199 497 199 538 l 199 199 q 228 129 199 158 q 298 99 257 99 l 348 99 z "},"£":{"ha":894,"x_min":99,"x_max":795,"o":"m 248 447 l 149 447 q 99 497 99 447 q 149 547 99 547 l 248 547 l 248 745 q 321 921 248 848 q 497 994 394 994 q 673 922 601 994 q 745 745 745 850 q 696 696 745 696 q 646 745 646 696 q 602 851 646 807 q 497 894 559 894 q 391 851 435 894 q 348 745 348 807 l 348 547 l 497 547 q 547 497 547 547 q 497 447 547 447 l 348 447 l 348 199 q 306 99 348 132 l 596 99 q 667 128 638 99 q 696 199 696 157 q 745 248 696 248 q 795 199 795 248 q 737 58 795 115 q 596 0 680 0 l 149 0 q 99 50 99 0 q 149 99 99 99 q 219 128 190 99 q 248 199 248 157 l 248 447 z "},"¤":{"ha":894,"x_min":99,"x_max":795,"o":"m 447 745 q 271 673 344 745 q 199 497 199 600 q 271 321 199 394 q 447 248 344 248 q 623 321 550 248 q 696 497 696 394 q 624 673 696 601 q 447 745 552 745 m 239 218 l 184 163 q 149 149 170 149 q 99 199 99 149 q 114 234 99 220 l 169 289 q 99 497 99 380 q 169 705 99 612 l 114 760 q 99 795 99 774 q 149 845 99 845 q 184 830 170 845 l 239 775 q 447 845 330 845 q 656 776 561 845 l 710 830 q 745 845 724 845 q 795 795 795 845 q 781 760 795 774 l 726 705 q 795 497 795 614 q 726 289 795 383 l 781 234 q 795 199 795 220 q 745 149 795 149 q 710 163 724 149 l 655 218 q 447 149 564 149 q 239 218 331 149 z "},"¥":{"ha":894,"x_min":99,"x_max":795,"o":"m 395 248 l 149 248 q 99 298 99 248 q 149 348 99 348 l 395 348 l 395 497 l 149 497 q 99 547 99 497 q 149 596 99 596 l 329 596 l 108 915 q 99 944 99 928 q 149 994 99 994 q 190 973 176 994 l 445 599 l 704 973 q 745 994 718 994 q 780 979 766 994 q 795 944 795 964 q 786 915 795 928 l 565 596 l 745 596 q 795 547 795 596 q 745 497 795 497 l 495 497 l 495 348 l 745 348 q 795 298 795 348 q 745 248 795 248 l 495 248 l 495 50 q 445 0 495 0 q 395 50 395 0 l 395 248 z "},"§":{"ha":596,"x_min":99,"x_max":497,"o":"m 298 596 q 228 567 257 596 q 199 497 199 538 q 228 427 199 456 q 298 397 257 397 q 368 426 340 397 q 397 497 397 455 q 369 568 397 539 q 298 596 340 596 m 99 497 q 167 646 99 586 q 99 795 99 706 q 157 936 99 878 q 298 994 215 994 q 413 957 359 994 q 486 862 466 920 q 489 845 489 853 q 474 810 489 824 q 439 795 459 795 q 383 845 413 795 q 298 894 354 894 q 228 865 257 894 q 199 795 199 836 q 228 725 199 754 q 298 696 257 696 q 398 669 352 696 q 497 497 497 611 q 428 348 497 407 q 497 199 497 289 q 439 58 497 116 q 298 0 381 0 q 185 37 236 0 q 111 132 134 74 q 108 149 108 140 q 122 184 108 169 q 157 199 137 199 q 204 166 190 199 q 298 99 232 99 q 368 128 340 99 q 397 199 397 157 q 369 269 397 241 q 298 298 340 298 q 199 325 244 298 q 99 497 99 383 z "},"¨":{"ha":596,"x_min":99,"x_max":497,"o":"m 99 1192 l 99 1242 q 149 1292 99 1292 q 199 1242 199 1292 l 199 1192 q 149 1143 199 1143 q 99 1192 99 1143 m 397 1192 l 397 1242 q 447 1292 397 1292 q 497 1242 497 1292 l 497 1192 q 447 1143 497 1143 q 397 1192 397 1143 z "},"©":{"ha":1093,"x_min":99,"x_max":994,"o":"m 547 994 q 863 863 732 994 q 994 547 994 732 q 863 230 994 361 q 547 99 732 99 q 231 231 362 99 q 99 547 99 362 q 230 863 99 732 q 547 994 361 994 m 547 894 q 300 793 402 894 q 199 547 199 691 q 301 301 199 403 q 547 199 403 199 q 793 300 691 199 q 894 547 894 402 q 793 793 894 691 q 547 894 691 894 m 646 696 l 547 696 q 476 667 505 696 q 447 596 447 638 l 447 497 q 477 427 447 456 q 547 397 506 397 l 646 397 q 696 348 696 397 q 646 298 696 298 l 547 298 q 405 356 463 298 q 348 497 348 414 l 348 596 q 406 737 348 680 q 547 795 464 795 l 646 795 q 696 745 696 795 q 646 696 696 696 z "},"ª":{"ha":696,"x_min":99,"x_max":596,"o":"m 298 397 q 99 571 99 397 q 298 745 99 745 l 497 745 l 497 795 q 468 866 497 837 q 397 894 440 894 l 199 894 q 149 944 149 894 q 199 994 149 994 l 397 994 q 539 936 481 994 q 596 795 596 879 l 596 447 q 547 397 596 397 l 298 397 m 497 646 l 298 646 q 199 571 199 646 q 298 497 199 497 l 497 497 l 497 646 m 547 149 l 149 149 q 99 199 99 149 q 149 248 99 248 l 547 248 q 596 199 596 248 q 547 149 596 149 z "},"«":{"ha":795,"x_min":99,"x_max":696,"o":"m 99 348 q 113 383 99 367 l 309 628 q 348 646 323 646 q 397 596 397 646 q 386 566 397 580 l 212 349 l 386 131 q 397 99 397 117 q 383 64 397 79 q 349 50 369 50 q 309 69 324 50 l 114 313 q 99 348 99 331 m 397 348 q 411 383 397 367 l 607 628 q 646 646 621 646 q 696 596 696 646 q 684 566 696 580 l 510 349 l 684 131 q 696 99 696 117 q 681 64 696 79 q 647 50 667 50 q 607 69 622 50 l 412 313 q 397 348 397 331 z "},"¬":{"ha":795,"x_min":99,"x_max":696,"o":"m 596 497 l 149 497 q 99 547 99 497 q 149 596 99 596 l 646 596 q 696 547 696 596 l 696 248 q 646 199 696 199 q 596 248 596 199 l 596 497 z "},"®":{"ha":1093,"x_min":99,"x_max":994,"o":"m 547 994 q 863 863 732 994 q 994 547 994 732 q 863 230 994 361 q 547 99 732 99 q 231 231 362 99 q 99 547 99 362 q 230 863 99 732 q 547 994 361 994 m 547 894 q 300 793 402 894 q 199 547 199 691 q 301 301 199 403 q 547 199 403 199 q 793 300 691 199 q 894 547 894 402 q 793 793 894 691 q 547 894 691 894 m 447 795 l 547 795 q 652 751 608 795 q 696 646 696 708 q 674 568 696 604 q 615 515 653 529 l 691 368 q 696 348 696 359 q 646 298 696 298 q 601 327 615 298 l 516 497 l 497 497 l 497 348 q 447 298 497 298 q 397 348 397 298 l 397 745 q 447 795 397 795 m 497 696 l 497 596 l 547 596 q 596 646 596 596 q 547 696 596 696 l 497 696 z "},"¯":{"ha":596,"x_min":-50,"x_max":646,"o":"m 596 1192 l 0 1192 q -50 1242 -50 1192 q 0 1292 -50 1292 l 596 1292 q 646 1242 646 1292 q 596 1192 646 1192 z "},"°":{"ha":596,"x_min":99,"x_max":497,"o":"m 298 895 q 228 866 257 895 q 199 796 199 837 q 228 726 199 755 q 298 696 257 696 q 368 725 340 696 q 397 796 397 754 q 369 866 397 838 q 298 895 340 895 m 298 994 q 439 936 381 994 q 497 796 497 879 q 439 655 497 713 q 298 597 381 597 q 157 655 215 597 q 99 796 99 713 q 157 936 99 879 q 298 994 215 994 z "},"±":{"ha":696,"x_min":99,"x_max":596,"o":"m 298 397 l 149 397 q 99 447 99 397 q 149 497 99 497 l 298 497 l 298 646 q 348 696 298 696 q 397 646 397 696 l 397 497 l 547 497 q 596 447 596 497 q 547 397 596 397 l 397 397 l 397 248 q 348 199 397 199 q 298 248 298 199 l 298 397 m 547 0 l 149 0 q 99 50 99 0 q 149 99 99 99 l 547 99 q 596 50 596 99 q 547 0 596 0 z "},"´":{"ha":497,"x_min":99,"x_max":397,"o":"m 149 1093 q 99 1143 99 1093 q 119 1183 99 1168 l 318 1332 q 348 1341 330 1341 q 397 1292 397 1341 q 378 1252 397 1266 l 179 1103 q 149 1093 166 1093 z "},"µ":{"ha":696,"x_min":99,"x_max":596,"o":"m 99 646 q 149 696 99 696 q 199 646 199 696 l 199 248 q 242 143 199 186 q 348 99 285 99 q 453 143 410 99 q 497 248 497 187 l 497 646 q 547 696 497 696 q 596 646 596 696 l 596 248 q 524 73 596 145 q 348 0 451 0 q 199 50 263 0 l 199 -248 q 149 -298 199 -298 q 99 -248 99 -298 l 99 646 z "},"¶":{"ha":894,"x_min":99,"x_max":795,"o":"m 298 886 q 199 745 199 852 q 226 659 199 698 q 298 604 254 620 l 298 886 m 397 894 l 397 50 q 348 0 397 0 q 298 50 298 0 l 298 502 q 155 588 211 519 q 99 745 99 656 q 172 921 99 848 q 348 994 245 994 l 745 994 q 795 944 795 994 q 780 910 795 925 q 740 894 765 895 q 696 894 751 894 l 696 50 q 646 0 696 0 q 596 50 596 0 l 596 894 l 397 894 z "},"·":{"ha":348,"x_min":99,"x_max":248,"o":"m 149 497 l 199 497 q 248 447 248 497 q 199 397 248 397 l 149 397 q 99 447 99 397 q 149 497 99 497 z "},"¸":{"ha":348,"x_min":99,"x_max":248,"o":"m 194 99 q 248 57 248 99 q 247 44 248 50 l 197 -161 q 149 -199 188 -199 q 99 -149 99 -199 q 101 -137 99 -143 l 151 69 q 194 99 158 99 z "},"º":{"ha":696,"x_min":99,"x_max":596,"o":"m 547 149 l 149 149 q 99 199 99 149 q 149 248 99 248 l 547 248 q 596 199 596 248 q 547 149 596 149 m 99 646 l 99 745 q 172 921 99 848 q 348 994 245 994 q 524 922 452 994 q 596 745 596 850 l 596 646 q 524 470 596 543 q 348 397 451 397 q 172 470 245 397 q 99 646 99 543 m 497 646 l 497 745 q 453 851 497 807 q 348 894 410 894 q 242 851 286 894 q 199 745 199 807 l 199 646 q 242 540 199 583 q 348 497 285 497 q 453 540 410 497 q 497 646 497 584 z "},"»":{"ha":795,"x_min":99,"x_max":696,"o":"m 446 50 q 412 65 427 50 q 397 99 397 80 q 409 131 397 117 l 583 349 l 409 566 q 397 596 397 580 q 447 646 397 646 q 486 628 472 646 l 682 383 q 696 348 696 367 q 681 313 696 331 l 486 69 q 446 50 471 50 m 148 50 q 114 65 129 50 q 99 99 99 80 q 111 131 99 117 l 285 349 l 111 566 q 99 596 99 580 q 149 646 99 646 q 188 628 174 646 l 384 383 q 397 348 397 367 q 383 313 397 331 l 188 69 q 148 50 173 50 z "},"¿":{"ha":696,"x_min":99,"x_max":596,"o":"m 397 894 q 348 845 397 845 q 298 894 298 845 l 298 944 q 348 994 298 994 q 397 944 397 994 l 397 894 m 298 0 q 157 58 215 0 q 99 199 99 115 q 158 340 99 282 l 282 461 q 298 497 298 476 l 298 646 q 348 696 298 696 q 397 646 397 696 l 397 497 q 350 388 397 434 l 227 268 q 199 199 199 241 q 228 129 199 158 q 298 99 257 99 q 528 145 393 99 q 547 149 539 149 q 596 99 596 149 q 566 54 596 68 q 298 0 443 0 z "},"À":{"ha":894,"x_min":99,"x_max":795,"o":"m 447 786 l 301 348 l 593 348 l 447 786 m 795 50 q 745 0 795 0 q 698 34 709 0 l 626 248 l 268 248 l 196 34 q 149 0 185 0 q 99 50 99 0 q 102 65 99 59 l 397 954 q 447 994 411 994 q 496 955 483 994 l 793 65 q 795 50 795 59 m 298 1341 q 348 1391 298 1391 q 378 1381 365 1391 l 577 1232 q 596 1192 596 1218 q 547 1143 596 1143 q 516 1153 529 1143 l 318 1302 q 298 1341 298 1316 z "},"Á":{"ha":894,"x_min":99,"x_max":795,"o":"m 447 786 l 301 348 l 593 348 l 447 786 m 795 50 q 745 0 795 0 q 698 34 709 0 l 626 248 l 268 248 l 196 34 q 149 0 185 0 q 99 50 99 0 q 102 65 99 59 l 397 954 q 447 994 411 994 q 496 955 483 994 l 793 65 q 795 50 795 59 m 348 1143 q 298 1192 298 1143 q 318 1232 298 1218 l 516 1381 q 547 1391 529 1391 q 596 1341 596 1391 q 577 1302 596 1316 l 378 1153 q 348 1143 365 1143 z "},"Â":{"ha":894,"x_min":99,"x_max":795,"o":"m 447 786 l 301 348 l 593 348 l 447 786 m 795 50 q 745 0 795 0 q 698 34 709 0 l 626 248 l 268 248 l 196 34 q 149 0 185 0 q 99 50 99 0 q 102 65 99 59 l 397 954 q 447 994 411 994 q 496 955 483 994 l 793 65 q 795 50 795 59 m 447 1270 l 334 1157 q 298 1143 320 1143 q 248 1192 248 1143 q 263 1228 248 1213 l 403 1368 q 447 1391 427 1391 q 491 1368 467 1391 l 631 1228 q 646 1192 646 1213 q 596 1143 646 1143 q 560 1157 574 1143 l 447 1270 z "},"Ã":{"ha":894,"x_min":99,"x_max":795,"o":"m 447 786 l 301 348 l 593 348 l 447 786 m 795 50 q 745 0 795 0 q 698 34 709 0 l 626 248 l 268 248 l 196 34 q 149 0 185 0 q 99 50 99 0 q 102 65 99 59 l 397 954 q 447 994 411 994 q 496 955 483 994 l 793 65 q 795 50 795 59 m 547 1192 q 480 1211 514 1192 q 425 1246 452 1229 q 383 1274 411 1253 q 348 1292 361 1292 q 298 1267 328 1292 q 248 1242 269 1242 q 214 1257 229 1242 q 199 1292 199 1272 q 219 1332 199 1317 q 279 1374 266 1367 q 348 1391 310 1391 q 411 1374 378 1391 q 464 1341 437 1357 q 510 1311 480 1334 q 547 1292 533 1292 q 597 1317 567 1292 q 646 1341 627 1341 q 696 1292 696 1341 q 675 1251 696 1269 q 636 1223 656 1237 q 547 1192 595 1192 z "},"Ä":{"ha":894,"x_min":99,"x_max":795,"o":"m 248 1192 l 248 1242 q 298 1292 248 1292 q 348 1242 348 1292 l 348 1192 q 298 1143 348 1143 q 248 1192 248 1143 m 547 1192 l 547 1242 q 596 1292 547 1292 q 646 1242 646 1292 l 646 1192 q 596 1143 646 1143 q 547 1192 547 1143 m 447 786 l 301 348 l 593 348 l 447 786 m 795 50 q 745 0 795 0 q 698 34 709 0 l 626 248 l 268 248 l 196 34 q 149 0 185 0 q 99 50 99 0 q 102 65 99 59 l 397 954 q 447 994 411 994 q 496 955 483 994 l 793 65 q 795 50 795 59 z "},"Å":{"ha":894,"x_min":99,"x_max":795,"o":"m 447 786 l 301 348 l 593 348 l 447 786 m 795 50 q 745 0 795 0 q 698 34 709 0 l 626 248 l 268 248 l 196 34 q 149 0 185 0 q 99 50 99 0 q 102 65 99 59 l 397 954 q 447 994 411 994 q 496 955 483 994 l 793 65 q 795 50 795 59 m 447 1391 q 570 1340 519 1391 q 621 1217 621 1290 q 570 1094 621 1145 q 447 1043 519 1043 q 324 1094 375 1043 q 273 1217 273 1145 q 324 1340 273 1290 q 447 1391 375 1391 m 447 1292 q 394 1270 416 1292 q 373 1217 373 1248 q 394 1165 373 1186 q 447 1143 416 1143 q 500 1165 478 1143 q 522 1217 522 1186 q 500 1270 522 1248 q 447 1292 478 1292 z "},"Æ":{"ha":1093,"x_min":99,"x_max":994,"o":"m 596 348 l 596 894 l 483 894 l 301 348 l 596 348 m 596 248 l 268 248 l 196 34 q 149 0 185 0 q 99 50 99 0 q 102 65 99 59 l 397 954 q 447 994 411 994 l 944 994 q 994 944 994 994 q 944 894 994 894 l 696 894 l 696 596 l 894 596 q 944 547 944 596 q 894 497 944 497 l 696 497 l 696 99 l 944 99 q 994 50 994 99 q 944 0 994 0 l 646 0 q 596 50 596 0 l 596 248 z "},"Ç":{"ha":696,"x_min":99,"x_max":596,"o":"m 298 -199 q 248 -149 248 -199 q 286 8 248 -143 q 152 96 204 29 q 99 248 99 163 l 99 745 q 172 921 99 848 q 348 994 245 994 l 547 994 q 596 944 596 994 q 547 894 596 894 l 348 894 q 219 821 262 894 q 199 745 199 786 l 199 248 q 242 143 199 187 q 348 99 286 99 l 547 99 q 596 50 596 99 q 547 0 596 0 l 387 0 l 346 -161 q 298 -199 336 -199 z "},"È":{"ha":696,"x_min":99,"x_max":596,"o":"m 99 50 l 99 944 q 149 994 99 994 l 547 994 q 596 944 596 994 q 547 894 596 894 l 199 894 l 199 596 l 447 596 q 497 547 497 596 q 447 497 497 497 l 199 497 l 199 99 l 547 99 q 596 50 596 99 q 547 0 596 0 l 149 0 q 99 50 99 0 m 199 1341 q 248 1391 199 1391 q 279 1381 266 1391 l 477 1232 q 497 1192 497 1218 q 447 1143 497 1143 q 417 1153 430 1143 l 218 1302 q 199 1341 199 1316 z "},"É":{"ha":696,"x_min":99,"x_max":596,"o":"m 99 50 l 99 944 q 149 994 99 994 l 547 994 q 596 944 596 994 q 547 894 596 894 l 199 894 l 199 596 l 447 596 q 497 547 497 596 q 447 497 497 497 l 199 497 l 199 99 l 547 99 q 596 50 596 99 q 547 0 596 0 l 149 0 q 99 50 99 0 m 248 1143 q 199 1192 199 1143 q 218 1232 199 1218 l 417 1381 q 447 1391 430 1391 q 497 1341 497 1391 q 477 1302 497 1316 l 279 1153 q 248 1143 266 1143 z "},"Ê":{"ha":696,"x_min":99,"x_max":596,"o":"m 99 50 l 99 944 q 149 994 99 994 l 547 994 q 596 944 596 994 q 547 894 596 894 l 199 894 l 199 596 l 447 596 q 497 547 497 596 q 447 497 497 497 l 199 497 l 199 99 l 547 99 q 596 50 596 99 q 547 0 596 0 l 149 0 q 99 50 99 0 m 348 1270 l 235 1157 q 199 1143 221 1143 q 149 1192 149 1143 q 164 1228 149 1213 l 304 1368 q 348 1391 327 1391 q 391 1368 368 1391 l 531 1228 q 547 1192 547 1213 q 497 1143 547 1143 q 461 1157 475 1143 l 348 1270 z "},"Ë":{"ha":696,"x_min":99,"x_max":596,"o":"m 99 50 l 99 944 q 149 994 99 994 l 547 994 q 596 944 596 994 q 547 894 596 894 l 199 894 l 199 596 l 447 596 q 497 547 497 596 q 447 497 497 497 l 199 497 l 199 99 l 547 99 q 596 50 596 99 q 547 0 596 0 l 149 0 q 99 50 99 0 m 149 1192 l 149 1242 q 199 1292 149 1292 q 248 1242 248 1292 l 248 1192 q 199 1143 248 1143 q 149 1192 149 1143 m 447 1192 l 447 1242 q 497 1292 447 1292 q 547 1242 547 1292 l 547 1192 q 497 1143 547 1143 q 447 1192 447 1143 z "},"Ì":{"ha":497,"x_min":99,"x_max":397,"o":"m 248 0 q 199 50 199 0 l 199 944 q 248 994 199 994 q 298 944 298 994 l 298 50 q 248 0 298 0 m 99 1341 q 149 1391 99 1391 q 179 1381 166 1391 l 378 1232 q 397 1192 397 1218 q 348 1143 397 1143 q 318 1153 330 1143 l 119 1302 q 99 1341 99 1316 z "},"Í":{"ha":497,"x_min":99,"x_max":397,"o":"m 248 0 q 199 50 199 0 l 199 944 q 248 994 199 994 q 298 944 298 994 l 298 50 q 248 0 298 0 m 149 1143 q 99 1192 99 1143 q 119 1232 99 1218 l 318 1381 q 348 1391 330 1391 q 397 1341 397 1391 q 378 1302 397 1316 l 179 1153 q 149 1143 166 1143 z "},"Î":{"ha":596,"x_min":99,"x_max":497,"o":"m 298 0 q 248 50 248 0 l 248 944 q 298 994 248 994 q 348 944 348 994 l 348 50 q 298 0 348 0 m 298 1270 l 185 1157 q 149 1143 171 1143 q 99 1192 99 1143 q 114 1228 99 1213 l 254 1368 q 298 1391 278 1391 q 342 1368 318 1391 l 482 1228 q 497 1192 497 1213 q 447 1143 497 1143 q 411 1157 425 1143 l 298 1270 z "},"Ï":{"ha":596,"x_min":99,"x_max":497,"o":"m 298 0 q 248 50 248 0 l 248 944 q 298 994 248 994 q 348 944 348 994 l 348 50 q 298 0 348 0 m 99 1192 l 99 1242 q 149 1292 99 1292 q 199 1242 199 1292 l 199 1192 q 149 1143 199 1143 q 99 1192 99 1143 m 397 1192 l 397 1242 q 447 1292 397 1292 q 497 1242 497 1292 l 497 1192 q 447 1143 497 1143 q 397 1192 397 1143 z "},"Ñ":{"ha":795,"x_min":99,"x_max":696,"o":"m 596 242 l 596 944 q 646 994 596 994 q 696 944 696 994 l 696 50 q 646 0 696 0 q 602 25 616 0 l 199 753 l 199 50 q 149 0 199 0 q 99 50 99 0 l 99 944 q 149 994 99 994 q 195 964 178 994 l 596 242 m 497 1192 q 381 1242 443 1192 q 298 1292 318 1292 q 249 1267 279 1292 q 199 1242 219 1242 q 164 1257 179 1242 q 149 1292 149 1272 q 169 1332 149 1317 q 229 1374 217 1367 q 298 1391 260 1391 q 414 1341 350 1391 q 497 1292 477 1292 q 547 1317 517 1292 q 596 1341 577 1341 q 646 1292 646 1341 q 626 1251 646 1269 q 586 1223 606 1237 q 497 1192 546 1192 z "},"Ò":{"ha":795,"x_min":99,"x_max":696,"o":"m 248 1341 q 298 1391 248 1391 q 328 1381 315 1391 l 527 1232 q 547 1192 547 1218 q 497 1143 547 1143 q 467 1153 480 1143 l 268 1302 q 248 1341 248 1316 m 596 298 l 596 696 q 539 837 596 779 q 397 894 481 894 q 256 837 314 894 q 199 696 199 779 l 199 298 q 256 157 199 215 q 397 99 314 99 q 539 157 481 99 q 596 298 596 215 m 696 298 q 608 87 696 175 q 397 0 521 0 q 187 87 274 0 q 99 298 99 175 l 99 696 q 187 906 99 819 q 397 994 274 994 q 609 907 522 994 q 696 696 696 820 l 696 298 z "},"Ó":{"ha":795,"x_min":99,"x_max":696,"o":"m 298 1143 q 248 1192 248 1143 q 268 1232 248 1218 l 467 1381 q 497 1391 480 1391 q 547 1341 547 1391 q 527 1302 547 1317 l 328 1153 q 298 1143 315 1143 m 596 298 l 596 696 q 539 837 596 779 q 397 894 481 894 q 256 837 314 894 q 199 696 199 779 l 199 298 q 256 157 199 215 q 397 99 314 99 q 539 157 481 99 q 596 298 596 215 m 696 298 q 608 87 696 175 q 397 0 521 0 q 187 87 274 0 q 99 298 99 175 l 99 696 q 187 906 99 819 q 397 994 274 994 q 609 907 522 994 q 696 696 696 820 l 696 298 z "},"Ô":{"ha":795,"x_min":99,"x_max":696,"o":"m 397 1270 l 285 1157 q 248 1143 270 1143 q 199 1192 199 1143 q 214 1228 199 1213 l 354 1368 q 397 1391 377 1391 q 441 1368 418 1391 l 581 1228 q 596 1192 596 1213 q 547 1143 596 1143 q 510 1157 525 1143 l 397 1270 m 596 298 l 596 696 q 539 837 596 779 q 397 894 481 894 q 256 837 314 894 q 199 696 199 779 l 199 298 q 256 157 199 215 q 397 99 314 99 q 539 157 481 99 q 596 298 596 215 m 696 298 q 608 87 696 175 q 397 0 521 0 q 187 87 274 0 q 99 298 99 175 l 99 696 q 187 906 99 819 q 397 994 274 994 q 609 907 522 994 q 696 696 696 820 l 696 298 z "},"Õ":{"ha":795,"x_min":99,"x_max":696,"o":"m 497 1192 q 381 1242 443 1192 q 298 1292 318 1292 q 248 1267 278 1292 q 199 1242 219 1242 q 164 1257 179 1242 q 149 1292 149 1272 q 169 1332 149 1315 q 298 1391 242 1391 q 414 1341 350 1391 q 497 1292 477 1292 q 547 1317 517 1292 q 596 1341 577 1341 q 646 1292 646 1341 q 626 1250 646 1269 q 586 1223 623 1249 q 497 1192 544 1192 m 596 298 l 596 696 q 539 837 596 779 q 397 894 481 894 q 256 837 314 894 q 199 696 199 779 l 199 298 q 256 157 199 215 q 397 99 314 99 q 539 157 481 99 q 596 298 596 215 m 696 298 q 608 87 696 175 q 397 0 521 0 q 187 87 274 0 q 99 298 99 175 l 99 696 q 187 906 99 819 q 397 994 274 994 q 609 907 522 994 q 696 696 696 820 l 696 298 z "},"Ö":{"ha":795,"x_min":99,"x_max":696,"o":"m 199 1192 l 199 1242 q 248 1292 199 1292 q 298 1242 298 1292 l 298 1192 q 248 1143 298 1143 q 199 1192 199 1143 m 497 1192 l 497 1242 q 547 1292 497 1292 q 596 1242 596 1292 l 596 1192 q 547 1143 596 1143 q 497 1192 497 1143 m 596 298 l 596 696 q 539 837 596 779 q 397 894 481 894 q 256 837 314 894 q 199 696 199 779 l 199 298 q 256 157 199 215 q 397 99 314 99 q 539 157 481 99 q 596 298 596 215 m 696 298 q 608 87 696 175 q 397 0 521 0 q 187 87 274 0 q 99 298 99 175 l 99 696 q 187 906 99 819 q 397 994 274 994 q 609 907 522 994 q 696 696 696 820 l 696 298 z "},"Ø":{"ha":994,"x_min":99,"x_max":894,"o":"m 747 857 l 808 927 q 845 944 822 944 q 894 894 894 944 q 882 862 894 875 l 788 754 q 795 696 795 721 l 795 298 q 708 87 795 175 q 497 0 620 0 q 247 136 338 0 l 187 67 q 149 50 172 50 q 99 99 99 50 q 112 132 99 118 l 205 239 q 199 298 199 270 l 199 696 q 286 906 199 819 q 497 994 373 994 q 747 857 657 994 m 696 649 l 316 215 q 497 99 371 99 q 638 157 580 99 q 696 298 696 215 l 696 649 m 677 778 q 497 894 626 894 q 356 837 413 894 q 298 696 298 779 l 298 345 l 677 778 z "},"Ù":{"ha":795,"x_min":99,"x_max":696,"o":"m 248 1341 q 298 1391 248 1391 q 328 1381 315 1391 l 527 1232 q 547 1192 547 1218 q 497 1143 547 1143 q 467 1153 480 1143 l 268 1302 q 248 1341 248 1316 m 696 944 l 696 298 q 608 87 696 175 q 397 0 521 0 q 187 87 274 0 q 99 298 99 175 l 99 944 q 149 994 99 994 q 199 944 199 994 l 199 298 q 256 157 199 215 q 397 99 314 99 q 539 157 481 99 q 596 298 596 215 l 596 944 q 646 994 596 994 q 696 944 696 994 z "},"Ú":{"ha":795,"x_min":99,"x_max":696,"o":"m 298 1143 q 248 1192 248 1143 q 268 1232 248 1218 l 467 1381 q 497 1391 480 1391 q 547 1341 547 1391 q 527 1302 547 1317 l 328 1153 q 298 1143 315 1143 m 696 944 l 696 298 q 608 87 696 175 q 397 0 521 0 q 187 87 274 0 q 99 298 99 175 l 99 944 q 149 994 99 994 q 199 944 199 994 l 199 298 q 256 157 199 215 q 397 99 314 99 q 539 157 481 99 q 596 298 596 215 l 596 944 q 646 994 596 994 q 696 944 696 994 z "},"Û":{"ha":795,"x_min":99,"x_max":696,"o":"m 397 1270 l 285 1157 q 248 1143 270 1143 q 199 1192 199 1143 q 214 1228 199 1213 l 354 1368 q 397 1391 377 1391 q 441 1368 418 1391 l 581 1228 q 596 1192 596 1213 q 547 1143 596 1143 q 510 1157 525 1143 l 397 1270 m 696 944 l 696 298 q 608 87 696 175 q 397 0 521 0 q 187 87 274 0 q 99 298 99 175 l 99 944 q 149 994 99 994 q 199 944 199 994 l 199 298 q 256 157 199 215 q 397 99 314 99 q 539 157 481 99 q 596 298 596 215 l 596 944 q 646 994 596 994 q 696 944 696 994 z "},"Ü":{"ha":795,"x_min":99,"x_max":696,"o":"m 199 1192 l 199 1242 q 248 1292 199 1292 q 298 1242 298 1292 l 298 1192 q 248 1143 298 1143 q 199 1192 199 1143 m 497 1192 l 497 1242 q 547 1292 497 1292 q 596 1242 596 1292 l 596 1192 q 547 1143 596 1143 q 497 1192 497 1143 m 696 944 l 696 298 q 608 87 696 175 q 397 0 521 0 q 187 87 274 0 q 99 298 99 175 l 99 944 q 149 994 99 994 q 199 944 199 994 l 199 298 q 256 157 199 215 q 397 99 314 99 q 539 157 481 99 q 596 298 596 215 l 596 944 q 646 994 596 994 q 696 944 696 994 z "},"ß":{"ha":795,"x_min":99,"x_max":696,"o":"m 348 994 l 447 994 q 623 921 550 994 q 696 745 696 848 q 596 547 696 622 q 696 348 696 471 l 696 248 q 623 73 696 145 q 447 0 550 0 q 397 50 397 0 q 447 99 397 99 q 553 143 510 99 q 596 248 596 186 l 596 348 q 553 453 596 410 q 447 497 509 497 q 397 547 397 497 q 447 596 397 596 q 553 639 510 596 q 596 745 596 683 q 553 851 596 807 q 447 894 509 894 l 348 894 q 242 851 285 894 q 199 745 199 808 l 199 50 q 149 0 199 0 q 99 50 99 0 l 99 745 q 172 921 99 848 q 348 994 245 994 z "},"à":{"ha":696,"x_min":99,"x_max":596,"o":"m 298 0 q 157 58 215 0 q 99 199 99 115 q 126 299 99 253 q 298 397 182 397 l 497 397 l 497 497 q 468 568 497 539 q 397 596 440 596 l 199 596 q 149 646 149 596 q 199 696 149 696 l 397 696 q 539 638 481 696 q 596 497 596 580 l 596 50 q 547 0 596 0 l 298 0 m 497 298 l 298 298 q 228 269 257 298 q 199 199 199 240 q 228 129 199 158 q 298 99 257 99 l 497 99 l 497 298 m 199 1043 q 248 1093 199 1093 q 279 1083 266 1093 l 477 934 q 497 894 497 920 q 447 845 497 845 q 417 854 430 845 l 218 1003 q 199 1043 199 1018 z "},"á":{"ha":696,"x_min":99,"x_max":596,"o":"m 298 0 q 157 58 215 0 q 99 199 99 115 q 126 299 99 253 q 298 397 182 397 l 497 397 l 497 497 q 468 568 497 539 q 397 596 440 596 l 199 596 q 149 646 149 596 q 199 696 149 696 l 397 696 q 539 638 481 696 q 596 497 596 580 l 596 50 q 547 0 596 0 l 298 0 m 497 298 l 298 298 q 228 269 257 298 q 199 199 199 240 q 228 129 199 158 q 298 99 257 99 l 497 99 l 497 298 m 248 845 q 199 894 199 845 q 218 934 199 920 l 417 1083 q 447 1093 430 1093 q 497 1043 497 1093 q 477 1003 497 1019 l 279 854 q 248 845 266 845 z "},"â":{"ha":696,"x_min":99,"x_max":596,"o":"m 298 0 q 157 58 215 0 q 99 199 99 115 q 126 299 99 253 q 298 397 182 397 l 497 397 l 497 497 q 468 568 497 539 q 397 596 440 596 l 199 596 q 149 646 149 596 q 199 696 149 696 l 397 696 q 539 638 481 696 q 596 497 596 580 l 596 50 q 547 0 596 0 l 298 0 m 497 298 l 298 298 q 228 269 257 298 q 199 199 199 240 q 228 129 199 158 q 298 99 257 99 l 497 99 l 497 298 m 348 972 l 235 859 q 199 845 221 845 q 149 894 149 845 q 164 930 149 915 l 304 1070 q 348 1093 327 1093 q 391 1070 368 1093 l 531 930 q 547 894 547 915 q 497 845 547 845 q 461 859 475 845 l 348 972 z "},"ã":{"ha":696,"x_min":99,"x_max":596,"o":"m 298 0 q 157 58 215 0 q 99 199 99 115 q 126 299 99 253 q 298 397 182 397 l 497 397 l 497 497 q 468 568 497 539 q 397 596 440 596 l 199 596 q 149 646 149 596 q 199 696 149 696 l 397 696 q 539 638 481 696 q 596 497 596 580 l 596 50 q 547 0 596 0 l 298 0 m 497 298 l 298 298 q 228 269 257 298 q 199 199 199 240 q 228 129 199 158 q 298 99 257 99 l 497 99 l 497 298 m 447 845 q 331 894 394 845 q 248 944 269 944 q 199 919 229 944 q 149 894 169 894 q 114 909 129 894 q 99 944 99 924 q 120 984 99 969 q 179 1026 167 1019 q 248 1043 211 1043 q 364 994 300 1043 q 447 944 428 944 q 498 969 467 944 q 547 994 528 994 q 596 944 596 994 q 576 903 596 921 q 537 875 556 889 q 447 845 496 845 z "},"ä":{"ha":696,"x_min":99,"x_max":596,"o":"m 298 0 q 157 58 215 0 q 99 199 99 115 q 126 299 99 253 q 298 397 182 397 l 497 397 l 497 497 q 468 568 497 539 q 397 596 440 596 l 199 596 q 149 646 149 596 q 199 696 149 696 l 397 696 q 539 638 481 696 q 596 497 596 580 l 596 50 q 547 0 596 0 l 298 0 m 497 298 l 298 298 q 228 269 257 298 q 199 199 199 240 q 228 129 199 158 q 298 99 257 99 l 497 99 l 497 298 m 149 894 l 149 944 q 199 994 149 994 q 248 944 248 994 l 248 894 q 199 845 248 845 q 149 894 149 845 m 447 894 l 447 944 q 497 994 447 994 q 547 944 547 994 l 547 894 q 497 845 547 845 q 447 894 447 845 z "},"å":{"ha":696,"x_min":99,"x_max":596,"o":"m 298 0 q 157 58 215 0 q 99 199 99 115 q 126 299 99 253 q 298 397 182 397 l 497 397 l 497 497 q 468 568 497 539 q 397 596 440 596 l 199 596 q 149 646 149 596 q 199 696 149 696 l 397 696 q 539 638 481 696 q 596 497 596 580 l 596 50 q 547 0 596 0 l 298 0 m 497 298 l 298 298 q 228 269 257 298 q 199 199 199 240 q 228 129 199 158 q 298 99 257 99 l 497 99 l 497 298 m 348 1192 q 471 1142 420 1192 q 522 1019 522 1091 q 471 895 522 946 q 348 845 420 845 q 225 895 276 845 q 174 1019 174 946 q 225 1142 174 1091 q 348 1192 276 1192 m 348 1093 q 295 1071 317 1093 q 273 1019 273 1049 q 295 966 273 988 q 348 944 317 944 q 400 966 379 944 q 422 1019 422 988 q 400 1071 422 1049 q 348 1093 379 1093 z "},"æ":{"ha":894,"x_min":99,"x_max":795,"o":"m 447 629 q 596 696 506 696 q 737 638 680 696 q 795 497 795 580 l 795 298 l 497 298 l 497 199 q 526 129 497 158 q 596 99 556 99 l 745 99 q 795 50 795 99 q 745 0 795 0 l 596 0 q 494 28 540 0 q 447 0 482 0 l 298 0 q 157 58 215 0 q 99 199 99 115 q 157 340 99 282 q 298 397 215 397 l 397 397 l 397 497 q 368 568 397 539 q 271 597 340 597 q 245 596 262 597 q 221 596 228 596 q 149 646 149 596 q 199 696 149 696 l 298 696 q 447 629 387 696 m 397 298 l 298 298 q 228 269 257 298 q 199 199 199 240 q 228 129 199 158 q 298 99 257 99 l 397 99 l 397 298 m 696 497 q 667 568 696 539 q 596 596 638 596 q 526 567 555 596 q 497 497 497 538 l 497 397 l 696 397 l 696 497 z "},"ç":{"ha":596,"x_min":99,"x_max":497,"o":"m 248 -199 q 199 -149 199 -199 q 237 10 199 -143 q 137 81 175 29 q 99 199 99 133 l 99 497 q 157 638 99 580 q 298 696 215 696 l 447 696 q 497 646 497 696 q 447 596 497 596 l 298 596 q 228 567 257 596 q 199 497 199 538 l 199 199 q 228 129 199 158 q 298 99 257 99 l 447 99 q 497 50 497 99 q 447 0 497 0 l 337 0 l 297 -161 q 248 -199 287 -199 z "},"è":{"ha":696,"x_min":99,"x_max":596,"o":"m 348 596 q 242 553 286 596 q 199 447 199 509 l 199 397 l 497 397 l 497 447 q 453 553 497 509 q 348 596 410 596 m 199 298 l 199 199 q 228 129 199 158 q 298 99 257 99 l 547 99 q 596 50 596 99 q 547 0 596 0 l 298 0 q 157 58 215 0 q 99 199 99 115 l 99 447 q 172 623 99 550 q 348 696 245 696 q 524 624 452 696 q 596 447 596 552 l 596 298 l 199 298 m 199 1043 q 248 1093 199 1093 q 279 1083 266 1093 l 477 934 q 497 894 497 920 q 447 845 497 845 q 417 854 430 845 l 218 1003 q 199 1043 199 1018 z "},"é":{"ha":696,"x_min":99,"x_max":596,"o":"m 348 596 q 242 553 286 596 q 199 447 199 509 l 199 397 l 497 397 l 497 447 q 453 553 497 509 q 348 596 410 596 m 199 298 l 199 199 q 228 129 199 158 q 298 99 257 99 l 547 99 q 596 50 596 99 q 547 0 596 0 l 298 0 q 157 58 215 0 q 99 199 99 115 l 99 447 q 172 623 99 550 q 348 696 245 696 q 524 624 452 696 q 596 447 596 552 l 596 298 l 199 298 m 248 845 q 199 894 199 845 q 218 934 199 920 l 417 1083 q 447 1093 430 1093 q 497 1043 497 1093 q 477 1003 497 1018 l 279 854 q 248 845 266 845 z "},"ê":{"ha":696,"x_min":99,"x_max":596,"o":"m 348 596 q 242 553 286 596 q 199 447 199 509 l 199 397 l 497 397 l 497 447 q 453 553 497 509 q 348 596 410 596 m 199 298 l 199 199 q 228 129 199 158 q 298 99 257 99 l 547 99 q 596 50 596 99 q 547 0 596 0 l 298 0 q 157 58 215 0 q 99 199 99 115 l 99 447 q 172 623 99 550 q 348 696 245 696 q 524 624 452 696 q 596 447 596 552 l 596 298 l 199 298 m 348 972 l 235 859 q 199 845 221 845 q 149 894 149 845 q 164 930 149 915 l 304 1070 q 348 1093 327 1093 q 391 1070 368 1093 l 531 930 q 547 894 547 915 q 497 845 547 845 q 461 859 475 845 l 348 972 z "},"ë":{"ha":696,"x_min":99,"x_max":596,"o":"m 348 596 q 242 553 286 596 q 199 447 199 509 l 199 397 l 497 397 l 497 447 q 453 553 497 509 q 348 596 410 596 m 199 298 l 199 199 q 228 129 199 158 q 298 99 257 99 l 547 99 q 596 50 596 99 q 547 0 596 0 l 298 0 q 157 58 215 0 q 99 199 99 115 l 99 447 q 172 623 99 550 q 348 696 245 696 q 524 624 452 696 q 596 447 596 552 l 596 298 l 199 298 m 149 894 l 149 944 q 199 994 149 994 q 248 944 248 994 l 248 894 q 199 845 248 845 q 149 894 149 845 m 447 894 l 447 944 q 497 994 447 994 q 547 944 547 994 l 547 894 q 497 845 547 845 q 447 894 447 845 z "},"ì":{"ha":497,"x_min":99,"x_max":397,"o":"m 199 646 q 248 696 199 696 q 298 646 298 696 l 298 50 q 248 0 298 0 q 199 50 199 0 l 199 646 m 99 1043 q 149 1093 99 1093 q 179 1083 166 1093 l 378 934 q 397 894 397 920 q 348 845 397 845 q 318 854 330 845 l 119 1003 q 99 1043 99 1018 z "},"í":{"ha":497,"x_min":99,"x_max":397,"o":"m 199 646 q 248 696 199 696 q 298 646 298 696 l 298 50 q 248 0 298 0 q 199 50 199 0 l 199 646 m 149 845 q 99 894 99 845 q 119 934 99 920 l 318 1083 q 348 1093 330 1093 q 397 1043 397 1093 q 378 1003 397 1018 l 179 854 q 149 845 166 845 z "},"î":{"ha":596,"x_min":99,"x_max":497,"o":"m 248 646 q 298 696 248 696 q 348 646 348 696 l 348 50 q 298 0 348 0 q 248 50 248 0 l 248 646 m 298 972 l 185 859 q 149 845 171 845 q 99 894 99 845 q 114 930 99 915 l 254 1070 q 298 1093 278 1093 q 342 1070 318 1093 l 482 930 q 497 894 497 915 q 447 845 497 845 q 411 859 425 845 l 298 972 z "},"ï":{"ha":596,"x_min":99,"x_max":497,"o":"m 248 646 q 298 696 248 696 q 348 646 348 696 l 348 50 q 298 0 348 0 q 248 50 248 0 l 248 646 m 99 894 l 99 944 q 149 994 99 994 q 199 944 199 994 l 199 894 q 149 845 199 845 q 99 894 99 845 m 397 894 l 397 944 q 447 994 397 994 q 497 944 497 994 l 497 894 q 447 845 497 845 q 397 894 397 845 z "},"ñ":{"ha":696,"x_min":99,"x_max":596,"o":"m 447 845 q 331 894 394 845 q 248 944 269 944 q 199 919 229 944 q 149 894 169 894 q 114 909 129 894 q 99 944 99 924 q 120 984 99 969 q 179 1026 167 1019 q 248 1043 211 1043 q 364 994 300 1043 q 447 944 428 944 q 498 969 467 944 q 547 994 528 994 q 596 944 596 994 q 576 903 596 921 q 537 875 556 889 q 447 845 496 845 m 99 50 l 99 646 q 149 696 99 696 l 397 696 q 538 638 480 696 q 596 497 596 580 l 596 50 q 547 0 596 0 q 497 50 497 0 l 497 497 q 468 568 497 539 q 397 596 440 596 l 199 596 l 199 50 q 149 0 199 0 q 99 50 99 0 z "},"ò":{"ha":696,"x_min":99,"x_max":596,"o":"m 99 248 l 99 447 q 172 623 99 550 q 348 696 245 696 q 524 624 452 696 q 596 447 596 552 l 596 248 q 524 73 596 145 q 348 0 451 0 q 172 73 245 0 q 99 248 99 145 m 497 248 l 497 447 q 453 553 497 509 q 348 596 410 596 q 242 553 286 596 q 199 447 199 509 l 199 248 q 242 143 199 186 q 348 99 285 99 q 453 143 410 99 q 497 248 497 187 m 199 1043 q 248 1093 199 1093 q 279 1083 266 1093 l 477 934 q 497 894 497 920 q 447 845 497 845 q 417 854 430 845 l 218 1003 q 199 1043 199 1018 z "},"ó":{"ha":696,"x_min":99,"x_max":596,"o":"m 99 248 l 99 447 q 172 623 99 550 q 348 696 245 696 q 524 624 452 696 q 596 447 596 552 l 596 248 q 524 73 596 145 q 348 0 451 0 q 172 73 245 0 q 99 248 99 145 m 497 248 l 497 447 q 453 553 497 509 q 348 596 410 596 q 242 553 286 596 q 199 447 199 509 l 199 248 q 242 143 199 186 q 348 99 285 99 q 453 143 410 99 q 497 248 497 187 m 248 845 q 199 894 199 845 q 218 934 199 920 l 417 1083 q 447 1093 430 1093 q 497 1043 497 1093 q 477 1003 497 1018 l 279 854 q 248 845 266 845 z "},"ô":{"ha":696,"x_min":99,"x_max":596,"o":"m 99 248 l 99 447 q 172 623 99 550 q 348 696 245 696 q 524 624 452 696 q 596 447 596 552 l 596 248 q 524 73 596 145 q 348 0 451 0 q 172 73 245 0 q 99 248 99 145 m 497 248 l 497 447 q 453 553 497 509 q 348 596 410 596 q 242 553 286 596 q 199 447 199 509 l 199 248 q 242 143 199 186 q 348 99 285 99 q 453 143 410 99 q 497 248 497 187 m 348 972 l 235 859 q 199 845 221 845 q 149 894 149 845 q 164 930 149 915 l 304 1070 q 348 1093 327 1093 q 391 1070 368 1093 l 531 930 q 547 894 547 915 q 497 845 547 845 q 461 859 475 845 l 348 972 z "},"õ":{"ha":696,"x_min":99,"x_max":596,"o":"m 99 248 l 99 447 q 172 623 99 550 q 348 696 245 696 q 524 624 452 696 q 596 447 596 552 l 596 248 q 524 73 596 145 q 348 0 451 0 q 172 73 245 0 q 99 248 99 145 m 497 248 l 497 447 q 453 553 497 509 q 348 596 410 596 q 242 553 286 596 q 199 447 199 509 l 199 248 q 242 143 199 186 q 348 99 285 99 q 453 143 410 99 q 497 248 497 187 m 447 845 q 331 894 394 845 q 248 944 269 944 q 199 919 229 944 q 149 894 169 894 q 114 909 129 894 q 99 944 99 924 q 120 984 99 969 q 179 1026 167 1019 q 248 1043 211 1043 q 364 994 300 1043 q 447 944 428 944 q 498 969 467 944 q 547 994 528 994 q 596 944 596 994 q 576 903 596 921 q 537 875 556 889 q 447 845 496 845 z "},"ö":{"ha":696,"x_min":99,"x_max":596,"o":"m 99 248 l 99 447 q 172 623 99 550 q 348 696 245 696 q 524 624 452 696 q 596 447 596 552 l 596 248 q 524 73 596 145 q 348 0 451 0 q 172 73 245 0 q 99 248 99 145 m 497 248 l 497 447 q 453 553 497 509 q 348 596 410 596 q 242 553 286 596 q 199 447 199 509 l 199 248 q 242 143 199 186 q 348 99 285 99 q 453 143 410 99 q 497 248 497 187 m 149 894 l 149 944 q 199 994 149 994 q 248 944 248 994 l 248 894 q 199 845 248 845 q 149 894 149 845 m 447 894 l 447 944 q 497 994 447 994 q 547 944 547 994 l 547 894 q 497 845 547 845 q 447 894 447 845 z "},"÷":{"ha":696,"x_min":99,"x_max":596,"o":"m 547 298 l 149 298 q 99 348 99 298 q 149 397 99 397 l 547 397 q 596 348 596 397 q 547 298 596 298 m 298 149 q 348 199 298 199 q 397 149 397 199 l 397 99 q 348 50 397 50 q 298 99 298 50 l 298 149 m 298 596 q 348 646 298 646 q 397 596 397 646 l 397 547 q 348 497 397 497 q 298 547 298 497 l 298 596 z "},"ø":{"ha":894,"x_min":99,"x_max":795,"o":"m 686 516 q 696 447 696 486 l 696 248 q 623 73 696 145 q 447 0 550 0 q 257 87 333 0 l 184 14 q 149 0 170 0 q 99 50 99 0 q 114 85 99 71 l 209 180 q 199 248 199 210 l 199 447 q 271 623 199 550 q 447 696 344 696 q 637 608 562 696 l 710 681 q 745 696 724 696 q 795 646 795 696 q 781 611 795 625 l 686 516 m 596 426 l 328 158 q 447 99 373 99 q 553 143 509 99 q 596 248 596 187 l 596 426 m 566 537 q 447 596 523 596 q 342 553 385 596 q 298 447 298 509 l 298 269 l 566 537 z "},"ù":{"ha":696,"x_min":99,"x_max":596,"o":"m 596 646 l 596 50 q 547 0 596 0 l 298 0 q 157 58 215 0 q 99 199 99 115 l 99 646 q 149 696 99 696 q 199 646 199 696 l 199 199 q 228 129 199 158 q 298 99 257 99 l 497 99 l 497 646 q 547 696 497 696 q 596 646 596 696 m 199 1043 q 248 1093 199 1093 q 279 1083 266 1093 l 477 934 q 497 894 497 920 q 447 845 497 845 q 417 854 430 845 l 218 1003 q 199 1043 199 1018 z "},"ú":{"ha":696,"x_min":99,"x_max":596,"o":"m 596 646 l 596 50 q 547 0 596 0 l 298 0 q 157 58 215 0 q 99 199 99 115 l 99 646 q 149 696 99 696 q 199 646 199 696 l 199 199 q 228 129 199 158 q 298 99 257 99 l 497 99 l 497 646 q 547 696 497 696 q 596 646 596 696 m 248 845 q 199 894 199 845 q 218 934 199 920 l 417 1083 q 447 1093 430 1093 q 497 1043 497 1093 q 477 1003 497 1018 l 279 854 q 248 845 266 845 z "},"û":{"ha":696,"x_min":99,"x_max":596,"o":"m 596 646 l 596 50 q 547 0 596 0 l 298 0 q 157 58 215 0 q 99 199 99 115 l 99 646 q 149 696 99 696 q 199 646 199 696 l 199 199 q 228 129 199 158 q 298 99 257 99 l 497 99 l 497 646 q 547 696 497 696 q 596 646 596 696 m 348 972 l 235 859 q 199 845 221 845 q 149 894 149 845 q 164 930 149 915 l 304 1070 q 348 1093 327 1093 q 391 1070 368 1093 l 531 930 q 547 894 547 915 q 497 845 547 845 q 461 859 475 845 l 348 972 z "},"ü":{"ha":696,"x_min":99,"x_max":596,"o":"m 596 646 l 596 50 q 547 0 596 0 l 298 0 q 157 58 215 0 q 99 199 99 115 l 99 646 q 149 696 99 696 q 199 646 199 696 l 199 199 q 228 129 199 158 q 298 99 257 99 l 497 99 l 497 646 q 547 696 497 696 q 596 646 596 696 m 149 894 l 149 944 q 199 994 149 994 q 248 944 248 994 l 248 894 q 199 845 248 845 q 149 894 149 845 m 447 894 l 447 944 q 497 994 447 994 q 547 944 547 994 l 547 894 q 497 845 547 845 q 447 894 447 845 z "},"ÿ":{"ha":696,"x_min":99,"x_max":596,"o":"m 212 -199 l 295 50 l 102 630 q 99 646 99 639 q 149 696 99 696 q 196 662 185 696 l 348 208 l 499 662 q 547 696 510 696 q 596 646 596 696 q 593 630 596 639 l 296 -264 q 248 -298 285 -298 l 148 -298 q 99 -248 99 -298 q 140 -200 99 -209 q 212 -199 147 -199 m 149 894 l 149 944 q 199 994 149 994 q 248 944 248 994 l 248 894 q 199 845 248 845 q 149 894 149 845 m 447 894 l 447 944 q 497 994 447 994 q 547 944 547 994 l 547 894 q 497 845 547 845 q 447 894 447 845 z "},"ı":{"ha":298,"x_min":99,"x_max":199,"o":"m 99 646 q 149 696 99 696 q 199 646 199 696 l 199 50 q 149 0 199 0 q 99 50 99 0 l 99 646 z "},"Œ":{"ha":1093,"x_min":99,"x_max":994,"o":"m 547 63 q 373 0 471 0 q 180 81 260 0 q 99 273 99 161 l 99 720 q 180 914 99 833 q 373 994 260 994 q 547 930 472 994 l 547 944 q 596 994 547 994 l 944 994 q 994 944 994 994 q 944 894 994 894 l 646 894 l 646 596 l 894 596 q 944 547 944 596 q 894 497 944 497 l 646 497 l 646 99 l 944 99 q 994 50 994 99 q 944 0 994 0 l 596 0 q 547 50 547 0 l 547 63 m 547 273 l 547 720 q 495 843 547 792 q 373 894 443 894 q 250 843 300 894 q 199 720 199 793 l 199 273 q 250 150 199 201 q 373 99 300 99 q 495 151 443 99 q 547 273 547 202 z "},"œ":{"ha":894,"x_min":99,"x_max":795,"o":"m 397 199 l 397 497 q 369 568 397 539 q 298 596 340 596 q 228 567 257 596 q 199 497 199 538 l 199 199 q 229 129 199 160 q 298 99 259 99 q 368 128 340 99 q 397 199 397 157 m 447 629 q 596 696 506 696 q 737 638 680 696 q 795 497 795 580 l 795 298 l 497 298 l 497 199 q 526 129 497 158 q 596 99 556 99 l 745 99 q 795 50 795 99 q 745 0 795 0 l 596 0 q 447 66 506 0 q 298 0 388 0 q 157 58 215 0 q 99 199 99 115 l 99 497 q 157 638 99 580 q 298 696 215 696 q 447 629 390 696 m 696 497 q 667 568 696 539 q 596 596 638 596 q 526 567 555 596 q 497 497 497 538 l 497 397 l 696 397 l 696 497 z "},"Ÿ":{"ha":894,"x_min":99,"x_max":795,"o":"m 248 1192 l 248 1242 q 298 1292 248 1292 q 348 1242 348 1292 l 348 1192 q 298 1143 348 1143 q 248 1192 248 1143 m 547 1192 l 547 1242 q 596 1292 547 1292 q 646 1242 646 1292 l 646 1192 q 596 1143 646 1143 q 547 1192 547 1143 m 497 497 l 497 50 q 447 0 497 0 q 397 50 397 0 l 397 497 l 108 915 q 99 944 99 928 q 149 994 99 994 q 190 973 176 994 l 447 599 l 704 973 q 745 994 718 994 q 795 944 795 994 q 786 915 795 928 l 497 497 z "},"ƒ":{"ha":696,"x_min":-99,"x_max":596,"o":"m 251 596 l 174 596 q 124 646 124 596 q 174 696 124 696 l 273 696 l 303 837 q 371 950 317 906 q 497 994 426 994 l 547 994 q 596 944 596 994 q 582 909 596 923 q 537 894 568 894 q 487 894 512 894 q 435 872 457 891 q 400 817 407 851 l 373 696 l 472 696 q 522 646 522 696 q 472 596 522 596 l 352 596 l 193 -145 q 124 -255 179 -212 q 0 -298 69 -298 l -50 -298 q -99 -248 -99 -298 q -85 -213 -99 -227 q -41 -198 -71 -199 q 10 -198 -15 -198 q 63 -176 41 -195 q 97 -120 90 -153 l 251 596 z "},"ˆ":{"ha":596,"x_min":99,"x_max":497,"o":"m 298 1270 l 185 1157 q 149 1143 171 1143 q 99 1192 99 1143 q 114 1228 99 1213 l 254 1368 q 298 1391 278 1391 q 342 1368 318 1391 l 482 1228 q 497 1192 497 1213 q 447 1143 497 1143 q 411 1157 425 1143 l 298 1270 z "},"ˇ":{"ha":596,"x_min":99,"x_max":497,"o":"m 298 1264 l 411 1377 q 447 1391 425 1391 q 497 1341 497 1391 q 482 1306 497 1321 l 342 1166 q 298 1143 318 1143 q 254 1166 278 1143 l 114 1306 q 99 1341 99 1321 q 149 1391 99 1391 q 185 1377 171 1391 l 298 1264 z "},"˘":{"ha":596,"x_min":99,"x_max":497,"o":"m 497 1341 q 438 1201 497 1259 q 297 1143 380 1143 q 157 1201 215 1143 q 99 1341 99 1259 q 148 1391 99 1391 q 198 1341 198 1391 q 227 1271 198 1301 q 297 1242 257 1242 q 368 1271 339 1242 q 397 1341 397 1300 q 412 1376 397 1362 q 447 1391 427 1391 q 497 1341 497 1391 z "},"˙":{"ha":298,"x_min":99,"x_max":199,"o":"m 99 1192 l 99 1242 q 149 1292 99 1292 q 199 1242 199 1292 l 199 1192 q 149 1143 199 1143 q 99 1192 99 1143 z "},"˚":{"ha":547,"x_min":99,"x_max":447,"o":"m 273 1391 q 396 1340 346 1391 q 447 1217 447 1290 q 396 1094 447 1145 q 273 1043 346 1043 q 150 1094 201 1043 q 99 1217 99 1145 q 150 1340 99 1290 q 273 1391 201 1391 m 273 1292 q 221 1270 242 1292 q 199 1217 199 1248 q 221 1165 199 1186 q 273 1143 242 1143 q 326 1165 304 1143 q 348 1217 348 1186 q 326 1270 348 1248 q 273 1292 304 1292 z "},"˛":{"ha":348,"x_min":99,"x_max":248,"o":"m 194 99 q 248 57 248 99 q 247 44 248 50 l 197 -161 q 149 -199 188 -199 q 99 -149 99 -199 q 101 -137 99 -143 l 151 69 q 194 99 158 99 z "},"˜":{"ha":696,"x_min":99,"x_max":596,"o":"m 447 1192 q 331 1242 393 1192 q 248 1292 269 1292 q 199 1267 229 1292 q 149 1242 169 1242 q 114 1257 129 1242 q 99 1292 99 1272 q 120 1332 99 1317 q 179 1374 167 1367 q 248 1391 211 1391 q 364 1341 301 1391 q 447 1292 428 1292 q 498 1317 467 1292 q 547 1341 528 1341 q 596 1292 596 1341 q 576 1251 596 1269 q 537 1223 556 1237 q 447 1192 496 1192 z "},"˝":{"ha":696,"x_min":99,"x_max":596,"o":"m 248 1391 q 298 1341 298 1391 q 289 1314 298 1328 l 191 1165 q 149 1143 177 1143 q 99 1192 99 1143 q 108 1220 99 1206 l 206 1369 q 248 1391 221 1391 m 547 1391 q 596 1341 596 1391 q 587 1314 596 1328 l 489 1165 q 447 1143 475 1143 q 397 1192 397 1143 q 407 1220 397 1206 l 504 1369 q 547 1391 519 1391 z "},"Δ":{"ha":894,"x_min":99,"x_max":795,"o":"m 218 99 l 676 99 l 447 786 l 218 99 m 745 0 l 149 0 q 99 50 99 0 q 102 65 99 59 l 398 955 q 447 994 411 994 q 496 955 483 994 l 793 65 q 795 50 795 59 q 780 15 795 29 q 745 0 766 0 z "},"∆":{"ha":894,"x_min":99,"x_max":795,"o":"m 218 99 l 676 99 l 447 786 l 218 99 m 745 0 l 149 0 q 99 50 99 0 q 102 65 99 59 l 398 955 q 447 994 411 994 q 496 955 483 994 l 793 65 q 795 50 795 59 q 780 15 795 29 q 745 0 766 0 z "},"π":{"ha":894,"x_min":99,"x_max":795,"o":"m 646 596 l 646 149 q 696 99 646 99 q 730 84 715 99 q 745 50 745 69 q 696 0 745 0 q 590 43 633 0 q 547 149 547 87 l 547 596 l 348 596 l 348 149 q 304 44 348 87 q 199 0 260 0 q 149 50 149 0 q 165 85 149 70 q 199 99 181 99 q 248 149 248 99 l 248 596 l 149 596 q 99 646 99 596 q 149 696 99 696 l 745 696 q 795 646 795 696 q 745 596 795 596 l 646 596 z "},"–":{"ha":795,"x_min":99,"x_max":696,"o":"m 646 397 l 149 397 q 99 447 99 397 q 149 497 99 497 l 646 497 q 696 447 696 497 q 646 397 696 397 z "},"—":{"ha":994,"x_min":99,"x_max":894,"o":"m 845 397 l 149 397 q 99 447 99 397 q 149 497 99 497 l 845 497 q 894 447 894 497 q 845 397 894 397 z "},"‘":{"ha":348,"x_min":99,"x_max":248,"o":"m 199 994 q 248 945 248 994 q 247 932 248 938 l 197 733 q 149 696 188 696 q 99 745 99 696 q 151 956 99 751 q 199 994 160 994 z "},"’":{"ha":348,"x_min":99,"x_max":248,"o":"m 199 994 q 248 945 248 994 q 247 932 248 938 l 197 733 q 149 696 188 696 q 99 745 99 696 q 151 956 99 751 q 199 994 160 994 z "},"‚":{"ha":348,"x_min":99,"x_max":248,"o":"m 199 99 q 248 50 248 99 q 247 38 248 44 l 197 -161 q 149 -199 188 -199 q 99 -149 99 -199 q 151 62 99 -143 q 199 99 160 99 z "},"“":{"ha":596,"x_min":99,"x_max":497,"o":"m 199 994 q 248 945 248 994 q 247 932 248 938 l 197 733 q 149 696 188 696 q 99 745 99 696 q 151 956 99 751 q 199 994 160 994 m 447 994 q 497 945 497 994 q 495 932 497 938 l 446 733 q 397 696 437 696 q 348 745 348 696 q 399 956 348 751 q 447 994 408 994 z "},"”":{"ha":596,"x_min":99,"x_max":497,"o":"m 199 994 q 248 945 248 994 q 247 932 248 938 l 197 733 q 149 696 188 696 q 99 745 99 696 q 151 956 99 751 q 199 994 160 994 m 447 994 q 497 945 497 994 q 495 932 497 938 l 446 733 q 397 696 437 696 q 348 745 348 696 q 399 956 348 751 q 447 994 408 994 z "},"„":{"ha":596,"x_min":99,"x_max":497,"o":"m 199 99 q 248 50 248 99 q 247 38 248 44 l 197 -161 q 149 -199 188 -199 q 99 -149 99 -199 q 151 62 99 -143 q 199 99 160 99 m 447 99 q 497 50 497 99 q 495 38 497 44 l 446 -161 q 397 -199 437 -199 q 348 -149 348 -199 q 399 62 348 -143 q 447 99 408 99 z "},"†":{"ha":696,"x_min":99,"x_max":596,"o":"m 348 -199 q 298 -149 298 -199 l 298 497 l 149 497 q 99 547 99 497 q 149 596 99 596 l 298 596 l 298 745 q 348 795 298 795 q 397 745 397 795 l 397 596 l 547 596 q 596 547 596 596 q 547 497 596 497 l 397 497 l 397 -149 q 348 -199 397 -199 z "},"‡":{"ha":696,"x_min":99,"x_max":596,"o":"m 397 497 l 397 99 l 547 99 q 596 50 596 99 q 547 0 596 0 l 397 0 l 397 -149 q 348 -199 397 -199 q 298 -149 298 -199 l 298 0 l 149 0 q 99 50 99 0 q 149 99 99 99 l 298 99 l 298 497 l 149 497 q 99 547 99 497 q 149 596 99 596 l 298 596 l 298 745 q 348 795 298 795 q 397 745 397 795 l 397 596 l 547 596 q 596 547 596 596 q 547 497 596 497 l 397 497 z "},"•":{"ha":348,"x_min":99,"x_max":248,"o":"m 149 497 l 199 497 q 248 447 248 497 q 199 397 248 397 l 149 397 q 99 447 99 397 q 149 497 99 497 z "},"…":{"ha":795,"x_min":99,"x_max":696,"o":"m 99 99 q 149 149 99 149 q 199 99 199 149 l 199 50 q 149 0 199 0 q 99 50 99 0 l 99 99 m 348 99 q 397 149 348 149 q 447 99 447 149 l 447 50 q 397 0 447 0 q 348 50 348 0 l 348 99 m 596 99 q 646 149 596 149 q 696 99 696 149 l 696 50 q 646 0 696 0 q 596 50 596 0 l 596 99 z "},"‰":{"ha":1093,"x_min":99,"x_max":994,"o":"m 273 994 q 396 943 346 994 q 447 820 447 892 q 396 697 447 748 q 273 646 346 646 q 150 697 201 646 q 99 820 99 748 q 150 943 99 892 q 273 994 201 994 m 273 894 q 221 872 242 894 q 199 820 199 851 q 221 767 199 789 q 273 745 242 745 q 326 767 304 745 q 348 820 348 789 q 326 872 348 851 q 273 894 304 894 m 373 248 q 496 198 445 248 q 547 75 547 147 q 496 -49 547 2 q 373 -99 445 -99 q 250 -49 300 -99 q 199 75 199 2 q 250 198 199 147 q 373 248 300 248 m 373 149 q 320 127 342 149 q 298 75 298 105 q 320 22 298 44 q 373 0 342 0 q 425 22 403 0 q 447 75 447 44 q 425 127 447 105 q 373 149 403 149 m 820 248 q 943 198 892 248 q 994 75 994 147 q 943 -49 994 2 q 820 -99 892 -99 q 697 -49 748 -99 q 646 75 646 2 q 697 198 646 147 q 820 248 748 248 m 820 149 q 767 127 789 149 q 745 75 745 105 q 767 22 745 44 q 820 0 789 0 q 872 22 851 0 q 894 75 894 44 q 872 127 894 105 q 820 149 851 149 m 99 298 q 117 336 99 321 l 714 833 q 745 845 727 845 q 795 795 795 845 q 778 757 795 772 l 181 260 q 149 248 167 248 q 114 263 129 248 q 99 298 99 279 z "},"‹":{"ha":497,"x_min":99,"x_max":397,"o":"m 99 348 q 113 383 99 367 l 309 628 q 348 646 323 646 q 397 596 397 646 q 386 566 397 580 l 212 349 l 386 131 q 397 99 397 117 q 383 64 397 79 q 349 50 369 50 q 309 69 324 50 l 114 313 q 99 348 99 331 z "},"›":{"ha":497,"x_min":99,"x_max":397,"o":"m 148 50 q 114 65 129 50 q 99 99 99 80 q 111 131 99 117 l 285 349 l 111 566 q 99 596 99 580 q 149 646 99 646 q 188 628 174 646 l 384 383 q 397 348 397 367 q 383 313 397 331 l 188 69 q 148 50 173 50 z "},"⁄":{"ha":646,"x_min":99,"x_max":547,"o":"m 149 -199 q 115 -186 130 -199 q 99 -154 99 -172 q 102 -130 99 -142 l 447 1144 q 497 1192 460 1192 q 547 1144 547 1192 q 544 1122 547 1134 l 197 -162 q 149 -199 187 -199 z "},"™":{"ha":1093,"x_min":99,"x_max":994,"o":"m 149 894 q 99 944 99 894 q 149 994 99 994 l 447 994 q 497 944 497 994 q 447 894 497 894 l 348 894 l 348 447 q 298 397 348 397 q 248 447 248 397 l 248 894 l 149 894 m 795 696 l 696 822 l 696 447 q 646 397 696 397 q 596 447 596 397 l 596 944 q 646 994 596 994 q 696 962 668 994 l 795 845 l 894 962 q 944 994 921 994 q 994 944 994 994 l 994 447 q 944 397 994 397 q 894 447 894 397 l 894 822 l 795 696 z "},"Ω":{"ha":894,"x_min":99,"x_max":795,"o":"m 447 894 q 271 822 344 894 q 199 646 199 749 l 199 547 q 314 336 199 416 q 341 311 333 323 q 348 269 348 299 l 348 50 q 298 0 348 0 l 149 0 q 99 50 99 0 q 149 99 99 99 l 248 99 l 248 261 q 99 547 99 364 l 99 646 q 201 892 99 790 q 447 994 303 994 q 693 892 592 994 q 795 646 795 790 l 795 547 q 646 261 795 364 l 646 99 l 745 99 q 795 50 795 99 q 745 0 795 0 l 596 0 q 547 50 547 0 l 547 269 q 553 310 547 297 q 580 336 560 323 q 666 429 638 376 q 695 534 690 474 q 696 646 696 541 q 624 822 696 751 q 447 894 552 894 z "},"∏":{"ha":795,"x_min":99,"x_max":696,"o":"m 149 994 l 646 994 q 696 944 696 994 l 696 50 q 646 0 696 0 q 596 50 596 0 l 596 894 l 199 894 l 199 50 q 149 0 199 0 q 99 50 99 0 l 99 944 q 149 994 99 994 z "},"∑":{"ha":944,"x_min":99,"x_max":845,"o":"m 149 0 q 99 50 99 0 q 106 75 99 65 l 388 497 l 106 919 q 99 944 99 929 q 149 994 99 994 l 646 994 q 696 944 696 994 q 646 894 696 894 l 243 894 l 489 525 q 497 497 497 513 q 489 468 497 481 l 243 99 l 646 99 q 720 117 691 99 q 745 149 745 132 q 761 184 745 169 q 795 199 776 199 q 845 149 845 199 q 786 44 845 87 q 646 0 727 0 l 149 0 z "},"√":{"ha":994,"x_min":99,"x_max":1143,"o":"m 696 1391 l 1093 1391 q 1143 1341 1143 1391 q 1093 1292 1143 1292 l 735 1292 l 396 37 q 348 0 386 0 q 300 35 312 0 l 102 631 q 99 646 99 640 q 149 696 99 696 q 196 662 185 696 l 343 221 l 646 1343 q 696 1391 659 1391 z "},"∞":{"ha":994,"x_min":99,"x_max":894,"o":"m 323 621 q 235 585 272 621 q 199 497 199 548 q 235 409 199 445 q 323 373 271 373 q 411 409 374 373 q 447 497 447 446 q 411 585 447 549 q 323 621 375 621 m 497 638 q 671 720 565 720 q 828 655 763 720 q 894 497 894 589 q 828 339 894 405 q 671 273 763 273 q 497 356 565 273 q 323 273 429 273 q 165 339 231 273 q 99 497 99 405 q 165 655 99 589 q 323 720 231 720 q 497 638 431 720 m 671 621 q 583 585 620 621 q 547 497 547 548 q 583 409 547 445 q 671 373 619 373 q 758 409 722 373 q 795 497 795 446 q 759 585 795 549 q 671 621 723 621 z "},"∫":{"ha":696,"x_min":99,"x_max":596,"o":"m 149 -298 q 99 -248 99 -298 q 114 -213 99 -227 q 161 -198 129 -198 q 176 -199 166 -198 q 191 -199 186 -199 q 269 -169 241 -199 q 298 -99 298 -140 l 298 1192 q 356 1334 298 1276 q 497 1391 413 1391 l 547 1391 q 596 1341 596 1391 q 582 1306 596 1320 q 535 1291 567 1291 q 520 1292 531 1291 q 505 1292 510 1292 q 427 1263 456 1292 q 397 1192 397 1235 l 397 -99 q 340 -241 397 -183 q 199 -298 282 -298 l 149 -298 z "},"≈":{"ha":696,"x_min":99,"x_max":596,"o":"m 447 99 q 331 149 393 99 q 248 199 269 199 q 199 174 229 199 q 149 149 169 149 q 114 164 129 149 q 99 199 99 179 q 120 239 99 224 q 179 281 167 274 q 248 298 211 298 q 364 248 301 298 q 447 199 428 199 q 498 224 467 199 q 547 248 528 248 q 596 199 596 248 q 576 158 596 176 q 537 129 556 144 q 447 99 496 99 m 447 397 q 331 447 393 397 q 248 497 269 497 q 199 472 229 497 q 149 447 169 447 q 114 462 129 447 q 99 497 99 477 q 120 537 99 522 q 179 579 167 572 q 248 596 211 596 q 364 547 301 596 q 447 497 428 497 q 498 522 467 497 q 547 547 528 547 q 596 497 596 547 q 576 456 596 474 q 537 428 556 442 q 447 397 496 397 z "},"⋲":{"ha":696,"x_min":99,"x_max":596,"o":"m 447 99 q 331 149 393 99 q 248 199 269 199 q 199 174 229 199 q 149 149 169 149 q 114 164 129 149 q 99 199 99 179 q 120 239 99 224 q 179 281 167 274 q 248 298 211 298 q 364 248 301 298 q 447 199 428 199 q 498 224 467 199 q 547 248 528 248 q 596 199 596 248 q 576 158 596 176 q 537 129 556 144 q 447 99 496 99 m 447 397 q 331 447 393 397 q 248 497 269 497 q 199 472 229 497 q 149 447 169 447 q 114 462 129 447 q 99 497 99 477 q 120 537 99 522 q 179 579 167 572 q 248 596 211 596 q 364 547 301 596 q 447 497 428 497 q 498 522 467 497 q 547 547 528 547 q 596 497 596 547 q 576 456 596 474 q 537 428 556 442 q 447 397 496 397 z "},"≠":{"ha":696,"x_min":99,"x_max":596,"o":"m 187 149 q 129 154 143 149 q 99 199 99 164 q 149 248 99 248 l 228 248 l 311 447 l 149 447 q 99 497 99 447 q 149 547 99 547 l 352 547 l 401 665 q 446 696 414 696 q 497 646 497 696 q 459 547 497 636 l 547 547 q 596 497 596 547 q 547 447 596 447 l 418 447 l 335 248 l 547 248 q 596 199 596 248 q 547 149 596 149 l 294 149 l 245 31 q 199 0 232 0 q 164 15 178 0 q 149 50 149 29 q 187 149 149 59 z "},"≤":{"ha":696,"x_min":99,"x_max":596,"o":"m 291 497 l 564 394 q 596 348 596 382 q 547 298 596 298 q 529 301 537 298 l 132 450 q 99 497 99 462 q 132 544 99 531 l 529 693 q 547 696 537 696 q 596 646 596 696 q 564 599 596 611 l 291 497 m 547 50 l 149 50 q 99 99 99 50 q 149 149 99 149 l 547 149 q 596 99 596 149 q 547 50 596 50 z "},"≥":{"ha":696,"x_min":99,"x_max":596,"o":"m 405 497 l 132 599 q 99 646 99 611 q 149 696 99 696 q 166 693 158 696 l 564 544 q 596 497 596 531 q 564 450 596 462 l 166 301 q 149 298 158 298 q 114 313 129 298 q 99 348 99 327 q 132 394 99 382 l 405 497 m 547 50 l 149 50 q 99 99 99 50 q 149 149 99 149 l 547 149 q 596 99 596 149 q 547 50 596 50 z "},"":{"ha":1093,"x_min":99,"x_max":1025,"o":"m 914 164 q 946 175 930 175 q 980 160 966 175 q 994 126 994 145 q 974 85 994 99 q 696 0 851 0 q 324 168 473 0 q 221 348 254 247 l 149 348 q 99 397 99 348 q 149 447 99 447 l 201 447 q 199 497 199 469 q 201 547 199 522 l 149 547 q 99 596 99 547 q 149 646 99 646 l 221 646 q 402 898 270 802 q 696 994 533 994 q 1008 883 871 994 q 1025 848 1025 869 q 1011 812 1025 828 q 976 796 997 796 q 942 809 958 796 q 696 894 836 894 q 474 827 574 894 q 327 646 373 760 l 875 646 q 925 596 925 646 q 875 547 925 547 l 301 547 q 298 497 298 525 q 301 447 298 469 l 797 447 q 847 397 847 447 q 797 348 847 348 l 327 348 q 540 131 388 196 q 696 99 614 99 q 914 164 816 99 z "},"¦":{"ha":298,"x_min":99,"x_max":199,"o":"m 149 547 q 99 596 99 547 l 99 944 q 149 994 99 994 q 199 944 199 994 l 199 596 q 149 547 199 547 m 149 0 q 99 50 99 0 l 99 397 q 149 447 99 447 q 199 397 199 447 l 199 50 q 149 0 199 0 z "},"­":{"ha":696,"x_min":99,"x_max":596,"o":"m 547 397 l 149 397 q 99 447 99 397 q 149 497 99 497 l 547 497 q 596 447 596 497 q 547 397 596 397 z "},"²":{"ha":596,"x_min":99,"x_max":497,"o":"m 271 795 l 447 795 q 497 745 497 795 q 447 696 497 696 l 149 696 q 99 745 99 696 q 131 795 99 765 l 352 1008 q 397 1093 397 1052 q 369 1164 397 1135 q 298 1192 340 1192 q 205 1128 230 1192 q 157 1093 191 1093 q 123 1108 138 1093 q 108 1143 108 1123 q 111 1161 108 1150 q 183 1256 132 1220 q 298 1292 235 1292 q 439 1234 381 1292 q 497 1093 497 1176 q 437 952 497 1009 l 271 795 z "},"³":{"ha":547,"x_min":99,"x_max":447,"o":"m 248 994 l 199 994 q 149 1043 149 994 q 199 1093 149 1093 l 248 1093 q 283 1108 269 1093 q 298 1143 298 1122 q 248 1192 298 1192 l 149 1192 q 99 1242 99 1192 q 149 1292 99 1292 l 248 1292 q 354 1248 310 1292 q 397 1143 397 1204 q 367 1053 397 1093 q 447 894 447 996 q 389 754 447 812 q 248 696 330 696 l 149 696 q 99 745 99 696 q 149 795 99 795 l 248 795 q 319 824 290 795 q 348 894 348 853 q 319 965 348 936 q 248 994 291 994 z "},"¹":{"ha":447,"x_min":99,"x_max":348,"o":"m 248 1093 l 189 1013 q 149 994 175 994 q 99 1043 99 994 q 109 1073 99 1061 l 258 1272 q 298 1292 273 1292 q 348 1242 348 1292 l 348 745 q 298 696 348 696 q 248 745 248 696 l 248 1093 z "},"¼":{"ha":1093,"x_min":99,"x_max":994,"o":"m 745 497 q 795 447 795 497 q 791 428 795 437 l 671 149 l 795 149 q 798 214 795 202 q 845 248 807 248 q 891 214 882 248 q 894 149 894 202 q 959 146 947 149 q 994 99 994 137 q 959 53 994 62 q 894 50 947 50 l 894 -50 q 845 -99 894 -99 q 795 -50 795 -99 l 795 50 l 596 50 q 547 99 547 50 q 550 119 547 110 l 699 467 q 745 497 712 497 m 248 894 l 189 815 q 149 795 175 795 q 99 845 99 795 q 109 875 99 862 l 258 1073 q 298 1093 273 1093 q 348 1043 348 1093 l 348 547 q 298 497 348 497 q 248 547 248 497 l 248 894 m 199 50 q 205 75 199 64 l 702 968 q 745 994 717 994 q 795 944 795 994 q 789 920 795 930 l 291 26 q 248 0 277 0 q 199 50 199 0 z "},"½":{"ha":1093,"x_min":99,"x_max":994,"o":"m 248 894 l 189 815 q 149 795 175 795 q 99 845 99 795 q 109 875 99 862 l 258 1073 q 298 1093 273 1093 q 348 1043 348 1093 l 348 547 q 298 497 348 497 q 248 547 248 497 l 248 894 m 199 50 q 205 75 199 64 l 702 968 q 745 994 717 994 q 795 944 795 994 q 789 920 795 930 l 291 26 q 248 0 277 0 q 199 50 199 0 m 768 0 l 944 0 q 994 -50 994 0 q 944 -99 994 -99 l 646 -99 q 596 -50 596 -99 q 628 0 596 -30 l 849 213 q 894 298 894 257 q 866 369 894 340 q 795 397 837 397 q 702 333 726 397 q 654 298 688 298 q 620 313 635 298 q 604 348 604 328 q 608 366 604 355 q 680 461 629 425 q 795 497 732 497 q 936 439 878 497 q 994 298 994 381 q 934 157 994 214 l 768 0 z "},"¾":{"ha":1093,"x_min":99,"x_max":994,"o":"m 745 497 q 795 447 795 497 q 791 428 795 437 l 671 149 l 795 149 q 798 214 795 202 q 845 248 807 248 q 891 214 882 248 q 894 149 894 202 q 959 146 947 149 q 994 99 994 137 q 959 53 994 62 q 894 50 947 50 l 894 -50 q 845 -99 894 -99 q 795 -50 795 -99 l 795 50 l 596 50 q 547 99 547 50 q 550 119 547 110 l 699 467 q 745 497 712 497 m 248 50 q 254 75 248 64 l 752 968 q 795 994 766 994 q 845 944 845 994 q 839 920 845 930 l 341 26 q 298 0 327 0 q 248 50 248 0 m 248 795 l 199 795 q 149 845 149 795 q 199 894 149 894 l 248 894 q 283 909 269 894 q 298 944 298 924 q 248 994 298 994 l 149 994 q 99 1043 99 994 q 149 1093 99 1093 l 248 1093 q 354 1049 310 1093 q 397 944 397 1006 q 367 854 397 894 q 447 696 447 797 q 389 555 447 613 q 248 497 330 497 l 149 497 q 99 547 99 497 q 149 596 99 596 l 248 596 q 319 625 290 596 q 348 696 348 654 q 319 766 348 738 q 248 795 291 795 z "},"Ð":{"ha":944,"x_min":99,"x_max":845,"o":"m 248 447 l 149 447 q 99 497 99 447 q 149 547 99 547 l 248 547 l 248 944 q 298 994 248 994 l 596 994 q 773 922 701 994 q 845 745 845 850 l 845 248 q 772 73 845 145 q 596 0 699 0 l 298 0 q 248 50 248 0 l 248 447 m 348 447 l 348 99 l 596 99 q 702 143 658 99 q 745 248 745 187 l 745 745 q 702 851 745 807 q 596 894 658 894 l 348 894 l 348 547 l 447 547 q 497 497 497 547 q 447 447 497 447 l 348 447 z "},"×":{"ha":696,"x_min":99,"x_max":597,"o":"m 348 278 l 184 114 q 150 99 169 99 q 114 114 129 99 q 99 150 99 129 q 114 184 99 169 l 278 348 l 114 511 q 99 547 99 526 q 114 581 99 566 q 150 596 129 596 q 184 581 169 596 l 348 418 l 512 582 q 547 597 527 597 q 582 582 567 597 q 597 547 597 567 q 582 512 597 527 l 418 348 l 582 184 q 597 149 597 169 q 582 114 597 128 q 547 99 568 99 q 512 114 526 99 l 348 278 z "},"Ý":{"ha":894,"x_min":99,"x_max":795,"o":"m 348 1143 q 298 1192 298 1143 q 318 1232 298 1218 l 516 1381 q 547 1391 529 1391 q 596 1341 596 1391 q 577 1302 596 1317 l 378 1153 q 348 1143 365 1143 m 497 497 l 497 50 q 447 0 497 0 q 397 50 397 0 l 397 497 l 108 915 q 99 944 99 928 q 149 994 99 994 q 190 973 176 994 l 447 599 l 704 973 q 745 994 718 994 q 795 944 795 994 q 786 915 795 928 l 497 497 z "},"Þ":{"ha":795,"x_min":99,"x_max":696,"o":"m 149 994 q 199 944 199 994 l 199 795 l 397 795 q 609 708 522 795 q 696 497 696 621 q 612 282 696 365 q 397 199 529 199 l 199 199 l 199 50 q 149 0 199 0 q 99 50 99 0 l 99 944 q 149 994 99 994 m 199 696 l 199 298 l 397 298 q 539 356 481 298 q 596 497 596 413 q 539 638 596 580 q 397 696 481 696 l 199 696 z "},"ð":{"ha":894,"x_min":99,"x_max":795,"o":"m 497 894 l 348 894 q 298 944 298 894 q 348 994 298 994 l 497 994 l 497 1192 q 547 1242 497 1242 q 596 1192 596 1242 l 596 994 l 745 994 q 795 944 795 994 q 745 894 795 894 l 596 894 l 596 50 q 547 0 596 0 l 298 0 q 157 58 215 0 q 99 199 99 115 l 99 497 q 126 597 99 551 q 298 696 182 696 l 497 696 l 497 894 m 298 596 q 228 567 257 596 q 199 497 199 538 l 199 199 q 228 129 199 158 q 298 99 257 99 l 497 99 l 497 596 l 298 596 z "},"ý":{"ha":696,"x_min":99,"x_max":596,"o":"m 212 -199 l 295 50 l 102 630 q 99 646 99 639 q 149 696 99 696 q 196 662 185 696 l 348 208 l 499 662 q 547 696 510 696 q 596 646 596 696 q 593 630 596 639 l 296 -264 q 248 -298 285 -298 l 148 -298 q 99 -248 99 -298 q 140 -200 99 -209 q 212 -199 147 -199 m 248 845 q 199 894 199 845 q 218 934 199 920 l 417 1083 q 447 1093 430 1093 q 497 1043 497 1093 q 477 1003 497 1018 l 279 854 q 248 845 266 845 z "},"þ":{"ha":696,"x_min":99,"x_max":596,"o":"m 99 894 q 149 944 99 944 q 199 894 199 944 l 199 696 l 397 696 q 539 638 481 696 q 596 497 596 580 l 596 199 q 539 58 596 116 q 397 0 481 0 l 199 0 l 199 -248 q 149 -298 199 -298 q 99 -248 99 -298 l 99 894 m 199 596 l 199 99 l 397 99 q 468 128 439 99 q 497 199 497 157 l 497 497 q 468 568 497 539 q 397 596 440 596 l 199 596 z "},"Ā":{"ha":894,"x_min":99,"x_max":795,"o":"m 447 786 l 301 348 l 593 348 l 447 786 m 795 50 q 745 0 795 0 q 698 34 709 0 l 626 248 l 268 248 l 196 34 q 149 0 185 0 q 99 50 99 0 q 102 65 99 59 l 397 954 q 447 994 411 994 q 496 955 483 994 l 793 65 q 795 50 795 59 m 696 1192 l 199 1192 q 149 1242 149 1192 q 199 1292 149 1292 l 696 1292 q 745 1242 745 1292 q 696 1192 745 1192 z "},"ā":{"ha":795,"x_min":99,"x_max":696,"o":"m 348 0 q 207 58 264 0 q 149 199 149 115 q 175 299 149 253 q 348 397 232 397 l 547 397 l 547 497 q 518 568 547 539 q 447 596 489 596 l 248 596 q 199 646 199 596 q 248 696 199 696 l 447 696 q 588 638 531 696 q 646 497 646 580 l 646 50 q 596 0 646 0 l 348 0 m 547 298 l 348 298 q 277 269 306 298 q 248 199 248 240 q 278 129 248 158 q 348 99 307 99 l 547 99 l 547 298 m 646 894 l 149 894 q 99 944 99 894 q 149 994 99 994 l 646 994 q 696 944 696 994 q 646 894 696 894 z "},"Ă":{"ha":894,"x_min":99,"x_max":795,"o":"m 447 786 l 301 348 l 593 348 l 447 786 m 795 50 q 745 0 795 0 q 698 34 709 0 l 626 248 l 268 248 l 196 34 q 149 0 185 0 q 99 50 99 0 q 102 65 99 59 l 397 954 q 447 994 411 994 q 496 955 483 994 l 793 65 q 795 50 795 59 m 646 1341 q 588 1201 646 1259 q 447 1143 530 1143 q 307 1201 364 1143 q 250 1341 250 1259 q 298 1391 250 1391 q 348 1341 348 1391 q 377 1271 348 1301 q 447 1242 407 1242 q 518 1271 489 1242 q 547 1341 547 1300 q 561 1376 547 1362 q 596 1391 576 1391 q 646 1341 646 1391 z "},"ă":{"ha":696,"x_min":99,"x_max":596,"o":"m 298 0 q 157 58 215 0 q 99 199 99 115 q 126 299 99 253 q 298 397 182 397 l 497 397 l 497 497 q 468 568 497 539 q 397 596 440 596 l 199 596 q 149 646 149 596 q 199 696 149 696 l 397 696 q 539 638 481 696 q 596 497 596 580 l 596 50 q 547 0 596 0 l 298 0 m 497 298 l 298 298 q 228 269 257 298 q 199 199 199 240 q 228 129 199 158 q 298 99 257 99 l 497 99 l 497 298 m 546 1093 q 488 952 546 1010 q 348 894 431 894 q 207 952 265 894 q 150 1093 150 1010 q 199 1143 150 1143 q 248 1093 248 1143 q 278 1023 248 1052 q 348 994 307 994 q 418 1023 389 994 q 447 1093 447 1052 q 462 1128 447 1113 q 497 1143 477 1143 q 546 1093 546 1143 z "},"Ą":{"ha":894,"x_min":99,"x_max":795,"o":"m 447 786 l 301 348 l 593 348 l 447 786 m 696 -199 q 646 -149 646 -199 q 647 -137 646 -143 l 693 49 l 626 248 l 268 248 l 196 34 q 149 0 185 0 q 99 50 99 0 q 102 65 99 59 l 397 954 q 447 994 411 994 q 496 955 483 994 l 793 65 q 795 50 795 59 q 793 38 795 44 l 744 -161 q 696 -199 735 -199 z "},"ą":{"ha":696,"x_min":99,"x_max":596,"o":"m 497 298 l 298 298 q 228 269 257 298 q 199 199 199 240 q 228 129 199 158 q 298 99 257 99 l 497 99 l 497 298 m 596 50 q 593 32 596 44 l 545 -161 q 497 -199 536 -199 q 447 -149 447 -199 q 483 0 447 -143 l 298 0 q 157 58 215 0 q 99 199 99 116 q 157 340 99 282 q 298 397 215 397 l 497 397 l 497 497 q 468 568 497 539 q 397 596 440 596 l 199 596 q 149 646 149 596 q 199 696 149 696 l 397 696 q 539 638 481 696 q 596 497 596 580 l 596 50 z "},"Ć":{"ha":696,"x_min":99,"x_max":596,"o":"m 547 994 q 596 944 596 994 q 547 894 596 894 l 348 894 q 242 851 285 894 q 199 745 199 807 l 199 248 q 242 143 199 187 q 348 99 286 99 l 547 99 q 596 50 596 99 q 547 0 596 0 l 348 0 q 172 73 245 0 q 99 248 99 145 l 99 745 q 172 921 99 848 q 348 994 245 994 l 547 994 m 248 1143 q 199 1192 199 1143 q 218 1232 199 1218 l 417 1381 q 447 1391 430 1391 q 497 1341 497 1391 q 477 1302 497 1317 l 279 1153 q 248 1143 266 1143 z "},"ć":{"ha":596,"x_min":99,"x_max":497,"o":"m 199 497 l 199 199 q 228 129 199 158 q 298 99 257 99 l 447 99 q 497 50 497 99 q 447 0 497 0 l 298 0 q 157 58 215 0 q 99 199 99 115 l 99 497 q 157 638 99 580 q 298 696 215 696 l 447 696 q 497 646 497 696 q 447 596 497 596 l 298 596 q 228 567 257 596 q 199 497 199 538 m 199 845 q 149 894 149 845 q 169 934 149 920 l 367 1083 q 397 1093 380 1093 q 447 1043 447 1093 q 428 1003 447 1019 l 229 854 q 199 845 216 845 z "},"Ĉ":{"ha":696,"x_min":99,"x_max":596,"o":"m 547 994 q 596 944 596 994 q 547 894 596 894 l 348 894 q 242 851 285 894 q 199 745 199 807 l 199 248 q 242 143 199 187 q 348 99 286 99 l 547 99 q 596 50 596 99 q 547 0 596 0 l 348 0 q 172 73 245 0 q 99 248 99 145 l 99 745 q 172 921 99 848 q 348 994 245 994 l 547 994 m 348 1271 l 235 1158 q 199 1143 220 1143 q 149 1192 149 1143 q 164 1228 149 1213 l 304 1368 q 348 1391 327 1391 q 391 1368 368 1391 l 531 1228 q 547 1192 547 1213 q 497 1143 547 1143 q 461 1158 476 1143 l 348 1271 z "},"ĉ":{"ha":596,"x_min":99,"x_max":497,"o":"m 199 497 l 199 199 q 228 129 199 158 q 298 99 257 99 l 447 99 q 497 50 497 99 q 447 0 497 0 l 298 0 q 157 58 215 0 q 99 199 99 115 l 99 497 q 157 638 99 580 q 298 696 215 696 l 447 696 q 497 646 497 696 q 447 596 497 596 l 298 596 q 228 567 257 596 q 199 497 199 538 m 298 972 l 185 859 q 149 845 171 845 q 99 894 99 845 q 114 930 99 915 l 254 1070 q 298 1093 278 1093 q 342 1070 318 1093 l 482 930 q 497 894 497 915 q 447 845 497 845 q 411 859 425 845 l 298 972 z "},"Ċ":{"ha":696,"x_min":99,"x_max":596,"o":"m 547 994 q 596 944 596 994 q 547 894 596 894 l 348 894 q 242 851 285 894 q 199 745 199 807 l 199 248 q 242 143 199 187 q 348 99 286 99 l 547 99 q 596 50 596 99 q 547 0 596 0 l 348 0 q 172 73 245 0 q 99 248 99 145 l 99 745 q 172 921 99 848 q 348 994 245 994 l 547 994 m 298 1192 l 298 1242 q 348 1292 298 1292 q 397 1242 397 1292 l 397 1192 q 348 1143 397 1143 q 298 1192 298 1143 z "},"ċ":{"ha":596,"x_min":99,"x_max":497,"o":"m 199 497 l 199 199 q 228 129 199 158 q 298 99 257 99 l 447 99 q 497 50 497 99 q 447 0 497 0 l 298 0 q 157 58 215 0 q 99 199 99 115 l 99 497 q 157 638 99 580 q 298 696 215 696 l 447 696 q 497 646 497 696 q 447 596 497 596 l 298 596 q 228 567 257 596 q 199 497 199 538 m 248 894 l 248 944 q 298 994 248 994 q 348 944 348 994 l 348 894 q 298 845 348 845 q 248 894 248 845 z "},"Č":{"ha":696,"x_min":99,"x_max":596,"o":"m 547 994 q 596 944 596 994 q 547 894 596 894 l 348 894 q 242 851 285 894 q 199 745 199 807 l 199 248 q 242 143 199 187 q 348 99 286 99 l 547 99 q 596 50 596 99 q 547 0 596 0 l 348 0 q 172 73 245 0 q 99 248 99 145 l 99 745 q 172 921 99 848 q 348 994 245 994 l 547 994 m 348 1264 l 461 1377 q 497 1391 475 1391 q 547 1341 547 1391 q 531 1306 547 1321 l 391 1166 q 348 1143 368 1143 q 304 1166 327 1143 l 164 1306 q 149 1341 149 1321 q 199 1391 149 1391 q 235 1377 221 1391 l 348 1264 z "},"č":{"ha":596,"x_min":99,"x_max":497,"o":"m 199 497 l 199 199 q 228 129 199 158 q 298 99 257 99 l 447 99 q 497 50 497 99 q 447 0 497 0 l 298 0 q 157 58 215 0 q 99 199 99 115 l 99 497 q 157 638 99 580 q 298 696 215 696 l 447 696 q 497 646 497 696 q 447 596 497 596 l 298 596 q 228 567 257 596 q 199 497 199 538 m 298 965 l 411 1078 q 447 1093 426 1093 q 497 1043 497 1093 q 482 1008 497 1023 l 342 868 q 298 845 318 845 q 254 868 278 845 l 114 1008 q 99 1043 99 1023 q 149 1093 99 1093 q 185 1078 170 1093 l 298 965 z "},"Ď":{"ha":795,"x_min":99,"x_max":696,"o":"m 99 944 q 149 994 99 994 l 447 994 q 624 922 552 994 q 696 745 696 850 l 696 248 q 623 73 696 145 q 447 0 550 0 l 149 0 q 99 50 99 0 l 99 944 m 199 894 l 199 99 l 447 99 q 553 143 509 99 q 596 248 596 187 l 596 745 q 553 851 596 807 q 447 894 509 894 l 199 894 m 397 1264 l 510 1377 q 547 1391 525 1391 q 596 1341 596 1391 q 581 1306 596 1321 l 441 1166 q 397 1143 418 1143 q 354 1166 377 1143 l 214 1306 q 199 1341 199 1321 q 248 1391 199 1391 q 285 1377 270 1391 l 397 1264 z "},"ď":{"ha":944,"x_min":99,"x_max":845,"o":"m 99 497 q 157 638 99 580 q 298 696 215 696 l 497 696 l 497 944 q 547 994 497 994 q 596 944 596 994 l 596 50 q 547 0 596 0 l 298 0 q 157 58 215 0 q 99 199 99 115 l 99 497 m 298 596 q 228 567 257 596 q 199 497 199 538 l 199 199 q 228 129 199 158 q 298 99 257 99 l 497 99 l 497 596 l 298 596 m 745 745 l 745 944 q 795 994 745 994 q 845 944 845 994 l 845 745 q 795 696 845 696 q 745 745 745 696 z "},"Đ":{"ha":944,"x_min":99,"x_max":845,"o":"m 248 447 l 149 447 q 99 497 99 447 q 149 547 99 547 l 248 547 l 248 944 q 298 994 248 994 l 596 994 q 773 922 701 994 q 845 745 845 850 l 845 248 q 772 73 845 145 q 596 0 699 0 l 298 0 q 248 50 248 0 l 248 447 m 348 447 l 348 99 l 596 99 q 702 143 658 99 q 745 248 745 187 l 745 745 q 702 851 745 807 q 596 894 658 894 l 348 894 l 348 547 l 447 547 q 497 497 497 547 q 447 447 497 447 l 348 447 z "},"đ":{"ha":894,"x_min":99,"x_max":795,"o":"m 497 894 l 348 894 q 298 944 298 894 q 348 994 298 994 l 497 994 l 497 1192 q 547 1242 497 1242 q 596 1192 596 1242 l 596 994 l 745 994 q 795 944 795 994 q 745 894 795 894 l 596 894 l 596 50 q 547 0 596 0 l 298 0 q 157 58 215 0 q 99 199 99 115 l 99 497 q 157 638 99 580 q 298 696 215 696 l 497 696 l 497 894 m 298 596 q 228 567 257 596 q 199 497 199 538 l 199 199 q 228 129 199 158 q 298 99 257 99 l 497 99 l 497 596 l 298 596 z "},"Ē":{"ha":795,"x_min":99,"x_max":696,"o":"m 149 50 l 149 944 q 199 994 149 994 l 596 994 q 646 944 646 994 q 596 894 646 894 l 248 894 l 248 596 l 497 596 q 547 547 547 596 q 497 497 547 497 l 248 497 l 248 99 l 596 99 q 646 50 646 99 q 596 0 646 0 l 199 0 q 149 50 149 0 m 646 1192 l 149 1192 q 99 1242 99 1192 q 149 1292 99 1292 l 646 1292 q 696 1242 696 1292 q 646 1192 696 1192 z "},"ē":{"ha":795,"x_min":99,"x_max":696,"o":"m 397 596 q 292 553 336 596 q 248 447 248 509 l 248 397 l 547 397 l 547 447 q 503 553 547 509 q 397 596 459 596 m 248 298 l 248 199 q 278 129 248 158 q 348 99 307 99 l 596 99 q 646 50 646 99 q 596 0 646 0 l 348 0 q 207 58 264 0 q 149 199 149 115 l 149 447 q 222 623 149 550 q 397 696 294 696 q 574 624 502 696 q 646 447 646 552 l 646 298 l 248 298 m 646 894 l 149 894 q 99 944 99 894 q 149 994 99 994 l 646 994 q 696 944 696 994 q 646 894 696 894 z "},"Ĕ":{"ha":696,"x_min":99,"x_max":596,"o":"m 99 50 l 99 944 q 149 994 99 994 l 547 994 q 596 944 596 994 q 547 894 596 894 l 199 894 l 199 596 l 447 596 q 497 547 497 596 q 447 497 497 497 l 199 497 l 199 99 l 547 99 q 596 50 596 99 q 547 0 596 0 l 149 0 q 99 50 99 0 m 546 1341 q 488 1201 546 1259 q 348 1143 431 1143 q 207 1201 265 1143 q 150 1341 150 1259 q 199 1391 150 1391 q 248 1341 248 1391 q 278 1271 248 1301 q 348 1242 307 1242 q 418 1271 389 1242 q 447 1341 447 1300 q 462 1376 447 1362 q 497 1391 477 1391 q 546 1341 546 1391 z "},"ĕ":{"ha":696,"x_min":99,"x_max":596,"o":"m 348 596 q 242 553 286 596 q 199 447 199 509 l 199 397 l 497 397 l 497 447 q 453 553 497 509 q 348 596 410 596 m 199 298 l 199 199 q 228 129 199 158 q 298 99 257 99 l 547 99 q 596 50 596 99 q 547 0 596 0 l 298 0 q 157 58 215 0 q 99 199 99 115 l 99 447 q 172 623 99 550 q 348 696 245 696 q 524 624 452 696 q 596 447 596 552 l 596 298 l 199 298 m 546 1093 q 488 952 546 1010 q 348 894 431 894 q 207 952 265 894 q 150 1093 150 1010 q 199 1143 150 1143 q 248 1093 248 1143 q 278 1023 248 1052 q 348 994 307 994 q 418 1023 389 994 q 447 1093 447 1052 q 462 1128 447 1113 q 497 1143 477 1143 q 546 1093 546 1143 z "},"Ė":{"ha":696,"x_min":99,"x_max":596,"o":"m 99 50 l 99 944 q 149 994 99 994 l 547 994 q 596 944 596 994 q 547 894 596 894 l 199 894 l 199 596 l 447 596 q 497 547 497 596 q 447 497 497 497 l 199 497 l 199 99 l 547 99 q 596 50 596 99 q 547 0 596 0 l 149 0 q 99 50 99 0 m 298 1192 l 298 1242 q 348 1292 298 1292 q 397 1242 397 1292 l 397 1192 q 348 1143 397 1143 q 298 1192 298 1143 z "},"ė":{"ha":696,"x_min":99,"x_max":596,"o":"m 348 596 q 242 553 286 596 q 199 447 199 509 l 199 397 l 497 397 l 497 447 q 453 553 497 509 q 348 596 410 596 m 199 298 l 199 199 q 228 129 199 158 q 298 99 257 99 l 547 99 q 596 50 596 99 q 547 0 596 0 l 298 0 q 157 58 215 0 q 99 199 99 115 l 99 447 q 172 623 99 550 q 348 696 245 696 q 524 624 452 696 q 596 447 596 552 l 596 298 l 199 298 m 298 894 l 298 944 q 348 994 298 994 q 397 944 397 994 l 397 894 q 348 845 397 845 q 298 894 298 845 z "},"Ę":{"ha":696,"x_min":99,"x_max":596,"o":"m 497 -199 q 447 -149 447 -199 q 483 0 447 -143 l 149 0 q 99 50 99 0 l 99 944 q 149 994 99 994 l 547 994 q 596 944 596 994 q 547 894 596 894 l 199 894 l 199 596 l 447 596 q 497 547 497 596 q 447 497 497 497 l 199 497 l 199 99 l 547 99 q 596 50 596 99 q 593 32 596 44 l 545 -161 q 497 -199 536 -199 z "},"ę":{"ha":696,"x_min":99,"x_max":596,"o":"m 348 596 q 242 553 286 596 q 199 447 199 509 l 199 397 l 497 397 l 497 447 q 453 553 497 509 q 348 596 410 596 m 497 -199 q 447 -149 447 -199 q 483 0 447 -143 l 298 0 q 157 58 215 0 q 99 199 99 116 l 99 447 q 172 623 99 550 q 348 696 245 696 q 524 624 452 696 q 596 447 596 552 l 596 298 l 199 298 l 199 199 q 228 129 199 158 q 298 99 257 99 l 547 99 q 596 50 596 99 q 593 32 596 44 l 545 -161 q 497 -199 536 -199 z "},"Ě":{"ha":696,"x_min":99,"x_max":596,"o":"m 99 50 l 99 944 q 149 994 99 994 l 547 994 q 596 944 596 994 q 547 894 596 894 l 199 894 l 199 596 l 447 596 q 497 547 497 596 q 447 497 497 497 l 199 497 l 199 99 l 547 99 q 596 50 596 99 q 547 0 596 0 l 149 0 q 99 50 99 0 m 348 1264 l 461 1377 q 497 1391 475 1391 q 547 1341 547 1391 q 531 1306 547 1321 l 391 1166 q 348 1143 368 1143 q 304 1166 327 1143 l 164 1306 q 149 1341 149 1321 q 199 1391 149 1391 q 235 1377 221 1391 l 348 1264 z "},"ě":{"ha":696,"x_min":99,"x_max":596,"o":"m 348 596 q 242 553 286 596 q 199 447 199 509 l 199 397 l 497 397 l 497 447 q 453 553 497 509 q 348 596 410 596 m 199 298 l 199 199 q 228 129 199 158 q 298 99 257 99 l 547 99 q 596 50 596 99 q 547 0 596 0 l 298 0 q 157 58 215 0 q 99 199 99 115 l 99 447 q 172 623 99 550 q 348 696 245 696 q 524 624 452 696 q 596 447 596 552 l 596 298 l 199 298 m 348 965 l 461 1078 q 497 1093 476 1093 q 547 1043 547 1093 q 531 1008 547 1023 l 391 868 q 348 845 368 845 q 304 868 327 845 l 164 1008 q 149 1043 149 1023 q 199 1093 149 1093 q 235 1078 220 1093 l 348 965 z "},"Ĝ":{"ha":795,"x_min":99,"x_max":696,"o":"m 348 99 l 596 99 l 596 497 l 497 497 q 447 547 447 497 q 497 596 447 596 l 646 596 q 696 547 696 596 l 696 50 q 646 0 696 0 l 348 0 q 172 73 245 0 q 99 248 99 145 l 99 745 q 172 921 99 848 q 348 994 245 994 l 646 994 q 696 944 696 994 q 646 894 696 894 l 348 894 q 242 851 285 894 q 199 745 199 807 l 199 248 q 242 143 199 186 q 348 99 285 99 m 397 1271 l 285 1158 q 248 1143 269 1143 q 199 1192 199 1143 q 214 1228 199 1213 l 354 1368 q 397 1391 377 1391 q 441 1368 418 1391 l 581 1228 q 596 1192 596 1213 q 547 1143 596 1143 q 510 1158 525 1143 l 397 1271 z "},"ĝ":{"ha":696,"x_min":99,"x_max":596,"o":"m 547 696 q 596 646 596 696 l 596 -99 q 539 -241 596 -183 q 397 -298 481 -298 l 199 -298 q 149 -248 149 -298 q 199 -199 149 -199 l 397 -199 q 468 -170 439 -199 q 497 -99 497 -141 l 497 0 l 298 0 q 157 58 215 0 q 99 199 99 116 l 99 497 q 157 638 99 580 q 298 696 215 696 l 547 696 m 497 596 l 298 596 q 228 567 257 596 q 199 497 199 538 l 199 199 q 228 129 199 158 q 298 99 257 99 l 497 99 l 497 596 m 348 973 l 235 860 q 199 845 220 845 q 149 894 149 845 q 164 930 149 915 l 304 1070 q 348 1093 327 1093 q 391 1070 368 1093 l 531 930 q 547 894 547 915 q 497 845 547 845 q 461 860 476 845 l 348 973 z "},"Ğ":{"ha":795,"x_min":99,"x_max":696,"o":"m 348 99 l 596 99 l 596 497 l 497 497 q 447 547 447 497 q 497 596 447 596 l 646 596 q 696 547 696 596 l 696 50 q 646 0 696 0 l 348 0 q 172 73 245 0 q 99 248 99 145 l 99 745 q 172 921 99 848 q 348 994 245 994 l 646 994 q 696 944 696 994 q 646 894 696 894 l 348 894 q 242 851 285 894 q 199 745 199 807 l 199 248 q 242 143 199 186 q 348 99 285 99 m 596 1341 q 538 1201 596 1259 q 397 1143 480 1143 q 257 1201 315 1143 q 199 1341 199 1259 q 248 1391 199 1391 q 298 1341 298 1391 q 327 1271 298 1301 q 397 1242 357 1242 q 468 1271 439 1242 q 497 1341 497 1300 q 512 1376 497 1362 q 547 1391 527 1391 q 596 1341 596 1391 z "},"ğ":{"ha":696,"x_min":99,"x_max":596,"o":"m 547 696 q 596 646 596 696 l 596 -99 q 539 -241 596 -183 q 397 -298 481 -298 l 199 -298 q 149 -248 149 -298 q 199 -199 149 -199 l 397 -199 q 468 -170 439 -199 q 497 -99 497 -141 l 497 0 l 298 0 q 157 58 215 0 q 99 199 99 116 l 99 497 q 157 638 99 580 q 298 696 215 696 l 547 696 m 497 596 l 298 596 q 228 567 257 596 q 199 497 199 538 l 199 199 q 228 129 199 158 q 298 99 257 99 l 497 99 l 497 596 m 546 1093 q 488 952 546 1010 q 348 894 431 894 q 207 952 265 894 q 150 1093 150 1010 q 199 1143 150 1143 q 248 1093 248 1143 q 278 1023 248 1052 q 348 994 307 994 q 418 1023 389 994 q 447 1093 447 1052 q 462 1128 447 1113 q 497 1143 477 1143 q 546 1093 546 1143 z "},"Ġ":{"ha":795,"x_min":99,"x_max":696,"o":"m 348 99 l 596 99 l 596 497 l 497 497 q 447 547 447 497 q 497 596 447 596 l 646 596 q 696 547 696 596 l 696 50 q 646 0 696 0 l 348 0 q 172 73 245 0 q 99 248 99 145 l 99 745 q 172 921 99 848 q 348 994 245 994 l 646 994 q 696 944 696 994 q 646 894 696 894 l 348 894 q 242 851 285 894 q 199 745 199 807 l 199 248 q 242 143 199 186 q 348 99 285 99 m 348 1192 l 348 1242 q 397 1292 348 1292 q 447 1242 447 1292 l 447 1192 q 397 1143 447 1143 q 348 1192 348 1143 z "},"ġ":{"ha":696,"x_min":99,"x_max":596,"o":"m 547 696 q 596 646 596 696 l 596 -99 q 539 -241 596 -183 q 397 -298 481 -298 l 199 -298 q 149 -248 149 -298 q 199 -199 149 -199 l 397 -199 q 468 -170 439 -199 q 497 -99 497 -141 l 497 0 l 298 0 q 157 58 215 0 q 99 199 99 116 l 99 497 q 157 638 99 580 q 298 696 215 696 l 547 696 m 497 596 l 298 596 q 228 567 257 596 q 199 497 199 538 l 199 199 q 228 129 199 158 q 298 99 257 99 l 497 99 l 497 596 m 298 894 l 298 944 q 348 994 298 994 q 397 944 397 994 l 397 894 q 348 845 397 845 q 298 894 298 845 z "},"Ģ":{"ha":795,"x_min":99,"x_max":696,"o":"m 486 0 l 446 -161 q 397 -199 436 -199 q 348 -149 348 -199 q 384 0 348 -143 l 348 0 q 172 73 245 0 q 99 248 99 145 l 99 745 q 172 921 99 848 q 348 994 245 994 l 646 994 q 696 944 696 994 q 646 894 696 894 l 348 894 q 242 851 285 894 q 199 745 199 807 l 199 248 q 242 143 199 186 q 348 99 285 99 l 596 99 l 596 497 l 497 497 q 447 547 447 497 q 497 596 447 596 l 646 596 q 696 547 696 596 l 696 50 q 646 0 696 0 l 486 0 z "},"ģ":{"ha":696,"x_min":99,"x_max":596,"o":"m 547 696 q 596 646 596 696 l 596 -99 q 539 -241 596 -183 q 397 -298 481 -298 l 199 -298 q 149 -248 149 -298 q 199 -199 149 -199 l 397 -199 q 468 -170 439 -199 q 497 -99 497 -141 l 497 0 l 298 0 q 157 58 215 0 q 99 199 99 116 l 99 497 q 157 638 99 580 q 298 696 215 696 l 547 696 m 497 596 l 298 596 q 228 567 257 596 q 199 497 199 538 l 199 199 q 228 129 199 158 q 298 99 257 99 l 497 99 l 497 596 m 397 1143 q 447 1094 447 1143 q 446 1081 447 1087 l 396 882 q 348 845 387 845 q 298 894 298 845 q 349 1105 298 900 q 397 1143 358 1143 z "},"Ĥ":{"ha":795,"x_min":99,"x_max":696,"o":"m 99 50 l 99 944 q 149 994 99 994 q 199 944 199 994 l 199 596 l 596 596 l 596 944 q 646 994 596 994 q 696 944 696 994 l 696 50 q 646 0 696 0 q 596 50 596 0 l 596 497 l 199 497 l 199 50 q 149 0 199 0 q 99 50 99 0 m 397 1271 l 285 1158 q 248 1143 269 1143 q 199 1192 199 1143 q 214 1228 199 1213 l 354 1368 q 397 1391 377 1391 q 441 1368 418 1391 l 581 1228 q 596 1192 596 1213 q 547 1143 596 1143 q 510 1158 525 1143 l 397 1271 z "},"ĥ":{"ha":696,"x_min":99,"x_max":596,"o":"m 99 944 q 149 994 99 994 q 199 944 199 994 l 199 696 l 397 696 q 538 638 480 696 q 596 501 596 581 l 596 50 q 547 0 596 0 q 497 50 497 0 l 497 497 q 468 568 497 539 q 397 596 440 596 l 199 596 l 199 50 q 149 0 199 0 q 99 50 99 0 l 99 944 m 348 1271 l 235 1158 q 199 1143 220 1143 q 149 1192 149 1143 q 164 1228 149 1213 l 304 1368 q 348 1391 327 1391 q 391 1368 368 1391 l 531 1228 q 547 1192 547 1213 q 497 1143 547 1143 q 461 1158 476 1143 l 348 1271 z "},"Ħ":{"ha":1093,"x_min":99,"x_max":994,"o":"m 845 894 l 845 50 q 795 0 845 0 q 745 50 745 0 l 745 497 l 348 497 l 348 50 q 298 0 348 0 q 248 50 248 0 l 248 894 l 149 894 q 99 944 99 894 q 149 994 99 994 l 248 994 l 248 1192 q 298 1242 248 1242 q 348 1192 348 1242 l 348 994 l 745 994 l 745 1192 q 795 1242 745 1242 q 845 1192 845 1242 l 845 994 l 944 994 q 994 944 994 994 q 944 894 994 894 l 845 894 m 745 894 l 348 894 l 348 596 l 745 596 l 745 894 z "},"ħ":{"ha":845,"x_min":99,"x_max":745,"o":"m 348 894 l 348 696 l 547 696 q 687 638 629 696 q 745 501 745 581 l 745 50 q 696 0 745 0 q 646 50 646 0 l 646 497 q 617 568 646 539 q 547 596 589 596 l 348 596 l 348 50 q 298 0 348 0 q 248 50 248 0 l 248 894 l 149 894 q 99 944 99 894 q 149 994 99 994 l 248 994 l 248 1192 q 298 1242 248 1242 q 348 1192 348 1242 l 348 994 l 447 994 q 497 944 497 994 q 447 894 497 894 l 348 894 z "},"Ĩ":{"ha":696,"x_min":99,"x_max":596,"o":"m 348 0 q 298 50 298 0 l 298 944 q 348 994 298 994 q 397 944 397 994 l 397 50 q 348 0 397 0 m 447 1192 q 331 1242 394 1192 q 248 1292 269 1292 q 199 1267 229 1292 q 149 1242 169 1242 q 114 1257 129 1242 q 99 1292 99 1272 q 120 1332 99 1317 q 179 1374 167 1367 q 248 1391 211 1391 q 364 1341 300 1391 q 447 1292 428 1292 q 498 1317 467 1292 q 547 1341 528 1341 q 596 1292 596 1341 q 576 1251 596 1269 q 537 1223 556 1237 q 447 1192 496 1192 z "},"ĩ":{"ha":696,"x_min":99,"x_max":596,"o":"m 298 646 q 348 696 298 696 q 397 646 397 696 l 397 50 q 348 0 397 0 q 298 50 298 0 l 298 646 m 447 845 q 331 894 394 845 q 248 944 269 944 q 199 919 229 944 q 149 894 169 894 q 114 909 129 894 q 99 944 99 924 q 120 984 99 969 q 179 1026 167 1019 q 248 1043 211 1043 q 364 994 300 1043 q 447 944 428 944 q 498 969 467 944 q 547 994 528 994 q 596 944 596 994 q 576 903 596 921 q 537 875 556 889 q 447 845 496 845 z "},"Ī":{"ha":795,"x_min":99,"x_max":696,"o":"m 397 0 q 348 50 348 0 l 348 944 q 397 994 348 994 q 447 944 447 994 l 447 50 q 397 0 447 0 m 646 1192 l 149 1192 q 99 1242 99 1192 q 149 1292 99 1292 l 646 1292 q 696 1242 696 1292 q 646 1192 696 1192 z "},"ī":{"ha":795,"x_min":99,"x_max":696,"o":"m 348 646 q 397 696 348 696 q 447 646 447 696 l 447 50 q 397 0 447 0 q 348 50 348 0 l 348 646 m 646 894 l 149 894 q 99 944 99 894 q 149 994 99 994 l 646 994 q 696 944 696 994 q 646 894 696 894 z "},"Ĭ":{"ha":596,"x_min":99,"x_max":497,"o":"m 298 0 q 248 50 248 0 l 248 944 q 298 994 248 994 q 348 944 348 994 l 348 50 q 298 0 348 0 m 497 1341 q 439 1201 497 1259 q 298 1143 381 1143 q 157 1201 215 1143 q 99 1341 99 1259 q 149 1391 99 1391 q 199 1341 199 1391 q 228 1271 199 1301 q 298 1242 257 1242 q 368 1271 340 1242 q 397 1341 397 1300 q 412 1376 397 1362 q 447 1391 427 1391 q 497 1341 497 1391 z "},"ĭ":{"ha":596,"x_min":99,"x_max":497,"o":"m 248 646 q 298 696 248 696 q 348 646 348 696 l 348 50 q 298 0 348 0 q 248 50 248 0 l 248 646 m 497 1093 q 439 952 497 1010 q 298 894 381 894 q 157 952 215 894 q 99 1093 99 1010 q 149 1143 99 1143 q 199 1093 199 1143 q 228 1023 199 1052 q 298 994 257 994 q 368 1023 340 994 q 397 1093 397 1052 q 412 1128 397 1113 q 447 1143 427 1143 q 497 1093 497 1143 z "},"Į":{"ha":348,"x_min":99,"x_max":248,"o":"m 248 53 q 245 32 248 44 l 197 -161 q 149 -199 188 -199 q 99 -149 99 -199 q 101 -137 99 -143 l 149 56 l 149 944 q 199 994 149 994 q 248 944 248 994 l 248 53 z "},"į":{"ha":348,"x_min":99,"x_max":248,"o":"m 149 894 l 149 944 q 199 994 149 994 q 248 944 248 994 l 248 894 q 199 845 248 845 q 149 894 149 845 m 248 53 q 245 32 248 44 l 197 -161 q 149 -199 188 -199 q 99 -149 99 -199 q 101 -137 99 -143 l 133 -8 q 149 56 140 11 l 149 252 l 149 646 q 199 696 149 696 q 248 646 248 696 l 248 53 z "},"İ":{"ha":298,"x_min":99,"x_max":199,"o":"m 149 0 q 99 50 99 0 l 99 944 q 149 994 99 994 q 199 944 199 994 l 199 50 q 149 0 199 0 m 99 1192 l 99 1242 q 149 1292 99 1292 q 199 1242 199 1292 l 199 1192 q 149 1143 199 1143 q 99 1192 99 1143 z "},"Ĳ":{"ha":795,"x_min":99,"x_max":696,"o":"m 149 0 q 99 50 99 0 l 99 944 q 149 994 99 994 q 199 944 199 994 l 199 50 q 149 0 199 0 m 696 944 l 696 248 q 623 72 696 145 q 447 0 550 0 l 348 0 q 298 50 298 0 q 348 99 298 99 l 447 99 q 553 143 510 99 q 596 248 596 187 l 596 944 q 646 994 596 994 q 696 944 696 994 z "},"ĳ":{"ha":547,"x_min":99,"x_max":447,"o":"m 99 646 q 149 696 99 696 q 199 646 199 696 l 199 50 q 149 0 199 0 q 99 50 99 0 l 99 646 m 99 894 l 99 944 q 149 994 99 994 q 199 944 199 994 l 199 894 q 149 845 199 845 q 99 894 99 845 m 397 994 q 447 944 447 994 l 447 894 q 397 845 447 845 q 348 894 348 845 l 348 944 q 397 994 348 994 m 447 -99 q 390 -241 447 -183 q 248 -298 332 -298 l 199 -298 q 149 -248 149 -298 q 199 -199 149 -199 q 248 -199 212 -199 q 319 -169 291 -199 q 348 -99 348 -140 l 348 646 q 397 696 348 696 q 447 646 447 696 l 447 -99 z "},"Ĵ":{"ha":745,"x_min":99,"x_max":646,"o":"m 447 1271 l 334 1158 q 298 1143 319 1143 q 248 1192 248 1143 q 263 1228 248 1213 l 403 1368 q 447 1391 427 1391 q 491 1368 467 1391 l 631 1228 q 646 1192 646 1213 q 596 1143 646 1143 q 560 1158 575 1143 l 447 1271 m 497 944 l 497 248 q 424 72 497 145 q 248 0 352 0 l 149 0 q 99 50 99 0 q 149 99 99 99 l 248 99 q 354 143 311 99 q 397 248 397 187 l 397 944 q 447 994 397 994 q 497 944 497 994 z "},"ĵ":{"ha":596,"x_min":50,"x_max":497,"o":"m 298 972 l 185 859 q 149 845 171 845 q 99 894 99 845 q 114 930 99 915 l 254 1070 q 298 1093 278 1093 q 342 1070 318 1093 l 482 930 q 497 894 497 915 q 447 845 497 845 q 411 859 425 845 l 298 972 m 348 -99 q 290 -241 348 -183 q 149 -298 233 -298 l 99 -298 q 50 -248 50 -298 q 99 -199 50 -199 q 149 -199 113 -199 q 220 -169 191 -199 q 248 -99 248 -140 l 248 646 q 298 696 248 696 q 348 646 348 696 l 348 -99 z "},"Ķ":{"ha":795,"x_min":99,"x_max":696,"o":"m 327 519 l 199 378 l 199 50 q 149 0 199 0 q 99 50 99 0 l 99 944 q 149 994 99 994 q 199 944 199 994 l 199 526 l 608 977 q 646 994 623 994 q 696 944 696 994 q 682 910 696 925 l 398 598 l 689 75 q 696 50 696 62 q 680 15 696 31 q 646 0 665 0 q 601 26 616 0 l 327 519 m 397 99 q 447 50 447 99 q 446 38 447 44 l 396 -161 q 348 -199 387 -199 q 298 -149 298 -199 q 349 62 298 -143 q 397 99 358 99 z "},"ķ":{"ha":696,"x_min":50,"x_max":596,"o":"m 99 -199 q 50 -149 50 -199 q 51 -137 50 -143 l 99 56 l 99 944 q 149 994 99 994 q 199 944 199 994 l 199 448 l 516 686 q 547 696 529 696 q 596 646 596 696 q 577 606 596 620 l 384 461 l 591 73 q 596 50 596 63 q 582 15 596 29 q 547 0 567 0 q 503 26 517 0 l 303 400 l 199 323 l 199 56 q 196 32 199 44 l 148 -161 q 99 -199 139 -199 z "},"ĸ":{"ha":696,"x_min":99,"x_max":596,"o":"m 199 369 l 511 681 q 547 696 525 696 q 596 646 596 696 q 581 611 596 626 l 363 393 l 586 78 q 596 49 596 65 q 547 0 596 0 q 505 21 520 0 l 291 321 l 199 229 l 199 50 q 149 0 199 0 q 99 50 99 0 l 99 646 q 149 696 99 696 q 199 646 199 696 l 199 369 z "},"Ĺ":{"ha":696,"x_min":99,"x_max":596,"o":"m 99 944 q 149 994 99 994 q 199 944 199 994 l 199 99 l 547 99 q 596 50 596 99 q 547 0 596 0 l 149 0 q 99 50 99 0 l 99 944 m 149 1143 q 99 1192 99 1143 q 119 1232 99 1218 l 318 1381 q 348 1391 330 1391 q 397 1341 397 1391 q 378 1302 397 1317 l 179 1153 q 149 1143 166 1143 z "},"ĺ":{"ha":397,"x_min":99,"x_max":397,"o":"m 149 1143 q 99 1192 99 1143 q 119 1232 99 1218 l 318 1381 q 348 1391 330 1391 q 397 1341 397 1391 q 378 1302 397 1317 l 179 1153 q 149 1143 166 1143 m 99 944 q 149 994 99 994 q 199 944 199 994 l 199 149 q 248 99 199 111 q 298 50 298 88 q 248 0 298 0 q 140 40 181 0 q 99 149 99 79 l 99 944 z "},"Ļ":{"ha":696,"x_min":99,"x_max":596,"o":"m 397 0 l 347 -161 q 298 -199 335 -199 q 248 -149 248 -199 q 294 0 248 -145 l 149 0 q 99 50 99 0 l 99 944 q 149 994 99 994 q 199 944 199 994 l 199 99 l 547 99 q 596 50 596 99 q 547 0 596 0 l 397 0 z "},"ļ":{"ha":646,"x_min":99,"x_max":547,"o":"m 199 50 q 248 1 248 50 q 245 -18 248 -7 l 197 -161 q 149 -199 184 -199 q 99 -149 99 -199 q 103 -130 99 -142 l 151 13 q 199 50 163 50 m 348 944 q 397 994 348 994 q 447 944 447 994 l 447 149 q 497 99 447 111 q 547 50 547 88 q 497 0 547 0 q 389 40 430 0 q 348 149 348 79 l 348 944 z "},"Ľ":{"ha":696,"x_min":99,"x_max":596,"o":"m 99 944 q 149 994 99 994 q 199 944 199 994 l 199 99 l 547 99 q 596 50 596 99 q 547 0 596 0 l 149 0 q 99 50 99 0 l 99 944 m 348 745 l 348 944 q 397 994 348 994 q 447 944 447 994 l 447 745 q 397 696 447 696 q 348 745 348 696 z "},"ľ":{"ha":547,"x_min":99,"x_max":447,"o":"m 99 944 q 149 994 99 994 q 199 944 199 994 l 199 149 q 248 99 199 111 q 298 50 298 88 q 248 0 298 0 q 140 40 181 0 q 99 149 99 79 l 99 944 m 348 745 l 348 944 q 397 994 348 994 q 447 944 447 994 l 447 745 q 397 696 447 696 q 348 745 348 696 z "},"Ŀ":{"ha":696,"x_min":99,"x_max":596,"o":"m 99 944 q 149 994 99 994 q 199 944 199 994 l 199 99 l 547 99 q 596 50 596 99 q 547 0 596 0 l 149 0 q 99 50 99 0 l 99 944 m 348 497 l 348 547 q 397 596 348 596 q 447 547 447 596 l 447 497 q 397 447 447 447 q 348 497 348 447 z "},"ŀ":{"ha":547,"x_min":99,"x_max":447,"o":"m 348 497 l 348 547 q 397 596 348 596 q 447 547 447 596 l 447 497 q 397 447 447 447 q 348 497 348 447 m 99 944 q 149 994 99 994 q 199 944 199 994 l 199 149 q 248 99 199 111 q 298 50 298 88 q 248 0 298 0 q 140 40 181 0 q 99 149 99 79 l 99 944 z "},"Ł":{"ha":845,"x_min":99,"x_max":745,"o":"m 248 503 l 177 455 q 151 447 164 447 q 99 495 99 447 q 121 538 99 524 l 248 623 l 248 944 q 298 994 248 994 q 348 944 348 994 l 348 690 l 419 737 q 447 745 432 745 q 497 696 497 745 q 475 654 497 668 l 348 569 l 348 99 l 696 99 q 745 50 745 99 q 696 0 745 0 l 298 0 q 248 50 248 0 l 248 503 z "},"ł":{"ha":596,"x_min":99,"x_max":497,"o":"m 248 503 l 177 455 q 151 447 165 447 q 99 495 99 447 q 121 538 99 524 l 248 623 l 248 944 q 298 994 248 994 q 348 944 348 994 l 348 690 l 419 737 q 447 745 432 745 q 497 696 497 745 q 475 654 497 668 l 348 569 l 348 149 q 396 99 348 99 q 432 85 416 99 q 447 50 447 71 q 397 0 447 0 q 286 41 326 0 q 248 149 248 81 l 248 503 z "},"Ń":{"ha":795,"x_min":99,"x_max":696,"o":"m 596 242 l 596 944 q 646 994 596 994 q 696 944 696 994 l 696 50 q 646 0 696 0 q 602 25 616 0 l 199 753 l 199 50 q 149 0 199 0 q 99 50 99 0 l 99 944 q 149 994 99 994 q 195 964 178 994 l 596 242 m 298 1143 q 248 1192 248 1143 q 268 1232 248 1218 l 467 1381 q 497 1391 480 1391 q 547 1341 547 1391 q 527 1302 547 1316 l 328 1153 q 298 1143 315 1143 z "},"ń":{"ha":696,"x_min":99,"x_max":596,"o":"m 99 50 l 99 646 q 149 696 99 696 l 397 696 q 539 638 481 696 q 596 497 596 580 l 596 50 q 547 0 596 0 q 497 50 497 0 l 497 497 q 468 568 497 539 q 397 596 440 596 l 199 596 l 199 50 q 149 0 199 0 q 99 50 99 0 m 248 845 q 199 894 199 845 q 218 934 199 920 l 417 1083 q 447 1093 430 1093 q 497 1043 497 1093 q 477 1003 497 1018 l 279 854 q 248 845 266 845 z "},"Ņ":{"ha":795,"x_min":99,"x_max":696,"o":"m 596 242 l 596 944 q 646 994 596 994 q 696 944 696 994 l 696 50 q 646 0 696 0 q 602 25 616 0 l 199 753 l 199 50 q 149 0 199 0 q 99 50 99 0 l 99 944 q 149 994 99 994 q 195 964 178 994 l 596 242 m 397 99 q 447 50 447 99 q 446 38 447 44 l 396 -161 q 348 -199 387 -199 q 298 -149 298 -199 q 349 62 298 -143 q 397 99 358 99 z "},"ņ":{"ha":745,"x_min":99,"x_max":646,"o":"m 149 646 q 199 696 149 696 l 451 696 q 588 638 531 696 q 646 501 646 580 l 646 50 q 596 0 646 0 q 547 50 547 0 l 547 497 q 518 568 547 539 q 447 596 489 596 l 248 596 l 248 57 q 245 32 248 44 l 197 -161 q 149 -199 188 -199 q 99 -149 99 -199 q 101 -137 99 -143 l 133 -8 q 149 56 140 11 l 149 99 l 149 646 z "},"Ň":{"ha":795,"x_min":99,"x_max":696,"o":"m 596 242 l 596 944 q 646 994 596 994 q 696 944 696 994 l 696 50 q 646 0 696 0 q 602 25 616 0 l 199 753 l 199 50 q 149 0 199 0 q 99 50 99 0 l 99 944 q 149 994 99 994 q 195 964 178 994 l 596 242 m 397 1264 l 510 1377 q 547 1391 525 1391 q 596 1341 596 1391 q 581 1306 596 1321 l 441 1166 q 397 1143 418 1143 q 354 1166 377 1143 l 214 1306 q 199 1341 199 1321 q 248 1391 199 1391 q 285 1377 270 1391 l 397 1264 z "},"ň":{"ha":696,"x_min":99,"x_max":596,"o":"m 99 50 l 99 646 q 149 696 99 696 l 397 696 q 539 638 481 696 q 596 497 596 580 l 596 50 q 547 0 596 0 q 497 50 497 0 l 497 497 q 468 568 497 539 q 397 596 440 596 l 199 596 l 199 50 q 149 0 199 0 q 99 50 99 0 m 348 966 l 461 1079 q 497 1093 475 1093 q 547 1043 547 1093 q 531 1008 547 1023 l 391 868 q 348 845 368 845 q 304 868 327 845 l 164 1008 q 149 1043 149 1023 q 199 1093 149 1093 q 235 1079 221 1093 l 348 966 z "},"ŉ":{"ha":795,"x_min":99,"x_max":696,"o":"m 199 50 l 199 646 q 248 696 199 696 l 497 696 q 638 638 580 696 q 696 497 696 580 l 696 50 q 646 0 696 0 q 596 50 596 0 l 596 497 q 568 568 596 539 q 497 596 539 596 l 298 596 l 298 50 q 248 0 298 0 q 199 50 199 0 m 199 1143 q 248 1094 248 1143 q 247 1081 248 1087 l 197 882 q 149 845 188 845 q 99 894 99 845 q 151 1105 99 900 q 199 1143 160 1143 z "},"Ŋ":{"ha":795,"x_min":99,"x_max":696,"o":"m 696 -248 q 661 -295 696 -286 q 596 -298 649 -298 q 455 -240 513 -298 q 397 -99 397 -182 q 412 -64 397 -79 q 447 -50 427 -50 q 497 -99 497 -50 q 526 -169 497 -140 q 596 -199 556 -199 l 596 35 l 199 753 l 199 50 q 149 0 199 0 q 99 50 99 0 l 99 944 q 149 994 99 994 q 195 964 178 994 l 596 242 l 596 944 q 646 994 596 994 q 696 944 696 994 l 696 -248 z "},"ŋ":{"ha":696,"x_min":99,"x_max":596,"o":"m 497 -199 l 497 497 q 468 568 497 539 q 397 596 440 596 l 199 596 l 199 50 q 149 0 199 0 q 99 50 99 0 l 99 646 q 149 696 99 696 l 397 696 q 539 638 481 696 q 596 497 596 580 l 596 -248 q 562 -295 596 -286 q 497 -298 550 -298 q 356 -240 414 -298 q 298 -99 298 -182 q 313 -64 298 -79 q 348 -50 327 -50 q 397 -99 397 -50 q 427 -169 397 -140 q 497 -199 456 -199 z "},"Ō":{"ha":795,"x_min":99,"x_max":696,"o":"m 596 298 l 596 696 q 539 837 596 779 q 397 894 481 894 q 256 837 314 894 q 199 696 199 779 l 199 298 q 256 157 199 215 q 397 99 314 99 q 539 157 481 99 q 596 298 596 215 m 696 298 q 608 87 696 175 q 397 0 521 0 q 187 87 274 0 q 99 298 99 175 l 99 696 q 187 906 99 819 q 397 994 274 994 q 609 907 522 994 q 696 696 696 820 l 696 298 m 646 1192 l 149 1192 q 99 1242 99 1192 q 149 1292 99 1292 l 646 1292 q 696 1242 696 1292 q 646 1192 696 1192 z "},"ō":{"ha":795,"x_min":99,"x_max":696,"o":"m 149 248 l 149 447 q 222 623 149 550 q 397 696 294 696 q 574 624 502 696 q 646 447 646 552 l 646 248 q 573 73 646 145 q 397 0 501 0 q 222 73 294 0 q 149 248 149 145 m 547 248 l 547 447 q 503 553 547 509 q 397 596 459 596 q 292 553 336 596 q 248 447 248 509 l 248 248 q 292 143 248 186 q 397 99 335 99 q 503 143 459 99 q 547 248 547 187 m 646 894 l 149 894 q 99 944 99 894 q 149 994 99 994 l 646 994 q 696 944 696 994 q 646 894 696 894 z "},"Ŏ":{"ha":795,"x_min":99,"x_max":696,"o":"m 596 298 l 596 696 q 539 837 596 779 q 397 894 481 894 q 256 837 314 894 q 199 696 199 779 l 199 298 q 256 157 199 215 q 397 99 314 99 q 539 157 481 99 q 596 298 596 215 m 696 298 q 608 87 696 175 q 397 0 521 0 q 187 87 274 0 q 99 298 99 175 l 99 696 q 187 906 99 819 q 397 994 274 994 q 609 907 522 994 q 696 696 696 820 l 696 298 m 595 1341 q 537 1201 595 1259 q 397 1143 480 1143 q 257 1201 315 1143 q 199 1341 199 1259 q 248 1391 199 1391 q 298 1341 298 1391 q 327 1271 298 1301 q 397 1242 357 1242 q 468 1271 439 1242 q 497 1341 497 1300 q 512 1376 497 1362 q 547 1391 526 1391 q 595 1341 595 1391 z "},"ŏ":{"ha":696,"x_min":99,"x_max":596,"o":"m 99 248 l 99 447 q 172 623 99 550 q 348 696 245 696 q 524 624 452 696 q 596 447 596 552 l 596 248 q 524 73 596 145 q 348 0 451 0 q 172 73 245 0 q 99 248 99 145 m 497 248 l 497 447 q 453 553 497 509 q 348 596 410 596 q 242 553 286 596 q 199 447 199 509 l 199 248 q 242 143 199 186 q 348 99 285 99 q 453 143 410 99 q 497 248 497 187 m 546 1093 q 488 952 546 1010 q 348 894 431 894 q 207 952 265 894 q 150 1093 150 1010 q 199 1143 150 1143 q 248 1093 248 1143 q 278 1023 248 1052 q 348 994 307 994 q 418 1023 389 994 q 447 1093 447 1052 q 462 1128 447 1113 q 497 1143 477 1143 q 546 1093 546 1143 z "},"Ő":{"ha":795,"x_min":99,"x_max":696,"o":"m 596 298 l 596 696 q 539 837 596 779 q 397 894 481 894 q 256 837 314 894 q 199 696 199 779 l 199 298 q 256 157 199 215 q 397 99 314 99 q 539 157 481 99 q 596 298 596 215 m 696 298 q 608 87 696 175 q 397 0 521 0 q 187 87 274 0 q 99 298 99 175 l 99 696 q 187 906 99 819 q 397 994 274 994 q 609 907 522 994 q 696 696 696 820 l 696 298 m 298 1391 q 348 1341 348 1391 q 339 1314 348 1328 l 241 1165 q 199 1143 227 1143 q 149 1192 149 1143 q 158 1220 149 1206 l 256 1369 q 298 1391 270 1391 m 596 1391 q 646 1341 646 1391 q 637 1314 646 1328 l 539 1165 q 497 1143 525 1143 q 447 1192 447 1143 q 456 1220 447 1206 l 554 1369 q 596 1391 568 1391 z "},"ő":{"ha":894,"x_min":99,"x_max":795,"o":"m 199 248 l 199 447 q 271 623 199 550 q 447 696 344 696 q 624 624 552 696 q 696 447 696 552 l 696 248 q 623 73 696 145 q 447 0 550 0 q 271 73 344 0 q 199 248 199 145 m 596 248 l 596 447 q 553 553 596 509 q 447 596 509 596 q 342 553 385 596 q 298 447 298 509 l 298 248 q 341 143 298 186 q 447 99 385 99 q 553 143 509 99 q 596 248 596 187 m 149 845 q 99 894 99 845 q 119 934 99 920 l 318 1083 q 348 1093 330 1093 q 397 1043 397 1093 q 378 1003 397 1018 l 179 854 q 149 845 166 845 m 547 845 q 497 894 497 845 q 516 934 497 920 l 715 1083 q 745 1093 728 1093 q 795 1043 795 1093 q 775 1003 795 1018 l 577 854 q 547 845 564 845 z "},"Ŕ":{"ha":795,"x_min":99,"x_max":696,"o":"m 516 419 l 690 72 q 696 50 696 60 q 681 15 696 30 q 646 0 665 0 q 601 28 614 0 l 416 398 q 397 397 409 397 l 199 397 l 199 50 q 149 0 199 0 q 99 50 99 0 l 99 944 q 149 994 99 994 l 397 994 q 609 907 522 994 q 696 696 696 820 q 516 419 696 490 m 199 894 l 199 497 l 397 497 q 539 554 481 497 q 596 696 596 612 q 539 837 596 779 q 397 894 481 894 l 199 894 m 298 1143 q 248 1192 248 1143 q 268 1232 248 1218 l 467 1381 q 497 1391 480 1391 q 547 1341 547 1391 q 527 1302 547 1316 l 328 1153 q 298 1143 315 1143 z "},"ŕ":{"ha":596,"x_min":99,"x_max":497,"o":"m 149 845 q 99 894 99 845 q 119 934 99 920 l 318 1083 q 348 1093 330 1093 q 397 1043 397 1093 q 378 1003 397 1019 l 179 854 q 149 845 166 845 m 99 646 q 149 696 99 696 l 447 696 q 497 646 497 696 l 497 547 q 447 497 497 497 q 397 547 397 497 l 397 596 l 199 596 l 199 50 q 149 0 199 0 q 99 50 99 0 l 99 646 z "},"Ŗ":{"ha":795,"x_min":99,"x_max":696,"o":"m 516 419 l 690 72 q 696 50 696 60 q 681 15 696 30 q 646 0 665 0 q 601 28 614 0 l 416 398 q 397 397 409 397 l 199 397 l 199 50 q 149 0 199 0 q 99 50 99 0 l 99 944 q 149 994 99 994 l 397 994 q 609 907 522 994 q 696 696 696 820 q 516 419 696 490 m 199 894 l 199 497 l 397 497 q 539 554 481 497 q 596 696 596 612 q 539 837 596 779 q 397 894 481 894 l 199 894 m 397 99 q 447 50 447 99 q 446 38 447 44 l 396 -161 q 348 -199 387 -199 q 298 -149 298 -199 q 349 62 298 -143 q 397 99 358 99 z "},"ŗ":{"ha":596,"x_min":99,"x_max":497,"o":"m 447 50 q 497 1 497 50 q 493 -18 497 -7 l 446 -161 q 397 -199 433 -199 q 348 -149 348 -199 q 352 -130 348 -142 l 399 13 q 447 50 411 50 m 99 646 q 149 696 99 696 l 447 696 q 497 646 497 696 l 497 547 q 447 497 497 497 q 397 547 397 497 l 397 596 l 199 596 l 199 50 q 149 0 199 0 q 99 50 99 0 l 99 646 z "},"Ř":{"ha":795,"x_min":99,"x_max":696,"o":"m 516 419 l 690 72 q 696 50 696 60 q 681 15 696 30 q 646 0 665 0 q 601 28 614 0 l 416 398 q 397 397 409 397 l 199 397 l 199 50 q 149 0 199 0 q 99 50 99 0 l 99 944 q 149 994 99 994 l 397 994 q 609 907 522 994 q 696 696 696 820 q 516 419 696 490 m 199 894 l 199 497 l 397 497 q 539 554 481 497 q 596 696 596 612 q 539 837 596 779 q 397 894 481 894 l 199 894 m 397 1264 l 510 1377 q 547 1391 525 1391 q 596 1341 596 1391 q 581 1306 596 1321 l 441 1166 q 397 1143 418 1143 q 354 1166 377 1143 l 214 1306 q 199 1341 199 1321 q 248 1391 199 1391 q 285 1377 270 1391 l 397 1264 z "},"ř":{"ha":596,"x_min":99,"x_max":497,"o":"m 298 966 l 411 1079 q 447 1093 425 1093 q 497 1043 497 1093 q 482 1008 497 1023 l 342 868 q 298 845 318 845 q 254 868 278 845 l 114 1008 q 99 1043 99 1023 q 149 1093 99 1093 q 185 1079 171 1093 l 298 966 m 99 646 q 149 696 99 696 l 447 696 q 497 646 497 696 l 497 547 q 447 497 497 497 q 397 547 397 497 l 397 596 l 199 596 l 199 50 q 149 0 199 0 q 99 50 99 0 l 99 646 z "},"Ś":{"ha":795,"x_min":99,"x_max":696,"o":"m 298 1143 q 248 1192 248 1143 q 268 1232 248 1218 l 467 1381 q 497 1391 480 1391 q 547 1341 547 1391 q 527 1302 547 1316 l 328 1153 q 298 1143 315 1143 m 696 248 q 623 73 696 145 q 447 0 550 0 q 121 108 278 0 q 99 149 99 123 q 114 184 99 169 q 149 199 129 199 q 178 190 163 199 q 315 120 221 163 q 447 99 376 99 q 553 143 510 99 q 596 248 596 186 q 513 382 596 340 l 234 525 q 99 745 99 594 q 172 921 99 848 q 348 994 245 994 q 617 939 513 994 q 646 894 646 924 q 631 859 646 874 q 596 845 617 845 q 575 850 588 845 q 348 894 465 894 q 242 851 285 894 q 199 745 199 808 q 280 613 199 654 l 559 470 q 696 248 696 400 z "},"ś":{"ha":696,"x_min":99,"x_max":596,"o":"m 248 845 q 199 894 199 845 q 218 934 199 920 l 417 1083 q 447 1093 430 1093 q 497 1043 497 1093 q 477 1003 497 1019 l 279 854 q 248 845 266 845 m 497 174 q 455 242 497 221 l 199 364 q 99 522 99 413 q 170 654 99 607 q 322 695 231 695 q 520 640 433 695 q 547 596 547 623 q 532 561 547 576 q 497 547 517 547 q 474 553 483 547 q 322 595 402 595 q 199 522 199 595 q 239 455 199 475 l 497 331 q 596 174 596 283 q 525 38 596 84 q 367 0 464 0 q 127 55 224 0 q 99 99 99 71 q 114 134 99 120 q 149 149 129 149 q 168 145 159 149 q 239 117 192 135 q 370 99 306 99 q 497 174 497 99 z "},"Ŝ":{"ha":795,"x_min":99,"x_max":696,"o":"m 397 1271 l 285 1158 q 248 1143 269 1143 q 199 1192 199 1143 q 214 1228 199 1213 l 354 1368 q 397 1391 377 1391 q 441 1368 418 1391 l 581 1228 q 596 1192 596 1213 q 547 1143 596 1143 q 510 1158 525 1143 l 397 1271 m 696 248 q 623 73 696 145 q 447 0 550 0 q 121 108 278 0 q 99 149 99 123 q 114 184 99 169 q 149 199 129 199 q 178 190 163 199 q 315 120 221 163 q 447 99 376 99 q 553 143 510 99 q 596 248 596 186 q 513 382 596 340 l 234 525 q 99 745 99 594 q 172 921 99 848 q 348 994 245 994 q 617 939 513 994 q 646 894 646 924 q 631 859 646 874 q 596 845 617 845 q 575 850 588 845 q 348 894 465 894 q 242 851 285 894 q 199 745 199 808 q 280 613 199 654 l 559 470 q 696 248 696 400 z "},"ŝ":{"ha":696,"x_min":99,"x_max":596,"o":"m 348 972 l 235 859 q 199 845 221 845 q 149 894 149 845 q 164 930 149 915 l 304 1070 q 348 1093 327 1093 q 391 1070 368 1093 l 531 930 q 547 894 547 915 q 497 845 547 845 q 461 859 475 845 l 348 972 m 497 174 q 455 242 497 221 l 199 364 q 99 522 99 413 q 170 654 99 607 q 322 695 231 695 q 520 640 433 695 q 547 596 547 623 q 532 561 547 576 q 497 547 517 547 q 474 553 483 547 q 322 595 402 595 q 199 522 199 595 q 239 455 199 475 l 497 331 q 596 174 596 283 q 525 38 596 84 q 367 0 464 0 q 127 55 224 0 q 99 99 99 71 q 114 134 99 120 q 149 149 129 149 q 168 145 159 149 q 239 117 192 135 q 370 99 306 99 q 497 174 497 99 z "},"Ş":{"ha":795,"x_min":99,"x_max":696,"o":"m 487 3 l 446 -161 q 397 -199 436 -199 q 348 -149 348 -199 q 385 4 348 -143 q 121 108 255 17 q 99 149 99 123 q 114 184 99 169 q 149 199 129 199 q 178 190 163 199 q 315 120 221 163 q 447 99 375 99 q 553 143 510 99 q 596 248 596 186 q 513 382 596 340 l 234 525 q 99 745 99 594 q 172 921 99 848 q 348 994 245 994 q 617 939 513 994 q 646 894 646 924 q 631 859 646 874 q 596 845 617 845 q 575 850 588 845 q 348 894 465 894 q 242 851 285 894 q 199 745 199 808 q 280 613 199 654 l 559 470 q 696 248 696 400 q 637 88 696 157 q 487 3 578 19 z "},"ş":{"ha":696,"x_min":99,"x_max":596,"o":"m 497 174 q 455 242 497 221 l 199 364 q 99 522 99 413 q 170 654 99 607 q 322 695 231 695 q 520 640 433 695 q 547 596 547 623 q 532 561 547 576 q 497 547 517 547 q 474 553 483 547 q 322 595 402 595 q 199 522 199 595 q 239 455 199 475 l 497 331 q 596 174 596 283 q 526 39 596 86 q 388 2 469 2 l 346 -161 q 298 -199 336 -199 q 248 -149 248 -199 q 254 -120 248 -144 l 288 5 q 127 55 193 17 q 99 99 99 71 q 114 134 99 120 q 149 149 129 149 q 168 145 159 149 q 239 117 192 135 q 368 99 306 99 q 497 174 497 99 z "},"Š":{"ha":795,"x_min":99,"x_max":696,"o":"m 397 1264 l 510 1377 q 547 1391 525 1391 q 596 1341 596 1391 q 581 1306 596 1321 l 441 1166 q 397 1143 418 1143 q 354 1166 377 1143 l 214 1306 q 199 1341 199 1321 q 248 1391 199 1391 q 285 1377 270 1391 l 397 1264 m 696 248 q 623 73 696 145 q 447 0 550 0 q 121 108 278 0 q 99 149 99 123 q 114 184 99 169 q 149 199 129 199 q 178 190 163 199 q 315 120 221 163 q 447 99 376 99 q 553 143 510 99 q 596 248 596 186 q 513 382 596 340 l 234 525 q 99 745 99 594 q 172 921 99 848 q 348 994 245 994 q 617 939 513 994 q 646 894 646 924 q 631 859 646 874 q 596 845 617 845 q 575 850 588 845 q 348 894 465 894 q 242 851 285 894 q 199 745 199 808 q 280 613 199 654 l 559 470 q 696 248 696 400 z "},"š":{"ha":696,"x_min":99,"x_max":596,"o":"m 348 966 l 461 1079 q 497 1093 475 1093 q 547 1043 547 1093 q 531 1008 547 1023 l 391 868 q 348 845 368 845 q 304 868 327 845 l 164 1008 q 149 1043 149 1023 q 199 1093 149 1093 q 235 1079 221 1093 l 348 966 m 497 174 q 455 242 497 221 l 199 364 q 99 522 99 413 q 170 654 99 607 q 322 695 231 695 q 520 640 433 695 q 547 596 547 623 q 532 561 547 576 q 497 547 517 547 q 474 553 483 547 q 322 595 402 595 q 199 522 199 595 q 239 455 199 475 l 497 331 q 596 174 596 283 q 525 38 596 84 q 367 0 464 0 q 127 55 224 0 q 99 99 99 71 q 114 134 99 120 q 149 149 129 149 q 168 145 159 149 q 239 117 192 135 q 370 99 306 99 q 497 174 497 99 z "},"Ţ":{"ha":795,"x_min":99,"x_max":696,"o":"m 348 -199 q 298 -149 298 -199 q 300 -137 298 -143 l 348 56 l 348 894 l 149 894 q 99 944 99 894 q 149 994 99 994 l 646 994 q 696 944 696 994 q 646 894 696 894 l 447 894 l 447 57 q 444 32 447 44 l 396 -161 q 348 -199 387 -199 z "},"ţ":{"ha":596,"x_min":99,"x_max":497,"o":"m 199 -199 q 149 -149 149 -199 q 151 -137 149 -143 l 199 56 l 199 596 l 149 596 q 99 646 99 596 q 149 696 99 696 l 199 696 l 199 944 q 248 994 199 994 q 298 944 298 994 l 298 696 l 447 696 q 497 646 497 696 q 447 596 497 596 l 298 596 l 298 57 q 295 32 298 44 l 247 -161 q 199 -199 238 -199 z "},"Ť":{"ha":795,"x_min":99,"x_max":696,"o":"m 99 944 q 149 994 99 994 l 646 994 q 696 944 696 994 q 646 894 696 894 l 447 894 l 447 50 q 397 0 447 0 q 348 50 348 0 l 348 894 l 149 894 q 99 944 99 894 m 397 1264 l 510 1377 q 547 1391 525 1391 q 596 1341 596 1391 q 581 1306 596 1321 l 441 1166 q 397 1143 418 1143 q 354 1166 377 1143 l 214 1306 q 199 1341 199 1321 q 248 1391 199 1391 q 285 1377 270 1391 l 397 1264 z "},"ť":{"ha":745,"x_min":99,"x_max":646,"o":"m 199 596 l 149 596 q 99 646 99 596 q 149 696 99 696 l 199 696 l 199 944 q 248 994 199 994 q 298 944 298 994 l 298 696 l 447 696 q 497 646 497 696 q 447 596 497 596 l 298 596 l 298 50 q 248 0 298 0 q 199 50 199 0 l 199 596 m 547 845 l 547 1043 q 596 1093 547 1093 q 646 1043 646 1093 l 646 845 q 596 795 646 795 q 547 845 547 795 z "},"Ŧ":{"ha":795,"x_min":99,"x_max":696,"o":"m 447 597 l 566 686 q 596 696 579 696 q 646 646 646 696 q 626 606 646 620 l 447 472 l 447 50 q 397 0 447 0 q 348 50 348 0 l 348 397 l 229 308 q 199 298 216 298 q 149 348 149 298 q 169 388 149 373 l 348 522 l 348 894 l 149 894 q 99 944 99 894 q 149 994 99 994 l 646 994 q 696 944 696 994 q 646 894 696 894 l 447 894 l 447 597 z "},"ŧ":{"ha":596,"x_min":99,"x_max":497,"o":"m 199 944 q 248 994 199 994 q 298 944 298 994 l 298 696 l 447 696 q 497 646 497 696 q 447 596 497 596 l 298 596 l 298 379 q 348 397 336 397 q 397 348 397 397 q 370 303 397 317 l 298 267 l 298 50 q 248 0 298 0 q 199 50 199 0 l 199 218 q 149 199 161 199 q 99 248 99 199 q 127 293 99 279 l 199 329 l 199 596 l 149 596 q 99 646 99 596 q 149 696 99 696 l 199 696 l 199 944 z "},"Ũ":{"ha":795,"x_min":99,"x_max":696,"o":"m 696 944 l 696 298 q 608 87 696 175 q 397 0 521 0 q 187 87 274 0 q 99 298 99 175 l 99 944 q 149 994 99 994 q 199 944 199 994 l 199 298 q 256 157 199 215 q 397 99 314 99 q 539 157 481 99 q 596 298 596 215 l 596 944 q 646 994 596 994 q 696 944 696 994 m 497 1192 q 381 1242 443 1192 q 298 1292 318 1292 q 249 1267 279 1292 q 199 1242 219 1242 q 164 1257 179 1242 q 149 1292 149 1272 q 169 1332 149 1317 q 229 1374 217 1367 q 298 1391 260 1391 q 414 1341 350 1391 q 497 1292 477 1292 q 547 1317 517 1292 q 596 1341 577 1341 q 646 1292 646 1341 q 626 1251 646 1269 q 586 1223 606 1237 q 497 1192 546 1192 z "},"ũ":{"ha":696,"x_min":99,"x_max":596,"o":"m 596 646 l 596 50 q 547 0 596 0 l 298 0 q 157 58 215 0 q 99 199 99 115 l 99 646 q 149 696 99 696 q 199 646 199 696 l 199 199 q 228 129 199 158 q 298 99 257 99 l 497 99 l 497 646 q 547 696 497 696 q 596 646 596 696 m 447 845 q 331 894 394 845 q 248 944 269 944 q 199 919 229 944 q 149 894 169 894 q 114 909 129 894 q 99 944 99 924 q 120 984 99 969 q 179 1026 167 1019 q 248 1043 211 1043 q 364 994 300 1043 q 447 944 428 944 q 498 969 467 944 q 547 994 528 994 q 596 944 596 994 q 576 903 596 921 q 537 875 556 889 q 447 845 496 845 z "},"Ū":{"ha":795,"x_min":99,"x_max":696,"o":"m 696 944 l 696 298 q 608 87 696 175 q 397 0 521 0 q 187 87 274 0 q 99 298 99 175 l 99 944 q 149 994 99 994 q 199 944 199 994 l 199 298 q 256 157 199 215 q 397 99 314 99 q 539 157 481 99 q 596 298 596 215 l 596 944 q 646 994 596 994 q 696 944 696 994 m 646 1192 l 149 1192 q 99 1242 99 1192 q 149 1292 99 1292 l 646 1292 q 696 1242 696 1292 q 646 1192 696 1192 z "},"ū":{"ha":795,"x_min":99,"x_max":696,"o":"m 646 646 l 646 50 q 596 0 646 0 l 348 0 q 207 58 264 0 q 149 199 149 115 l 149 646 q 199 696 149 696 q 248 646 248 696 l 248 199 q 278 129 248 158 q 348 99 307 99 l 547 99 l 547 646 q 596 696 547 696 q 646 646 646 696 m 646 894 l 149 894 q 99 944 99 894 q 149 994 99 994 l 646 994 q 696 944 696 994 q 646 894 696 894 z "},"Ŭ":{"ha":795,"x_min":99,"x_max":696,"o":"m 696 944 l 696 298 q 608 87 696 175 q 397 0 521 0 q 187 87 274 0 q 99 298 99 175 l 99 944 q 149 994 99 994 q 199 944 199 994 l 199 298 q 256 157 199 215 q 397 99 314 99 q 539 157 481 99 q 596 298 596 215 l 596 944 q 646 994 596 994 q 696 944 696 994 m 595 1341 q 538 1201 595 1259 q 397 1143 480 1143 q 257 1201 315 1143 q 199 1341 199 1259 q 248 1391 199 1391 q 298 1341 298 1391 q 327 1271 298 1301 q 397 1242 357 1242 q 468 1271 439 1242 q 497 1341 497 1300 q 512 1376 497 1362 q 547 1391 526 1391 q 595 1341 595 1391 z "},"ŭ":{"ha":696,"x_min":99,"x_max":596,"o":"m 596 646 l 596 50 q 547 0 596 0 l 298 0 q 157 58 215 0 q 99 199 99 115 l 99 646 q 149 696 99 696 q 199 646 199 696 l 199 199 q 228 129 199 158 q 298 99 257 99 l 497 99 l 497 646 q 547 696 497 696 q 596 646 596 696 m 546 1093 q 488 952 546 1010 q 348 894 431 894 q 207 952 265 894 q 150 1093 150 1010 q 199 1143 150 1143 q 248 1093 248 1143 q 278 1023 248 1052 q 348 994 307 994 q 418 1023 389 994 q 447 1093 447 1052 q 462 1128 447 1113 q 497 1143 477 1143 q 546 1093 546 1143 z "},"Ů":{"ha":795,"x_min":99,"x_max":696,"o":"m 696 944 l 696 298 q 608 87 696 175 q 397 0 521 0 q 187 87 274 0 q 99 298 99 175 l 99 944 q 149 994 99 994 q 199 944 199 994 l 199 298 q 256 157 199 215 q 397 99 314 99 q 539 157 481 99 q 596 298 596 215 l 596 944 q 646 994 596 994 q 696 944 696 994 m 397 1391 q 521 1340 470 1391 q 571 1217 571 1290 q 521 1094 571 1145 q 397 1043 470 1043 q 274 1094 325 1043 q 224 1217 224 1145 q 274 1340 224 1290 q 397 1391 325 1391 m 397 1292 q 345 1270 367 1292 q 323 1217 323 1248 q 345 1165 323 1186 q 397 1143 367 1143 q 450 1165 428 1143 q 472 1217 472 1186 q 450 1270 472 1248 q 397 1292 428 1292 z "},"ů":{"ha":696,"x_min":99,"x_max":596,"o":"m 596 646 l 596 50 q 547 0 596 0 l 298 0 q 157 58 215 0 q 99 199 99 115 l 99 646 q 149 696 99 696 q 199 646 199 696 l 199 199 q 228 129 199 158 q 298 99 257 99 l 497 99 l 497 646 q 547 696 497 696 q 596 646 596 696 m 348 1192 q 471 1142 420 1192 q 522 1019 522 1091 q 471 895 522 946 q 348 845 420 845 q 225 895 276 845 q 174 1019 174 946 q 225 1142 174 1091 q 348 1192 276 1192 m 348 1093 q 295 1071 317 1093 q 273 1019 273 1049 q 295 966 273 988 q 348 944 317 944 q 400 966 379 944 q 422 1019 422 988 q 400 1071 422 1049 q 348 1093 379 1093 z "},"Ű":{"ha":795,"x_min":99,"x_max":696,"o":"m 696 944 l 696 298 q 608 87 696 175 q 397 0 521 0 q 187 87 274 0 q 99 298 99 175 l 99 944 q 149 994 99 994 q 199 944 199 994 l 199 298 q 256 157 199 215 q 397 99 314 99 q 539 157 481 99 q 596 298 596 215 l 596 944 q 646 994 596 994 q 696 944 696 994 m 323 1391 q 373 1341 373 1391 q 364 1314 373 1328 l 266 1165 q 224 1143 251 1143 q 174 1192 174 1143 q 183 1220 174 1206 l 281 1369 q 323 1391 295 1391 m 621 1391 q 671 1341 671 1391 q 662 1314 671 1328 l 564 1165 q 522 1143 550 1143 q 472 1192 472 1143 q 481 1220 472 1206 l 579 1369 q 621 1391 593 1391 z "},"ű":{"ha":894,"x_min":99,"x_max":795,"o":"m 696 646 l 696 50 q 646 0 696 0 l 397 0 q 256 58 314 0 q 199 199 199 115 l 199 646 q 248 696 199 696 q 298 646 298 696 l 298 199 q 327 129 298 158 q 397 99 357 99 l 596 99 l 596 646 q 646 696 596 696 q 696 646 696 696 m 149 845 q 99 894 99 845 q 119 934 99 920 l 318 1083 q 348 1093 330 1093 q 397 1043 397 1093 q 378 1003 397 1018 l 179 854 q 149 845 166 845 m 547 845 q 497 894 497 845 q 516 934 497 920 l 715 1083 q 745 1093 728 1093 q 795 1043 795 1093 q 775 1003 795 1018 l 577 854 q 547 845 564 845 z "},"Ų":{"ha":795,"x_min":99,"x_max":696,"o":"m 437 2 l 396 -161 q 348 -199 387 -199 q 298 -149 298 -199 q 336 6 298 -143 q 166 110 232 29 q 99 298 99 192 l 99 944 q 149 994 99 994 q 199 944 199 994 l 199 298 q 256 157 199 215 q 397 99 314 99 q 539 157 481 99 q 596 298 596 215 l 596 944 q 646 994 596 994 q 696 944 696 994 l 696 298 q 622 102 696 185 q 437 2 549 18 z "},"ų":{"ha":696,"x_min":99,"x_max":596,"o":"m 237 10 q 137 81 175 29 q 99 199 99 133 l 99 646 q 149 696 99 696 q 199 646 199 696 l 199 199 q 228 129 199 158 q 298 99 257 99 l 497 99 l 497 646 q 547 696 497 696 q 596 646 596 696 l 596 50 q 547 0 596 0 l 337 0 l 297 -161 q 248 -199 287 -199 q 199 -149 199 -199 q 237 10 199 -143 z "},"Ŵ":{"ha":1093,"x_min":99,"x_max":994,"o":"m 735 236 l 895 955 q 944 994 904 994 q 994 944 994 994 q 992 933 994 939 l 794 41 q 745 0 785 0 q 696 43 710 0 l 547 489 l 398 43 q 348 0 384 0 q 299 43 309 0 l 101 933 q 99 944 99 939 q 149 994 99 994 q 198 955 189 994 l 358 235 l 498 654 q 547 696 511 696 q 596 654 583 696 l 735 236 m 547 1271 l 434 1158 q 397 1143 419 1143 q 348 1192 348 1143 q 363 1228 348 1213 l 503 1368 q 547 1391 526 1391 q 590 1368 567 1391 l 730 1228 q 745 1192 745 1213 q 696 1143 745 1143 q 659 1158 674 1143 l 547 1271 z "},"ŵ":{"ha":894,"x_min":99,"x_max":795,"o":"m 596 0 q 548 36 562 0 l 447 306 l 346 38 q 298 0 332 0 q 248 47 259 0 l 101 634 q 99 648 99 640 q 149 696 99 696 q 197 658 188 696 l 307 218 l 400 464 q 447 497 412 497 q 494 464 482 497 l 586 217 l 697 658 q 745 696 707 696 q 780 682 765 696 q 795 648 795 668 q 793 634 795 640 l 646 44 q 596 0 635 0 m 447 972 l 334 859 q 298 845 320 845 q 248 894 248 845 q 263 930 248 915 l 403 1070 q 447 1093 427 1093 q 491 1070 467 1093 l 631 930 q 646 894 646 915 q 596 845 646 845 q 560 859 574 845 l 447 972 z "},"Ŷ":{"ha":894,"x_min":99,"x_max":795,"o":"m 497 497 l 497 50 q 447 0 497 0 q 397 50 397 0 l 397 497 l 108 915 q 99 944 99 928 q 149 994 99 994 q 190 973 176 994 l 447 599 l 704 973 q 745 994 718 994 q 795 944 795 994 q 786 915 795 928 l 497 497 m 447 1271 l 334 1158 q 298 1143 319 1143 q 248 1192 248 1143 q 263 1228 248 1213 l 403 1368 q 447 1391 427 1391 q 491 1368 467 1391 l 631 1228 q 646 1192 646 1213 q 596 1143 646 1143 q 560 1158 575 1143 l 447 1271 z "},"ŷ":{"ha":696,"x_min":99,"x_max":596,"o":"m 212 -199 l 295 50 l 102 630 q 99 646 99 639 q 149 696 99 696 q 196 662 185 696 l 348 208 l 499 662 q 547 696 510 696 q 596 646 596 696 q 593 630 596 639 l 296 -264 q 248 -298 285 -298 l 148 -298 q 99 -248 99 -298 q 140 -200 99 -209 q 212 -199 147 -199 m 348 972 l 235 859 q 199 845 221 845 q 149 894 149 845 q 164 930 149 915 l 304 1070 q 348 1093 327 1093 q 391 1070 368 1093 l 531 930 q 547 894 547 915 q 497 845 547 845 q 461 859 475 845 l 348 972 z "},"Ź":{"ha":795,"x_min":99,"x_max":696,"o":"m 234 99 l 646 99 q 696 50 696 99 q 646 0 696 0 l 149 0 q 99 50 99 0 q 109 80 99 62 l 562 894 l 149 894 q 99 944 99 894 q 149 994 99 994 l 646 994 q 696 945 696 994 q 686 914 696 931 l 234 99 m 298 1143 q 248 1192 248 1143 q 268 1232 248 1218 l 467 1381 q 497 1391 480 1391 q 547 1341 547 1391 q 527 1302 547 1316 l 328 1153 q 298 1143 315 1143 z "},"ź":{"ha":696,"x_min":99,"x_max":596,"o":"m 453 596 l 149 596 q 99 646 99 596 q 149 696 99 696 l 547 696 q 596 645 596 696 q 586 616 596 631 l 242 99 l 547 99 q 596 50 596 99 q 547 0 596 0 l 149 0 q 99 49 99 0 q 109 80 99 65 l 453 596 m 248 845 q 199 894 199 845 q 218 934 199 920 l 417 1083 q 447 1093 430 1093 q 497 1043 497 1093 q 477 1003 497 1018 l 279 854 q 248 845 266 845 z "},"Ż":{"ha":795,"x_min":99,"x_max":696,"o":"m 234 99 l 646 99 q 696 50 696 99 q 646 0 696 0 l 149 0 q 99 50 99 0 q 109 80 99 62 l 562 894 l 149 894 q 99 944 99 894 q 149 994 99 994 l 646 994 q 696 945 696 994 q 686 914 696 931 l 234 99 m 348 1192 l 348 1242 q 397 1292 348 1292 q 447 1242 447 1292 l 447 1192 q 397 1143 447 1143 q 348 1192 348 1143 z "},"ż":{"ha":696,"x_min":99,"x_max":596,"o":"m 453 596 l 149 596 q 99 646 99 596 q 149 696 99 696 l 547 696 q 596 645 596 696 q 586 616 596 631 l 242 99 l 547 99 q 596 50 596 99 q 547 0 596 0 l 149 0 q 99 49 99 0 q 109 80 99 65 l 453 596 m 298 894 l 298 944 q 348 994 298 994 q 397 944 397 994 l 397 894 q 348 845 397 845 q 298 894 298 845 z "},"Ž":{"ha":795,"x_min":99,"x_max":696,"o":"m 234 99 l 646 99 q 696 50 696 99 q 646 0 696 0 l 149 0 q 99 50 99 0 q 109 80 99 62 l 562 894 l 149 894 q 99 944 99 894 q 149 994 99 994 l 646 994 q 696 945 696 994 q 686 914 696 931 l 234 99 m 397 1264 l 510 1377 q 547 1391 525 1391 q 596 1341 596 1391 q 581 1306 596 1321 l 441 1166 q 397 1143 418 1143 q 354 1166 377 1143 l 214 1306 q 199 1341 199 1321 q 248 1391 199 1391 q 285 1377 270 1391 l 397 1264 z "},"ž":{"ha":696,"x_min":99,"x_max":596,"o":"m 453 596 l 149 596 q 99 646 99 596 q 149 696 99 696 l 547 696 q 596 645 596 696 q 586 616 596 631 l 242 99 l 547 99 q 596 50 596 99 q 547 0 596 0 l 149 0 q 99 49 99 0 q 109 80 99 65 l 453 596 m 348 966 l 461 1079 q 497 1093 475 1093 q 547 1043 547 1093 q 531 1008 547 1023 l 391 868 q 348 845 368 845 q 304 868 327 845 l 164 1008 q 149 1043 149 1023 q 199 1093 149 1093 q 235 1079 221 1093 l 348 966 z "},"ſ":{"ha":547,"x_min":99,"x_max":447,"o":"m 149 0 q 99 50 99 0 l 99 795 q 157 936 99 879 q 298 994 215 994 l 397 994 q 447 944 447 994 q 432 908 447 923 q 381 893 417 893 q 349 894 371 893 q 315 896 327 896 q 229 866 259 896 q 199 795 199 837 l 199 50 q 149 0 199 0 z "},"Ǻ":{"ha":894,"x_min":99,"x_max":795,"o":"m 447 786 l 301 348 l 593 348 l 447 786 m 795 50 q 745 0 795 0 q 698 34 709 0 l 626 248 l 268 248 l 196 34 q 149 0 185 0 q 99 50 99 0 q 102 65 99 59 l 397 954 q 447 994 411 994 q 496 955 483 994 l 793 65 q 795 50 795 59 m 621 1391 q 744 1340 693 1391 q 795 1217 795 1290 q 744 1094 795 1145 q 621 1043 693 1043 q 498 1094 549 1043 q 447 1217 447 1145 q 498 1340 447 1290 q 621 1391 549 1391 m 621 1292 q 568 1270 590 1292 q 547 1217 547 1248 q 568 1165 547 1186 q 621 1143 590 1143 q 674 1165 652 1143 q 696 1217 696 1186 q 674 1270 696 1248 q 621 1292 652 1292 m 149 1143 q 99 1192 99 1143 q 119 1232 99 1218 l 318 1381 q 348 1391 330 1391 q 397 1341 397 1391 q 378 1302 397 1316 l 179 1153 q 149 1143 166 1143 z "},"ǻ":{"ha":696,"x_min":99,"x_max":596,"o":"m 298 0 q 157 58 215 0 q 99 199 99 115 q 126 299 99 253 q 298 397 182 397 l 497 397 l 497 497 q 468 568 497 539 q 397 596 440 596 l 199 596 q 149 646 149 596 q 199 696 149 696 l 397 696 q 539 638 481 696 q 596 497 596 580 l 596 50 q 547 0 596 0 l 298 0 m 497 298 l 298 298 q 228 269 257 298 q 199 199 199 240 q 228 129 199 158 q 298 99 257 99 l 497 99 l 497 298 m 422 1168 q 545 1117 495 1168 q 596 994 596 1066 q 545 871 596 921 q 422 820 495 820 q 299 871 350 820 q 248 994 248 921 q 299 1117 248 1066 q 422 1168 350 1168 m 422 1068 q 370 1046 391 1068 q 348 994 348 1025 q 370 941 348 963 q 422 919 391 919 q 475 941 453 919 q 497 994 497 963 q 475 1046 497 1025 q 422 1068 453 1068 m 149 1143 q 99 1192 99 1143 q 119 1232 99 1218 l 318 1381 q 348 1391 330 1391 q 397 1341 397 1391 q 378 1302 397 1316 l 179 1153 q 149 1143 166 1143 z "},"Ǽ":{"ha":1093,"x_min":99,"x_max":994,"o":"m 596 348 l 596 894 l 483 894 l 301 348 l 596 348 m 596 248 l 268 248 l 196 34 q 149 0 185 0 q 99 50 99 0 q 102 65 99 59 l 397 954 q 447 994 411 994 l 944 994 q 994 944 994 994 q 944 894 994 894 l 696 894 l 696 596 l 894 596 q 944 547 944 596 q 894 497 944 497 l 696 497 l 696 99 l 944 99 q 994 50 994 99 q 944 0 994 0 l 646 0 q 596 50 596 0 l 596 248 m 497 1143 q 447 1192 447 1143 q 467 1232 447 1218 l 665 1381 q 696 1391 678 1391 q 745 1341 745 1391 q 726 1302 745 1316 l 527 1153 q 497 1143 514 1143 z "},"ǽ":{"ha":894,"x_min":99,"x_max":795,"o":"m 447 629 q 596 696 506 696 q 737 638 680 696 q 795 497 795 580 l 795 298 l 497 298 l 497 199 q 526 129 497 158 q 596 99 556 99 l 745 99 q 795 50 795 99 q 745 0 795 0 l 596 0 q 494 28 540 0 q 447 0 482 0 l 298 0 q 157 58 215 0 q 99 199 99 115 q 157 340 99 282 q 298 397 215 397 l 397 397 l 397 497 q 368 568 397 539 q 271 597 340 597 q 245 596 262 597 q 221 596 228 596 q 149 646 149 596 q 199 696 149 696 l 298 696 q 447 629 387 696 m 397 298 l 298 298 q 228 269 257 298 q 199 199 199 240 q 228 129 199 158 q 298 99 257 99 l 397 99 l 397 298 m 696 497 q 667 568 696 539 q 596 596 638 596 q 526 567 555 596 q 497 497 497 538 l 497 397 l 696 397 l 696 497 m 348 845 q 298 894 298 845 q 318 934 298 920 l 516 1083 q 547 1093 529 1093 q 596 1043 596 1093 q 577 1003 596 1018 l 378 854 q 348 845 365 845 z "},"Ǿ":{"ha":994,"x_min":99,"x_max":894,"o":"m 747 857 l 808 927 q 845 944 822 944 q 894 894 894 944 q 882 862 894 875 l 788 754 q 795 696 795 720 l 795 298 q 708 87 795 175 q 497 0 620 0 q 247 136 338 0 l 187 67 q 149 50 172 50 q 99 99 99 50 q 112 132 99 118 l 205 239 q 199 298 199 270 l 199 696 q 286 906 199 819 q 497 994 373 994 q 747 857 657 994 m 696 649 l 316 215 q 497 99 371 99 q 638 157 580 99 q 696 298 696 215 l 696 649 m 677 778 q 497 894 626 894 q 356 837 413 894 q 298 696 298 779 l 298 345 l 677 778 m 397 1143 q 348 1192 348 1143 q 367 1232 348 1218 l 566 1381 q 596 1391 579 1391 q 646 1341 646 1391 q 626 1302 646 1316 l 428 1153 q 397 1143 415 1143 z "},"ǿ":{"ha":894,"x_min":99,"x_max":795,"o":"m 686 516 q 696 447 696 486 l 696 248 q 623 73 696 145 q 447 0 550 0 q 257 87 333 0 l 184 14 q 149 0 170 0 q 99 50 99 0 q 114 85 99 71 l 209 180 q 199 248 199 210 l 199 447 q 271 623 199 550 q 447 696 344 696 q 637 608 562 696 l 710 681 q 745 696 724 696 q 795 646 795 696 q 781 611 795 625 l 686 516 m 596 426 l 328 158 q 447 99 373 99 q 553 143 509 99 q 596 248 596 187 l 596 426 m 566 537 q 447 596 523 596 q 342 553 385 596 q 298 447 298 509 l 298 269 l 566 537 m 348 845 q 298 894 298 845 q 318 934 298 920 l 516 1083 q 547 1093 529 1093 q 596 1043 596 1093 q 577 1003 596 1018 l 378 854 q 348 845 365 845 z "},"ˉ":{"ha":795,"x_min":99,"x_max":696,"o":"m 646 1192 l 149 1192 q 99 1242 99 1192 q 149 1292 99 1292 l 646 1292 q 696 1242 696 1292 q 646 1192 696 1192 z "},";":{"ha":348,"x_min":99,"x_max":248,"o":"m 149 447 q 199 497 149 497 q 248 447 248 497 l 248 397 q 199 348 248 348 q 149 397 149 348 l 149 447 m 199 99 q 248 50 248 99 q 247 38 248 44 l 197 -161 q 149 -199 188 -199 q 99 -149 99 -199 q 151 62 99 -143 q 199 99 160 99 z "},"΄":{"ha":497,"x_min":99,"x_max":397,"o":"m 149 1143 q 99 1192 99 1143 q 119 1232 99 1218 l 318 1381 q 348 1391 330 1391 q 397 1341 397 1391 q 378 1302 397 1316 l 179 1153 q 149 1143 166 1143 z "},"΅":{"ha":596,"x_min":99,"x_max":497,"o":"m 99 894 l 99 944 q 149 994 99 994 q 199 944 199 994 l 199 894 q 149 845 199 845 q 99 894 99 845 m 397 894 l 397 944 q 447 994 397 994 q 497 944 497 994 l 497 894 q 447 845 497 845 q 397 894 397 845 m 248 1143 q 199 1192 199 1143 q 218 1232 199 1218 l 417 1381 q 447 1391 430 1391 q 497 1341 497 1391 q 477 1302 497 1316 l 279 1153 q 248 1143 266 1143 z "},"Ά":{"ha":894,"x_min":99,"x_max":795,"o":"m 447 786 l 301 348 l 593 348 l 447 786 m 795 50 q 745 0 795 0 q 698 34 709 0 l 626 248 l 268 248 l 196 34 q 149 0 185 0 q 99 50 99 0 q 102 65 99 59 l 397 954 q 447 994 411 994 q 496 955 483 994 l 793 65 q 795 50 795 59 m 149 894 l 149 1043 q 199 1093 149 1093 q 248 1043 248 1093 l 248 894 q 199 845 248 845 q 149 894 149 845 z "},"·":{"ha":348,"x_min":99,"x_max":248,"o":"m 149 497 l 199 497 q 248 447 248 497 q 199 397 248 397 l 149 397 q 99 447 99 397 q 149 497 99 497 z "},"Έ":{"ha":894,"x_min":99,"x_max":795,"o":"m 298 50 l 298 944 q 348 994 298 994 l 745 994 q 795 944 795 994 q 745 894 795 894 l 397 894 l 397 596 l 646 596 q 696 547 696 596 q 646 497 696 497 l 397 497 l 397 99 l 745 99 q 795 50 795 99 q 745 0 795 0 l 348 0 q 298 50 298 0 m 99 894 l 99 1043 q 149 1093 99 1093 q 199 1043 199 1093 l 199 894 q 149 845 199 845 q 99 894 99 845 z "},"Ή":{"ha":994,"x_min":99,"x_max":894,"o":"m 298 50 l 298 944 q 348 994 298 994 q 397 944 397 994 l 397 596 l 795 596 l 795 944 q 845 994 795 994 q 894 944 894 994 l 894 50 q 845 0 894 0 q 795 50 795 0 l 795 497 l 397 497 l 397 50 q 348 0 397 0 q 298 50 298 0 m 99 894 l 99 1043 q 149 1093 99 1093 q 199 1043 199 1093 l 199 894 q 149 845 199 845 q 99 894 99 845 z "},"Ί":{"ha":497,"x_min":99,"x_max":397,"o":"m 348 0 q 298 50 298 0 l 298 944 q 348 994 298 994 q 397 944 397 994 l 397 50 q 348 0 397 0 m 99 894 l 99 1043 q 149 1093 99 1093 q 199 1043 199 1093 l 199 894 q 149 845 199 845 q 99 894 99 845 z "},"Ό":{"ha":944,"x_min":99,"x_max":845,"o":"m 745 298 l 745 696 q 688 837 745 779 q 547 894 630 894 q 405 837 463 894 q 348 696 348 779 l 348 298 q 405 157 348 215 q 547 99 463 99 q 688 157 630 99 q 745 298 745 215 m 845 298 q 757 87 845 175 q 547 0 670 0 q 336 87 423 0 q 248 298 248 175 l 248 696 q 336 906 248 819 q 547 994 423 994 q 758 907 671 994 q 845 696 845 820 l 845 298 m 99 894 l 99 1043 q 149 1093 99 1093 q 199 1043 199 1093 l 199 894 q 149 845 199 845 q 99 894 99 845 z "},"Ύ":{"ha":1093,"x_min":99,"x_max":994,"o":"m 696 497 l 696 50 q 646 0 696 0 q 596 50 596 0 l 596 497 l 307 915 q 298 944 298 928 q 348 994 298 994 q 389 973 375 994 l 646 599 l 903 973 q 944 994 917 994 q 994 944 994 994 q 985 915 994 928 l 696 497 m 99 894 l 99 1043 q 149 1093 99 1093 q 199 1043 199 1093 l 199 894 q 149 845 199 845 q 99 894 99 845 z "},"Ώ":{"ha":994,"x_min":99,"x_max":894,"o":"m 547 894 q 371 822 443 894 q 298 646 298 749 l 298 547 q 413 336 298 416 q 440 311 433 323 q 447 269 447 299 l 447 50 q 397 0 447 0 l 248 0 q 199 50 199 0 q 248 99 199 99 l 348 99 l 348 261 q 199 547 199 364 l 199 646 q 300 892 199 790 q 547 994 402 994 q 793 892 691 994 q 894 646 894 790 l 894 547 q 745 261 894 364 l 745 99 l 845 99 q 894 50 894 99 q 845 0 894 0 l 696 0 q 646 50 646 0 l 646 269 q 653 310 646 297 q 680 336 659 323 q 766 429 737 376 q 794 534 790 474 q 795 646 795 541 q 723 822 795 751 q 547 894 651 894 m 99 894 l 99 1043 q 149 1093 99 1093 q 199 1043 199 1093 l 199 894 q 149 845 199 845 q 99 894 99 845 z "},"ΐ":{"ha":795,"x_min":99,"x_max":696,"o":"m 497 0 q 321 73 394 0 q 248 248 248 145 l 248 646 q 298 696 248 696 q 348 646 348 696 l 348 248 q 391 143 348 186 q 497 99 434 99 q 590 133 548 99 q 646 166 632 166 q 696 117 696 166 q 683 84 696 99 q 497 0 611 0 m 99 894 l 99 944 q 149 994 99 994 q 199 944 199 994 l 199 894 q 149 845 199 845 q 99 894 99 845 m 397 894 l 397 944 q 447 994 397 994 q 497 944 497 994 l 497 894 q 447 845 497 845 q 397 894 397 845 m 248 1143 q 199 1192 199 1143 q 218 1232 199 1218 l 417 1381 q 447 1391 430 1391 q 497 1341 497 1391 q 477 1302 497 1317 l 279 1153 q 248 1143 266 1143 z "},"Α":{"ha":894,"x_min":99,"x_max":795,"o":"m 447 786 l 301 348 l 593 348 l 447 786 m 795 50 q 745 0 795 0 q 698 34 709 0 l 626 248 l 268 248 l 196 34 q 149 0 185 0 q 99 50 99 0 q 102 65 99 59 l 397 954 q 447 994 411 994 q 496 955 483 994 l 793 65 q 795 50 795 59 z "},"Β":{"ha":795,"x_min":99,"x_max":696,"o":"m 554 552 q 696 298 696 467 q 608 87 696 175 q 397 0 521 0 l 149 0 q 99 50 99 0 l 99 944 q 149 994 99 994 l 397 994 q 574 922 502 994 q 646 745 646 850 q 554 552 646 626 m 199 894 l 199 596 l 397 596 q 503 640 459 596 q 547 745 547 684 q 503 851 547 807 q 397 894 459 894 l 199 894 m 199 497 l 199 99 l 397 99 q 539 157 481 99 q 596 298 596 215 q 539 439 596 382 q 397 497 481 497 l 199 497 z "},"Γ":{"ha":745,"x_min":99,"x_max":646,"o":"m 199 894 l 199 50 q 149 0 199 0 q 99 50 99 0 l 99 944 q 149 994 99 994 l 596 994 q 646 944 646 994 q 596 894 646 894 l 199 894 z "},"Ε":{"ha":745,"x_min":99,"x_max":646,"o":"m 99 50 l 99 944 q 149 994 99 994 l 596 994 q 646 944 646 994 q 596 894 646 894 l 199 894 l 199 596 l 497 596 q 547 547 547 596 q 497 497 547 497 l 199 497 l 199 99 l 596 99 q 646 50 646 99 q 596 0 646 0 l 149 0 q 99 50 99 0 z "},"Ζ":{"ha":795,"x_min":99,"x_max":696,"o":"m 234 99 l 646 99 q 696 50 696 99 q 646 0 696 0 l 149 0 q 99 50 99 0 q 109 80 99 62 l 562 894 l 149 894 q 99 944 99 894 q 149 994 99 994 l 646 994 q 696 945 696 994 q 686 914 696 931 l 234 99 z "},"Η":{"ha":795,"x_min":99,"x_max":696,"o":"m 99 50 l 99 944 q 149 994 99 994 q 199 944 199 994 l 199 596 l 596 596 l 596 944 q 646 994 596 994 q 696 944 696 994 l 696 50 q 646 0 696 0 q 596 50 596 0 l 596 497 l 199 497 l 199 50 q 149 0 199 0 q 99 50 99 0 z "},"Θ":{"ha":795,"x_min":99,"x_max":696,"o":"m 596 298 l 596 696 q 539 837 596 779 q 397 894 481 894 q 256 837 314 894 q 199 696 199 779 l 199 298 q 256 157 199 215 q 397 99 314 99 q 539 157 481 99 q 596 298 596 215 m 696 298 q 608 87 696 175 q 397 0 521 0 q 187 87 274 0 q 99 298 99 175 l 99 696 q 187 906 99 819 q 397 994 274 994 q 609 907 522 994 q 696 696 696 820 l 696 298 m 447 447 l 348 447 q 298 497 298 447 q 348 547 298 547 l 447 547 q 497 497 497 547 q 447 447 497 447 z "},"Ѳ":{"ha":795,"x_min":99,"x_max":696,"o":"m 596 298 l 596 696 q 539 837 596 779 q 397 894 481 894 q 256 837 314 894 q 199 696 199 779 l 199 298 q 256 157 199 215 q 397 99 314 99 q 539 157 481 99 q 596 298 596 215 m 696 298 q 608 87 696 175 q 397 0 521 0 q 187 87 274 0 q 99 298 99 175 l 99 696 q 187 906 99 819 q 397 994 274 994 q 609 907 522 994 q 696 696 696 820 l 696 298 m 447 447 l 348 447 q 298 497 298 447 q 348 547 298 547 l 447 547 q 497 497 497 547 q 447 447 497 447 z "},"Ι":{"ha":298,"x_min":99,"x_max":199,"o":"m 149 0 q 99 50 99 0 l 99 944 q 149 994 99 994 q 199 944 199 994 l 199 50 q 149 0 199 0 z "},"Κ":{"ha":795,"x_min":99,"x_max":696,"o":"m 327 519 l 199 378 l 199 50 q 149 0 199 0 q 99 50 99 0 l 99 944 q 149 994 99 994 q 199 944 199 994 l 199 526 l 608 977 q 646 994 623 994 q 696 944 696 994 q 682 910 696 925 l 398 598 l 689 75 q 696 50 696 62 q 680 15 696 31 q 646 0 665 0 q 601 26 616 0 l 327 519 z "},"Λ":{"ha":894,"x_min":99,"x_max":795,"o":"m 795 50 q 745 0 795 0 q 698 34 709 0 l 447 786 l 196 34 q 149 0 185 0 q 99 50 99 0 q 102 65 99 59 l 398 955 q 447 994 411 994 q 496 955 483 994 l 793 65 q 795 50 795 59 z "},"Μ":{"ha":894,"x_min":99,"x_max":795,"o":"m 745 994 q 795 944 795 994 l 795 50 q 745 0 795 0 q 696 50 696 0 l 696 781 l 493 477 q 447 447 473 447 q 400 477 421 447 l 199 781 l 199 50 q 149 0 199 0 q 99 50 99 0 l 99 944 q 149 994 99 994 q 193 969 176 994 l 447 587 l 703 972 q 745 994 717 994 z "},"Ν":{"ha":795,"x_min":99,"x_max":696,"o":"m 596 242 l 596 944 q 646 994 596 994 q 696 944 696 994 l 696 50 q 646 0 696 0 q 602 25 616 0 l 199 753 l 199 50 q 149 0 199 0 q 99 50 99 0 l 99 944 q 149 994 99 994 q 195 964 178 994 l 596 242 z "},"Ξ":{"ha":795,"x_min":99,"x_max":696,"o":"m 497 447 l 298 447 q 248 497 248 447 q 298 547 248 547 l 497 547 q 547 497 547 547 q 497 447 547 447 m 646 894 l 149 894 q 99 944 99 894 q 149 994 99 994 l 646 994 q 696 944 696 994 q 646 894 696 894 m 646 0 l 149 0 q 99 50 99 0 q 149 99 99 99 l 646 99 q 696 50 696 99 q 646 0 696 0 z "},"Ο":{"ha":795,"x_min":99,"x_max":696,"o":"m 596 298 l 596 696 q 539 837 596 779 q 397 894 481 894 q 256 837 314 894 q 199 696 199 779 l 199 298 q 256 157 199 215 q 397 99 314 99 q 539 157 481 99 q 596 298 596 215 m 696 298 q 608 87 696 175 q 397 0 521 0 q 187 87 274 0 q 99 298 99 175 l 99 696 q 187 906 99 819 q 397 994 274 994 q 609 907 522 994 q 696 696 696 820 l 696 298 z "},"Π":{"ha":795,"x_min":99,"x_max":696,"o":"m 149 994 l 646 994 q 696 944 696 994 l 696 50 q 646 0 696 0 q 596 50 596 0 l 596 894 l 199 894 l 199 50 q 149 0 199 0 q 99 50 99 0 l 99 944 q 149 994 99 994 z "},"Ρ":{"ha":795,"x_min":99,"x_max":696,"o":"m 149 994 l 397 994 q 609 907 522 994 q 696 696 696 820 q 613 480 696 563 q 397 397 530 397 l 199 397 l 199 50 q 149 0 199 0 q 99 50 99 0 l 99 944 q 149 994 99 994 m 199 894 l 199 497 l 397 497 q 539 554 481 497 q 596 696 596 612 q 539 837 596 779 q 397 894 481 894 l 199 894 z "},"Σ":{"ha":795,"x_min":99,"x_max":696,"o":"m 99 944 q 149 994 99 994 l 646 994 q 696 944 696 994 q 646 894 696 894 l 225 894 l 389 525 q 397 497 397 507 q 389 468 397 487 l 225 99 l 646 99 q 696 50 696 99 q 646 0 696 0 l 149 0 q 99 50 99 0 q 107 77 99 60 l 294 497 l 106 919 q 99 944 99 934 z "},"Τ":{"ha":795,"x_min":99,"x_max":696,"o":"m 99 944 q 149 994 99 994 l 646 994 q 696 944 696 994 q 646 894 696 894 l 447 894 l 447 50 q 397 0 447 0 q 348 50 348 0 l 348 894 l 149 894 q 99 944 99 894 z "},"Υ":{"ha":894,"x_min":99,"x_max":795,"o":"m 497 497 l 497 50 q 447 0 497 0 q 397 50 397 0 l 397 497 l 108 915 q 99 944 99 928 q 149 994 99 994 q 190 973 176 994 l 447 599 l 704 973 q 745 994 718 994 q 795 944 795 994 q 786 915 795 928 l 497 497 z "},"Φ":{"ha":994,"x_min":99,"x_max":894,"o":"m 547 248 l 596 248 q 737 306 680 248 q 795 447 795 364 l 795 547 q 737 688 795 630 q 596 745 680 745 l 547 745 l 547 248 m 447 248 l 447 745 l 397 745 q 256 688 314 745 q 199 547 199 630 l 199 447 q 256 306 199 364 q 397 248 314 248 l 447 248 m 547 149 l 547 50 q 497 0 547 0 q 447 50 447 0 l 447 149 q 283 172 337 149 q 149 282 199 207 q 99 447 99 357 l 99 547 q 149 712 99 637 q 283 822 199 787 q 447 845 337 845 l 447 944 q 497 994 447 994 q 547 944 547 994 l 547 845 q 712 821 657 845 q 845 711 796 786 q 894 547 894 637 l 894 447 q 845 282 894 357 q 712 172 795 208 q 547 149 657 149 z "},"Χ":{"ha":894,"x_min":99,"x_max":795,"o":"m 507 497 l 787 78 q 795 50 795 65 q 745 0 795 0 q 704 22 718 0 l 447 407 l 190 22 q 149 0 176 0 q 99 50 99 0 q 108 78 99 65 l 387 497 l 108 916 q 99 944 99 929 q 149 994 99 994 q 190 972 176 994 l 447 587 l 704 972 q 745 994 718 994 q 795 944 795 994 q 787 916 795 929 l 507 497 z "},"Ψ":{"ha":894,"x_min":99,"x_max":795,"o":"m 397 248 q 187 336 274 248 q 99 547 99 423 l 99 944 q 149 994 99 994 q 199 944 199 994 l 199 547 q 297 374 199 431 q 397 348 343 348 l 397 944 q 447 994 397 994 q 497 944 497 994 l 497 348 q 597 374 550 348 q 696 547 696 431 l 696 944 q 745 994 696 994 q 795 944 795 994 l 795 547 q 708 336 795 423 q 497 248 620 248 l 497 50 q 447 0 497 0 q 397 50 397 0 l 397 248 z "},"Ѱ":{"ha":894,"x_min":99,"x_max":795,"o":"m 397 248 q 187 336 274 248 q 99 547 99 423 l 99 944 q 149 994 99 994 q 199 944 199 994 l 199 547 q 297 374 199 431 q 397 348 343 348 l 397 944 q 447 994 397 994 q 497 944 497 994 l 497 348 q 597 374 550 348 q 696 547 696 431 l 696 944 q 745 994 696 994 q 795 944 795 994 l 795 547 q 708 336 795 423 q 497 248 620 248 l 497 50 q 447 0 497 0 q 397 50 397 0 l 397 248 z "},"Ω":{"ha":894,"x_min":99,"x_max":795,"o":"m 447 894 q 271 822 344 894 q 199 646 199 749 l 199 547 q 314 336 199 416 q 341 311 333 323 q 348 269 348 299 l 348 50 q 298 0 348 0 l 149 0 q 99 50 99 0 q 149 99 99 99 l 248 99 l 248 261 q 99 547 99 364 l 99 646 q 201 892 99 790 q 447 994 303 994 q 693 892 592 994 q 795 646 795 790 l 795 547 q 646 261 795 364 l 646 99 l 745 99 q 795 50 795 99 q 745 0 795 0 l 596 0 q 547 50 547 0 l 547 269 q 553 310 547 297 q 580 336 560 323 q 666 429 638 376 q 695 534 690 474 q 696 646 696 541 q 624 822 696 751 q 447 894 552 894 z "},"Ϊ":{"ha":596,"x_min":99,"x_max":497,"o":"m 298 0 q 248 50 248 0 l 248 944 q 298 994 248 994 q 348 944 348 994 l 348 50 q 298 0 348 0 m 99 1192 l 99 1242 q 149 1292 99 1292 q 199 1242 199 1292 l 199 1192 q 149 1143 199 1143 q 99 1192 99 1143 m 397 1192 l 397 1242 q 447 1292 397 1292 q 497 1242 497 1292 l 497 1192 q 447 1143 497 1143 q 397 1192 397 1143 z "},"Ϋ":{"ha":894,"x_min":99,"x_max":795,"o":"m 248 1192 l 248 1242 q 298 1292 248 1292 q 348 1242 348 1292 l 348 1192 q 298 1143 348 1143 q 248 1192 248 1143 m 547 1192 l 547 1242 q 596 1292 547 1292 q 646 1242 646 1292 l 646 1192 q 596 1143 646 1143 q 547 1192 547 1143 m 497 497 l 497 50 q 447 0 497 0 q 397 50 397 0 l 397 497 l 108 915 q 99 944 99 928 q 149 994 99 994 q 190 973 176 994 l 447 599 l 704 973 q 745 994 718 994 q 795 944 795 994 q 786 915 795 928 l 497 497 z "},"ά":{"ha":845,"x_min":99,"x_max":745,"o":"m 298 596 q 228 567 257 596 q 199 497 199 538 l 199 199 q 228 129 199 158 q 298 99 257 99 q 391 164 364 99 l 468 348 l 388 538 q 298 596 364 596 m 745 50 q 717 5 745 16 q 662 0 702 0 q 584 70 614 0 l 522 219 l 485 130 q 410 36 461 72 q 298 0 360 0 q 157 58 215 0 q 99 199 99 115 l 99 497 q 157 638 99 580 q 298 696 215 696 q 481 575 431 696 l 522 477 l 600 665 q 646 696 613 696 q 681 681 666 696 q 696 646 696 666 q 575 348 696 636 l 671 118 q 696 99 679 99 q 745 50 745 99 m 298 845 q 248 894 248 845 q 268 934 248 920 l 467 1083 q 497 1093 480 1093 q 547 1043 547 1093 q 527 1003 547 1018 l 328 854 q 298 845 315 845 z "},"έ":{"ha":696,"x_min":99,"x_max":596,"o":"m 199 199 q 228 129 199 158 q 298 99 257 99 l 397 99 q 496 125 435 99 q 559 150 558 150 q 585 132 574 150 q 596 97 596 114 q 516 26 596 56 q 397 0 449 0 l 298 0 q 157 58 215 0 q 99 199 99 115 q 168 348 99 303 q 99 497 99 391 q 157 638 99 580 q 298 696 215 696 l 397 696 q 515 669 446 696 q 596 598 596 638 q 586 565 596 582 q 559 545 574 545 q 499 571 560 545 q 397 596 439 596 l 298 596 q 228 567 257 596 q 199 497 199 538 q 226 426 199 455 q 303 397 253 397 q 319 397 309 397 q 334 398 330 398 q 383 384 368 398 q 397 348 397 369 q 383 312 397 327 q 337 297 369 298 q 286 297 312 297 q 226 272 249 294 q 199 199 199 245 m 248 845 q 199 894 199 845 q 218 934 199 920 l 417 1083 q 447 1093 430 1093 q 497 1043 497 1093 q 477 1003 497 1018 l 279 854 q 248 845 266 845 z "},"ή":{"ha":795,"x_min":99,"x_max":696,"o":"m 99 646 q 149 696 99 696 q 275 626 232 696 q 447 696 345 696 q 624 624 552 696 q 696 447 696 552 l 696 -248 q 646 -298 696 -298 q 596 -248 596 -298 l 596 447 q 553 553 596 509 q 447 596 509 596 q 342 553 385 596 q 298 447 298 509 l 298 50 q 248 0 298 0 q 199 50 199 0 l 199 547 q 149 596 199 585 q 99 646 99 607 m 348 845 q 298 894 298 845 q 318 934 298 920 l 516 1083 q 547 1093 529 1093 q 596 1043 596 1093 q 577 1003 596 1018 l 378 854 q 348 845 365 845 z "},"ί":{"ha":696,"x_min":99,"x_max":596,"o":"m 397 0 q 222 73 294 0 q 149 248 149 145 l 149 646 q 199 696 149 696 q 248 646 248 696 l 248 248 q 292 143 248 186 q 397 99 335 99 q 491 133 450 99 q 547 166 531 166 q 596 117 596 166 q 583 84 596 99 q 397 0 511 0 m 149 845 q 99 894 99 845 q 119 934 99 920 l 318 1083 q 348 1093 330 1093 q 397 1043 397 1093 q 378 1003 397 1018 l 179 854 q 149 845 166 845 z "},"ΰ":{"ha":795,"x_min":99,"x_max":696,"o":"m 224 894 l 224 944 q 273 994 224 994 q 323 944 323 994 l 323 894 q 273 845 323 845 q 224 894 224 845 m 522 894 l 522 944 q 571 994 522 994 q 621 944 621 994 l 621 894 q 571 845 621 845 q 522 894 522 845 m 373 1143 q 323 1192 323 1143 q 343 1232 323 1218 l 541 1381 q 571 1391 554 1391 q 621 1341 621 1391 q 601 1302 621 1317 l 403 1153 q 373 1143 390 1143 m 149 696 q 279 622 235 696 q 298 547 298 587 q 343 297 298 499 l 376 151 q 573 483 525 320 q 596 646 596 564 q 611 681 596 666 q 646 696 626 696 q 696 646 696 696 q 455 92 696 372 q 384 16 410 41 q 348 0 367 0 q 300 38 308 0 l 246 276 q 199 547 199 486 q 154 596 199 596 q 99 646 99 596 q 149 696 99 696 z "},"α":{"ha":845,"x_min":99,"x_max":745,"o":"m 745 50 q 717 5 745 16 q 662 0 702 0 q 584 70 614 0 l 522 219 l 485 130 q 410 36 461 72 q 298 0 360 0 q 157 58 215 0 q 99 199 99 115 l 99 497 q 157 638 99 580 q 298 696 215 696 q 481 575 431 696 l 522 477 l 600 665 q 646 696 613 696 q 681 681 666 696 q 696 646 696 666 q 575 348 696 636 l 671 118 q 696 99 679 99 q 745 50 745 99 m 468 348 l 388 538 q 298 596 364 596 q 228 567 257 596 q 199 497 199 538 l 199 199 q 228 129 199 158 q 298 99 257 99 q 391 164 364 99 l 468 348 z "},"β":{"ha":795,"x_min":99,"x_max":696,"o":"m 348 894 q 242 851 285 894 q 199 745 199 808 l 199 -248 q 149 -298 199 -298 q 99 -248 99 -298 l 99 745 q 172 921 99 848 q 348 994 245 994 l 447 994 q 588 936 531 994 q 646 795 646 879 l 646 696 q 585 552 646 611 q 696 298 696 462 q 601 60 696 166 q 447 0 548 0 q 397 50 397 0 q 459 99 397 99 q 562 170 521 99 q 596 298 596 230 q 562 426 596 367 q 458 497 522 497 l 447 497 q 397 547 397 497 q 447 596 397 596 q 517 626 487 596 q 547 696 547 656 l 547 795 q 518 866 547 837 q 447 894 489 894 l 348 894 z "},"γ":{"ha":845,"x_min":99,"x_max":745,"o":"m 596 -99 q 489 289 596 111 q 397 -99 397 99 q 427 -169 397 -140 q 497 -199 456 -199 q 567 -170 538 -199 q 596 -99 596 -141 m 696 -99 q 638 -240 696 -182 q 497 -298 580 -298 q 356 -240 414 -298 q 298 -99 298 -182 q 424 381 298 152 q 129 601 318 513 q 99 646 99 614 q 114 681 99 666 q 149 696 129 696 q 168 692 158 696 q 476 474 341 628 q 664 684 564 601 q 696 696 678 696 q 745 646 745 696 q 727 607 745 624 q 540 391 606 494 q 696 -99 696 180 z "},"δ":{"ha":696,"x_min":99,"x_max":596,"o":"m 596 447 l 596 248 q 524 73 596 145 q 348 0 451 0 q 172 73 245 0 q 99 248 99 145 l 99 447 q 154 603 99 534 q 294 690 209 671 l 188 780 q 149 869 149 814 q 186 958 149 921 q 274 994 222 994 l 497 994 q 547 944 547 994 q 497 894 547 894 l 273 894 q 248 869 248 894 q 256 851 248 858 l 497 647 q 596 447 596 562 m 497 248 l 497 447 q 453 553 497 509 q 348 596 410 596 q 242 553 286 596 q 199 447 199 509 l 199 248 q 242 143 199 186 q 348 99 285 99 q 453 143 410 99 q 497 248 497 187 z "},"ε":{"ha":696,"x_min":99,"x_max":596,"o":"m 199 199 q 228 129 199 158 q 298 99 257 99 l 397 99 q 496 125 435 99 q 559 150 558 150 q 585 132 574 150 q 596 97 596 114 q 516 26 596 56 q 397 0 449 0 l 298 0 q 157 58 215 0 q 99 199 99 115 q 168 348 99 303 q 99 497 99 391 q 157 638 99 580 q 298 696 215 696 l 397 696 q 515 669 446 696 q 596 598 596 638 q 586 565 596 582 q 559 545 574 545 q 499 571 560 545 q 397 596 439 596 l 298 596 q 228 567 257 596 q 199 497 199 538 q 226 426 199 455 q 303 397 253 397 q 319 397 309 397 q 334 398 330 398 q 383 384 368 398 q 397 348 397 369 q 383 312 397 327 q 337 297 369 298 q 286 297 312 297 q 226 272 249 294 q 199 199 199 245 z "},"ζ":{"ha":696,"x_min":99,"x_max":596,"o":"m 199 199 q 228 129 199 158 q 298 99 257 99 l 447 99 q 577 26 534 99 q 596 -50 596 -8 l 596 -149 q 553 -254 596 -211 q 447 -298 509 -298 q 397 -248 397 -298 q 446 -199 397 -199 q 497 -149 497 -199 l 497 -50 q 447 0 497 0 l 298 0 q 157 58 215 0 q 99 199 99 115 q 116 279 99 240 q 390 745 231 550 l 298 745 q 157 803 215 745 q 99 944 99 860 q 149 994 99 994 q 199 944 199 994 q 228 874 199 903 q 298 845 257 845 l 497 845 q 547 795 547 845 q 527 755 547 778 q 215 258 329 529 q 199 199 199 219 z "},"η":{"ha":795,"x_min":99,"x_max":696,"o":"m 99 646 q 149 696 99 696 q 275 626 232 696 q 447 696 345 696 q 624 624 552 696 q 696 447 696 552 l 696 -248 q 646 -298 696 -298 q 596 -248 596 -298 l 596 447 q 553 553 596 509 q 447 596 509 596 q 342 553 385 596 q 298 447 298 509 l 298 50 q 248 0 298 0 q 199 50 199 0 l 199 547 q 149 596 199 585 q 99 646 99 607 z "},"θ":{"ha":696,"x_min":99,"x_max":596,"o":"m 99 248 l 99 745 q 172 921 99 848 q 348 994 245 994 q 524 922 452 994 q 596 745 596 850 l 596 248 q 524 73 596 145 q 348 0 451 0 q 172 73 245 0 q 99 248 99 145 m 199 547 l 497 547 l 497 745 q 453 851 497 807 q 348 894 410 894 q 242 851 286 894 q 199 745 199 807 l 199 547 m 199 447 l 199 248 q 242 143 199 186 q 348 99 285 99 q 453 143 410 99 q 497 248 497 187 l 497 447 l 199 447 z "},"ѳ":{"ha":696,"x_min":99,"x_max":596,"o":"m 99 248 l 99 745 q 172 921 99 848 q 348 994 245 994 q 524 922 452 994 q 596 745 596 850 l 596 248 q 524 73 596 145 q 348 0 451 0 q 172 73 245 0 q 99 248 99 145 m 199 547 l 497 547 l 497 745 q 453 851 497 807 q 348 894 410 894 q 242 851 286 894 q 199 745 199 807 l 199 547 m 199 447 l 199 248 q 242 143 199 186 q 348 99 285 99 q 453 143 410 99 q 497 248 497 187 l 497 447 l 199 447 z "},"ι":{"ha":646,"x_min":99,"x_max":547,"o":"m 348 0 q 172 73 245 0 q 99 248 99 145 l 99 646 q 149 696 99 696 q 199 646 199 696 l 199 248 q 242 143 199 186 q 348 99 285 99 q 441 133 399 99 q 497 166 483 166 q 547 117 547 166 q 534 84 547 99 q 348 0 461 0 z "},"κ":{"ha":795,"x_min":99,"x_max":696,"o":"m 696 50 q 638 0 696 0 l 596 0 q 537 22 566 0 q 497 73 508 44 l 392 340 l 298 230 l 298 50 q 248 0 298 0 q 199 50 199 0 l 199 547 q 149 596 199 596 q 99 646 99 596 q 149 696 99 696 q 224 676 190 696 q 298 547 298 632 l 298 381 l 559 678 q 596 696 574 696 q 646 646 646 696 q 633 613 646 627 l 466 422 l 585 121 q 644 99 593 99 q 696 50 696 99 z "},"λ":{"ha":795,"x_min":99,"x_max":696,"o":"m 696 50 q 641 0 696 0 l 596 0 q 536 21 564 0 q 498 74 507 43 l 387 423 l 194 29 q 149 0 180 0 q 114 15 129 0 q 99 50 99 29 q 104 71 99 62 l 344 561 l 262 819 q 230 878 248 862 q 199 894 212 894 q 149 944 149 894 q 177 988 149 978 q 233 994 192 994 q 352 862 311 994 l 585 121 q 644 99 592 99 q 696 50 696 99 z "},"μ":{"ha":795,"x_min":99,"x_max":696,"o":"m 520 69 q 348 0 449 0 q 199 50 263 0 l 199 -248 q 149 -298 199 -298 q 99 -248 99 -298 l 99 646 q 149 696 99 696 q 199 646 199 696 l 199 248 q 242 143 199 186 q 348 99 285 99 q 453 143 410 99 q 497 248 497 187 l 497 646 q 547 696 497 696 q 596 646 596 696 l 596 149 q 646 99 596 99 q 696 50 696 99 q 646 0 696 0 q 520 69 564 0 z "},"ν":{"ha":795,"x_min":99,"x_max":696,"o":"m 149 696 q 279 622 235 696 q 298 547 298 587 q 343 297 298 499 l 376 151 q 573 483 525 320 q 596 646 596 564 q 611 681 596 666 q 646 696 626 696 q 696 646 696 696 q 455 92 696 372 q 384 16 410 41 q 348 0 367 0 q 300 38 308 0 l 246 276 q 199 547 199 486 q 154 596 199 596 q 99 646 99 596 q 149 696 99 696 z "},"ξ":{"ha":795,"x_min":99,"x_max":696,"o":"m 596 845 q 547 795 596 795 l 397 795 q 327 766 356 795 q 298 696 298 737 q 327 626 298 655 q 397 596 357 596 l 547 596 q 596 547 596 596 q 547 497 596 497 l 397 497 q 257 439 315 497 q 199 298 199 381 q 226 199 199 244 q 425 99 284 99 q 469 100 440 99 q 512 101 498 101 q 676 26 632 101 q 696 -50 696 -9 l 696 -149 q 652 -254 696 -211 q 547 -298 608 -298 q 497 -248 497 -298 q 512 -213 497 -228 q 547 -199 527 -199 q 596 -149 596 -199 l 596 -50 q 547 0 596 0 l 397 0 q 187 87 274 0 q 99 298 99 175 q 253 559 99 473 q 199 696 199 615 q 227 796 199 751 q 136 846 172 804 q 99 944 99 888 q 149 994 99 994 q 199 945 199 994 q 248 894 199 894 l 547 894 q 596 845 596 894 z "},"ο":{"ha":696,"x_min":99,"x_max":596,"o":"m 99 248 l 99 447 q 172 623 99 550 q 348 696 245 696 q 524 624 452 696 q 596 447 596 552 l 596 248 q 524 73 596 145 q 348 0 451 0 q 172 73 245 0 q 99 248 99 145 m 497 248 l 497 447 q 453 553 497 509 q 348 596 410 596 q 242 553 286 596 q 199 447 199 509 l 199 248 q 242 143 199 186 q 348 99 285 99 q 453 143 410 99 q 497 248 497 187 z "},"ρ":{"ha":696,"x_min":99,"x_max":596,"o":"m 497 248 l 497 447 q 453 553 497 509 q 348 596 410 596 q 242 553 286 596 q 199 447 199 509 l 199 248 q 242 143 199 186 q 348 99 285 99 q 453 143 410 99 q 497 248 497 187 m 321 5 q 348 -149 348 -70 q 285 -298 348 -298 q 251 -283 266 -298 q 236 -248 236 -268 q 237 -236 236 -242 q 248 -149 248 -191 q 161 84 248 -17 q 99 248 99 157 l 99 447 q 172 623 99 550 q 348 696 245 696 q 524 624 452 696 q 596 447 596 552 l 596 248 q 524 73 596 145 q 348 0 451 0 q 321 5 336 0 z "},"ς":{"ha":745,"x_min":99,"x_max":646,"o":"m 397 696 l 547 696 q 596 646 596 696 q 547 596 596 596 l 397 596 q 199 348 199 596 q 397 99 199 99 q 526 96 507 99 q 626 26 592 84 q 646 -50 646 -9 l 646 -149 q 602 -254 646 -211 q 497 -298 559 -298 q 447 -248 447 -298 q 497 -199 447 -199 q 532 -184 518 -199 q 547 -149 547 -170 l 547 -50 q 497 0 547 0 l 397 0 q 169 101 247 0 q 99 348 99 192 q 169 595 99 504 q 397 696 245 696 z "},"σ":{"ha":845,"x_min":99,"x_max":745,"o":"m 696 795 q 745 745 745 795 q 702 640 745 684 q 596 596 658 596 l 547 596 q 596 447 596 533 l 596 248 q 524 73 596 145 q 348 0 451 0 q 172 73 245 0 q 99 248 99 145 l 99 447 q 133 573 99 516 q 348 696 206 696 l 596 696 q 646 747 646 696 q 661 780 646 765 q 696 795 675 795 m 497 248 l 497 447 q 453 553 497 509 q 348 596 410 596 q 242 553 286 596 q 199 447 199 509 l 199 248 q 242 143 199 186 q 348 99 285 99 q 453 143 410 99 q 497 248 497 187 z "},"τ":{"ha":795,"x_min":99,"x_max":696,"o":"m 497 0 q 356 58 413 0 q 298 199 298 115 l 298 596 l 149 596 q 99 646 99 596 q 149 696 99 696 l 646 696 q 696 646 696 696 q 646 596 696 596 l 397 596 l 397 199 q 427 129 397 158 q 497 99 456 99 q 547 50 547 99 q 497 0 547 0 z "},"υ":{"ha":894,"x_min":99,"x_max":795,"o":"m 795 298 q 708 87 795 175 q 497 0 620 0 q 286 87 373 0 q 199 298 199 175 l 199 547 q 149 596 199 596 q 99 646 99 596 q 149 696 99 696 q 224 676 190 696 q 298 547 298 632 l 298 298 q 397 126 298 184 q 497 99 443 99 q 597 126 551 99 q 696 298 696 184 l 696 646 q 745 696 696 696 q 795 646 795 696 l 795 298 z "},"φ":{"ha":994,"x_min":99,"x_max":894,"o":"m 547 99 q 722 172 650 99 q 795 348 795 245 q 722 524 795 451 q 547 596 650 596 l 547 99 m 547 0 l 547 -248 q 497 -298 547 -298 q 447 -248 447 -298 l 447 0 q 201 102 303 0 q 99 348 99 203 q 201 594 99 492 q 447 696 303 696 l 447 845 q 497 894 447 894 q 547 845 547 894 l 547 696 q 793 594 691 696 q 894 348 894 492 q 793 102 894 203 q 547 0 691 0 m 447 99 l 447 596 q 271 524 343 596 q 199 348 199 451 q 271 172 199 245 q 447 99 344 99 z "},"χ":{"ha":795,"x_min":99,"x_max":696,"o":"m 397 321 l 551 666 q 596 696 564 696 q 646 646 646 696 q 641 626 646 636 l 452 199 l 619 -178 q 646 -199 628 -199 q 696 -248 696 -199 q 668 -293 696 -282 q 612 -298 653 -298 q 533 -228 564 -298 l 397 76 l 244 -269 q 199 -298 231 -298 q 149 -248 149 -298 q 154 -228 149 -239 l 343 199 l 176 576 q 149 596 167 596 q 99 646 99 596 q 127 690 99 680 q 183 696 142 696 q 262 626 231 696 l 397 321 z "},"ψ":{"ha":894,"x_min":99,"x_max":795,"o":"m 497 4 l 497 -248 q 447 -298 497 -298 q 397 -248 397 -298 l 397 4 q 184 120 269 23 q 99 348 99 218 l 99 646 q 149 696 99 696 q 199 646 199 696 l 199 348 q 255 191 199 260 q 397 105 311 122 l 397 845 q 447 894 397 894 q 497 845 497 894 l 497 105 q 640 191 584 123 q 696 348 696 259 l 696 646 q 745 696 696 696 q 795 646 795 696 l 795 348 q 710 120 795 218 q 497 4 625 23 z "},"ѱ":{"ha":894,"x_min":99,"x_max":795,"o":"m 497 4 l 497 -248 q 447 -298 497 -298 q 397 -248 397 -298 l 397 4 q 184 120 269 23 q 99 348 99 218 l 99 646 q 149 696 99 696 q 199 646 199 696 l 199 348 q 255 191 199 260 q 397 105 311 122 l 397 845 q 447 894 397 894 q 497 845 497 894 l 497 105 q 640 191 584 123 q 696 348 696 259 l 696 646 q 745 696 696 696 q 795 646 795 696 l 795 348 q 710 120 795 218 q 497 4 625 23 z "},"ω":{"ha":994,"x_min":99,"x_max":894,"o":"m 497 83 q 323 0 429 0 q 155 102 220 0 q 99 298 99 190 q 154 665 99 527 q 199 696 166 696 q 248 646 248 696 q 245 628 248 638 q 213 483 224 551 q 199 298 199 397 q 227 172 199 230 q 323 99 262 99 q 410 136 373 99 q 447 250 447 172 l 447 343 q 497 397 447 397 q 547 343 547 397 l 547 250 q 608 116 547 151 q 671 99 637 99 q 766 172 732 99 q 795 298 795 230 q 781 487 795 397 q 748 628 769 557 q 745 646 745 638 q 794 696 745 696 q 823 687 809 696 q 839 665 834 679 q 894 298 894 522 q 839 102 894 190 q 671 0 774 0 q 497 83 565 0 z "},"ϊ":{"ha":795,"x_min":99,"x_max":696,"o":"m 497 0 q 321 73 394 0 q 248 248 248 145 l 248 646 q 298 696 248 696 q 348 646 348 696 l 348 248 q 391 143 348 186 q 497 99 434 99 q 590 133 548 99 q 646 166 632 166 q 696 117 696 166 q 683 84 696 99 q 497 0 611 0 m 99 894 l 99 944 q 149 994 99 994 q 199 944 199 994 l 199 894 q 149 845 199 845 q 99 894 99 845 m 397 894 l 397 944 q 447 994 397 994 q 497 944 497 994 l 497 894 q 447 845 497 845 q 397 894 397 845 z "},"ϋ":{"ha":795,"x_min":99,"x_max":696,"o":"m 224 894 l 224 944 q 273 994 224 994 q 323 944 323 994 l 323 894 q 273 845 323 845 q 224 894 224 845 m 522 894 l 522 944 q 571 994 522 994 q 621 944 621 994 l 621 894 q 571 845 621 845 q 522 894 522 845 m 149 696 q 279 622 235 696 q 298 547 298 587 q 343 297 298 499 l 376 151 q 573 483 525 320 q 596 646 596 564 q 611 681 596 666 q 646 696 626 696 q 696 646 696 696 q 455 92 696 372 q 384 16 410 41 q 348 0 367 0 q 300 38 308 0 l 246 276 q 199 547 199 486 q 154 596 199 596 q 99 646 99 596 q 149 696 99 696 z "},"ό":{"ha":696,"x_min":99,"x_max":596,"o":"m 99 248 l 99 447 q 172 623 99 550 q 348 696 245 696 q 524 624 452 696 q 596 447 596 552 l 596 248 q 524 73 596 145 q 348 0 451 0 q 172 73 245 0 q 99 248 99 145 m 497 248 l 497 447 q 453 553 497 509 q 348 596 410 596 q 242 553 286 596 q 199 447 199 509 l 199 248 q 242 143 199 186 q 348 99 285 99 q 453 143 410 99 q 497 248 497 187 m 248 845 q 199 894 199 845 q 218 934 199 920 l 417 1083 q 447 1093 430 1093 q 497 1043 497 1093 q 477 1003 497 1018 l 279 854 q 248 845 266 845 z "},"ύ":{"ha":795,"x_min":99,"x_max":696,"o":"m 348 845 q 298 894 298 845 q 318 934 298 920 l 516 1083 q 547 1093 529 1093 q 596 1043 596 1093 q 577 1003 596 1019 l 378 854 q 348 845 365 845 m 149 696 q 279 622 235 696 q 298 547 298 587 q 343 297 298 499 l 376 151 q 573 483 525 320 q 596 646 596 564 q 611 681 596 666 q 646 696 626 696 q 696 646 696 696 q 455 92 696 372 q 384 16 410 41 q 348 0 367 0 q 300 38 308 0 l 246 276 q 199 547 199 486 q 154 596 199 596 q 99 646 99 596 q 149 696 99 696 z "},"ώ":{"ha":994,"x_min":99,"x_max":894,"o":"m 447 845 q 397 894 397 845 q 417 934 397 920 l 616 1083 q 646 1093 629 1093 q 696 1043 696 1093 q 676 1003 696 1019 l 477 854 q 447 845 464 845 m 497 83 q 323 0 429 0 q 155 102 220 0 q 99 298 99 190 q 154 665 99 527 q 199 696 166 696 q 248 646 248 696 q 245 628 248 638 q 213 483 224 551 q 199 298 199 397 q 227 172 199 230 q 323 99 262 99 q 410 136 373 99 q 447 250 447 172 l 447 343 q 497 397 447 397 q 547 343 547 397 l 547 250 q 608 116 547 151 q 671 99 637 99 q 766 172 732 99 q 795 298 795 230 q 781 487 795 397 q 748 628 769 557 q 745 646 745 638 q 794 696 745 696 q 823 687 809 696 q 839 665 834 679 q 894 298 894 522 q 839 102 894 190 q 671 0 774 0 q 497 83 565 0 z "},"ϐ":{"ha":696,"x_min":99,"x_max":596,"o":"m 487 653 q 596 447 596 581 l 596 248 q 524 72 596 145 q 348 0 451 0 q 172 73 244 0 q 99 248 99 145 l 99 745 q 172 921 99 848 q 348 994 245 994 q 520 895 464 994 q 547 795 547 849 q 487 653 547 710 m 497 248 l 497 447 q 453 553 497 510 q 348 596 410 596 q 242 553 285 596 q 199 447 199 509 l 199 248 q 242 143 199 186 q 348 99 285 99 q 454 143 410 99 q 497 248 497 187 m 199 646 q 348 696 266 696 q 418 725 389 696 q 447 795 447 754 q 419 866 447 838 q 348 894 390 894 q 242 851 285 894 q 199 745 199 808 l 199 646 z "},"ϑ":{"ha":944,"x_min":99,"x_max":845,"o":"m 397 770 l 397 720 q 596 646 397 646 l 646 646 l 646 770 q 609 858 646 821 q 522 894 572 894 q 434 857 471 894 q 397 770 397 821 m 298 770 q 364 929 298 863 q 522 994 429 994 q 680 928 615 994 q 745 770 745 863 l 745 646 l 795 646 q 845 596 845 646 q 830 561 845 576 q 795 547 815 547 l 745 547 l 745 248 q 673 72 745 145 q 497 0 600 0 q 321 73 393 0 q 248 248 248 145 q 199 298 248 298 l 149 298 q 99 348 99 298 q 149 397 99 397 l 199 397 q 305 354 261 397 q 348 248 348 310 q 391 143 348 186 q 497 99 434 99 q 603 143 559 99 q 646 248 646 187 l 646 547 l 596 547 q 476 555 530 547 q 321 636 362 571 q 298 720 298 671 l 298 770 z "},"ϒ":{"ha":994,"x_min":99,"x_max":894,"o":"m 894 845 q 880 810 894 824 q 845 795 865 795 q 810 810 825 795 q 795 845 795 825 q 745 894 795 894 q 623 750 696 894 q 547 447 547 598 l 547 50 q 497 0 547 0 q 447 50 447 0 l 447 497 q 400 676 447 580 q 294 828 357 767 q 149 894 224 894 q 116 911 132 894 q 99 944 99 927 q 149 994 99 994 q 418 839 297 994 q 497 701 470 771 q 586 885 528 801 q 745 994 663 994 q 851 950 807 994 q 894 845 894 906 z "},"ϓ":{"ha":994,"x_min":99,"x_max":894,"o":"m 447 1093 l 447 1242 q 497 1292 447 1292 q 547 1242 547 1292 l 547 1093 q 497 1043 547 1043 q 447 1093 447 1043 m 894 845 q 880 810 894 824 q 845 795 865 795 q 810 810 825 795 q 795 845 795 825 q 745 894 795 894 q 623 750 696 894 q 547 447 547 598 l 547 50 q 497 0 547 0 q 447 50 447 0 l 447 497 q 400 676 447 580 q 294 828 357 767 q 149 894 224 894 q 116 911 132 894 q 99 944 99 927 q 149 994 99 994 q 418 839 297 994 q 497 701 470 771 q 586 885 528 801 q 745 994 663 994 q 851 950 807 994 q 894 845 894 906 z "},"ϔ":{"ha":994,"x_min":99,"x_max":894,"o":"m 298 1192 l 298 1242 q 348 1292 298 1292 q 397 1242 397 1292 l 397 1192 q 348 1143 397 1143 q 298 1192 298 1143 m 596 1192 l 596 1242 q 646 1292 596 1292 q 696 1242 696 1292 l 696 1192 q 646 1143 696 1143 q 596 1192 596 1143 m 894 845 q 880 810 894 824 q 845 795 865 795 q 810 810 825 795 q 795 845 795 825 q 745 894 795 894 q 623 750 696 894 q 547 447 547 598 l 547 50 q 497 0 547 0 q 447 50 447 0 l 447 497 q 400 676 447 580 q 294 828 357 767 q 149 894 224 894 q 116 911 132 894 q 99 944 99 927 q 149 994 99 994 q 418 839 297 994 q 497 701 470 771 q 586 885 528 801 q 745 994 663 994 q 851 950 807 994 q 894 845 894 906 z "},"ϕ":{"ha":894,"x_min":99,"x_max":795,"o":"m 795 497 l 795 348 q 710 120 795 218 q 497 4 625 22 l 497 -248 q 447 -298 497 -298 q 397 -248 397 -298 l 397 4 q 184 121 269 23 q 99 348 99 218 l 99 646 q 149 696 99 696 q 199 646 199 696 l 199 348 q 255 190 199 259 q 397 105 311 122 l 397 497 q 455 638 397 580 q 596 696 513 696 q 737 638 680 696 q 795 497 795 580 m 696 497 q 667 568 696 539 q 596 596 638 596 q 526 567 555 596 q 497 497 497 538 l 497 105 q 640 191 584 123 q 696 348 696 259 l 696 497 z "},"Ё":{"ha":696,"x_min":99,"x_max":596,"o":"m 99 50 l 99 944 q 149 994 99 994 l 547 994 q 596 944 596 994 q 547 894 596 894 l 199 894 l 199 596 l 447 596 q 497 547 497 596 q 447 497 497 497 l 199 497 l 199 99 l 547 99 q 596 50 596 99 q 547 0 596 0 l 149 0 q 99 50 99 0 m 149 1192 l 149 1242 q 199 1292 149 1292 q 248 1242 248 1292 l 248 1192 q 199 1143 248 1143 q 149 1192 149 1143 m 447 1192 l 447 1242 q 497 1292 447 1292 q 547 1242 547 1292 l 547 1192 q 497 1143 547 1143 q 447 1192 447 1143 z "},"Ђ":{"ha":944,"x_min":99,"x_max":845,"o":"m 646 0 q 611 15 626 0 q 596 50 596 30 q 618 91 596 82 q 745 277 745 145 l 745 397 q 688 539 745 481 q 547 596 630 596 q 447 571 492 596 l 447 50 q 397 0 447 0 q 348 50 348 0 l 348 894 l 149 894 q 99 944 99 894 q 149 994 99 994 l 646 994 q 696 944 696 994 q 646 894 696 894 l 447 894 l 447 679 q 547 696 495 696 q 758 609 671 696 q 845 397 845 522 l 845 277 q 797 114 845 189 q 668 5 749 40 q 646 0 656 0 z "},"Ѓ":{"ha":696,"x_min":99,"x_max":596,"o":"m 199 894 l 199 50 q 149 0 199 0 q 99 50 99 0 l 99 944 q 149 994 99 994 l 547 994 q 596 944 596 994 q 547 894 596 894 l 199 894 m 248 1143 q 199 1192 199 1143 q 218 1232 199 1218 l 417 1381 q 447 1391 430 1391 q 497 1341 497 1391 q 477 1302 497 1316 l 279 1153 q 248 1143 266 1143 z "},"Є":{"ha":795,"x_min":99,"x_max":696,"o":"m 199 497 l 199 248 q 242 143 199 187 q 348 99 286 99 l 646 99 q 696 50 696 99 q 646 0 696 0 l 348 0 q 172 73 245 0 q 99 248 99 145 l 99 745 q 172 921 99 848 q 348 994 245 994 l 646 994 q 696 944 696 994 q 646 894 696 894 l 348 894 q 242 851 285 894 q 199 745 199 807 l 199 596 l 447 596 q 497 547 497 596 q 447 497 497 497 l 199 497 z "},"Ѕ":{"ha":795,"x_min":99,"x_max":696,"o":"m 696 248 q 623 73 696 145 q 447 0 550 0 q 121 108 278 0 q 99 149 99 123 q 114 184 99 169 q 149 199 129 199 q 178 190 163 199 q 315 120 221 163 q 447 99 376 99 q 553 143 510 99 q 596 248 596 186 q 513 382 596 340 l 234 525 q 99 745 99 594 q 172 921 99 848 q 348 994 245 994 q 617 939 513 994 q 646 894 646 924 q 631 859 646 874 q 596 845 617 845 q 575 850 588 845 q 348 894 465 894 q 242 851 285 894 q 199 745 199 808 q 280 613 199 654 l 559 470 q 696 248 696 400 z "},"І":{"ha":298,"x_min":99,"x_max":199,"o":"m 149 0 q 99 50 99 0 l 99 944 q 149 994 99 994 q 199 944 199 994 l 199 50 q 149 0 199 0 z "},"Ї":{"ha":596,"x_min":99,"x_max":497,"o":"m 298 0 q 248 50 248 0 l 248 944 q 298 994 248 994 q 348 944 348 994 l 348 50 q 298 0 348 0 m 99 1192 l 99 1242 q 149 1292 99 1292 q 199 1242 199 1292 l 199 1192 q 149 1143 199 1143 q 99 1192 99 1143 m 397 1192 l 397 1242 q 447 1292 397 1292 q 497 1242 497 1292 l 497 1192 q 447 1143 497 1143 q 397 1192 397 1143 z "},"Ј":{"ha":596,"x_min":99,"x_max":497,"o":"m 497 944 l 497 248 q 424 72 497 145 q 248 0 352 0 l 149 0 q 99 50 99 0 q 149 99 99 99 l 248 99 q 354 143 311 99 q 397 248 397 187 l 397 944 q 447 994 397 994 q 497 944 497 994 z "},"Љ":{"ha":1093,"x_min":99,"x_max":994,"o":"m 435 894 l 196 35 q 149 0 187 0 q 99 50 99 0 q 103 68 99 54 l 346 944 q 396 994 360 994 l 547 994 q 596 944 596 994 l 596 596 l 696 596 q 910 513 827 596 q 994 298 994 431 q 906 87 994 175 q 696 0 819 0 l 547 0 q 497 50 497 0 l 497 894 l 435 894 m 596 99 l 696 99 q 837 157 779 99 q 894 298 894 215 q 837 439 894 382 q 696 497 779 497 l 596 497 l 596 99 z "},"Њ":{"ha":1093,"x_min":99,"x_max":994,"o":"m 497 497 l 199 497 l 199 50 q 149 0 199 0 q 99 50 99 0 l 99 944 q 149 994 99 994 q 199 944 199 994 l 199 596 l 497 596 l 497 944 q 547 994 497 994 q 596 944 596 994 l 596 596 l 696 596 q 910 513 827 596 q 994 298 994 431 q 906 87 994 175 q 696 0 819 0 l 547 0 q 497 50 497 0 l 497 497 m 596 99 l 696 99 q 837 157 779 99 q 894 298 894 215 q 837 439 894 382 q 696 497 779 497 l 596 497 l 596 99 z "},"Ћ":{"ha":944,"x_min":99,"x_max":845,"o":"m 447 596 l 447 50 q 397 0 447 0 q 348 50 348 0 l 348 894 l 149 894 q 99 944 99 894 q 149 994 99 994 l 646 994 q 696 944 696 994 q 646 894 696 894 l 447 894 l 447 696 l 646 696 q 818 597 762 696 q 845 501 845 551 l 845 50 q 795 0 845 0 q 745 50 745 0 l 745 497 q 717 568 745 539 q 646 596 688 596 l 447 596 z "},"Ќ":{"ha":795,"x_min":99,"x_max":696,"o":"m 327 519 l 199 378 l 199 50 q 149 0 199 0 q 99 50 99 0 l 99 944 q 149 994 99 994 q 199 944 199 994 l 199 526 l 608 977 q 646 994 623 994 q 681 979 666 994 q 696 943 696 964 q 682 910 696 925 l 398 598 l 689 75 q 696 50 696 62 q 681 15 696 30 q 646 1 666 1 q 601 26 616 1 l 327 519 m 298 1143 q 248 1192 248 1143 q 268 1232 248 1218 l 467 1381 q 497 1391 480 1391 q 547 1341 547 1391 q 527 1302 547 1316 l 328 1153 q 298 1143 315 1143 z "},"Ў":{"ha":795,"x_min":99,"x_max":696,"o":"m 497 1093 l 298 1093 q 248 1143 248 1093 q 298 1192 248 1192 l 497 1192 q 547 1143 547 1192 q 497 1093 547 1093 m 596 397 l 348 397 q 133 521 206 397 q 99 646 99 577 l 99 944 q 149 994 99 994 q 199 944 199 994 l 199 646 q 242 540 199 584 q 348 497 286 497 l 596 497 l 596 944 q 646 994 596 994 q 696 944 696 994 l 696 199 q 638 58 696 115 q 497 0 580 0 l 248 0 q 199 50 199 0 q 248 99 199 99 l 497 99 q 567 128 538 99 q 596 199 596 157 l 596 397 z "},"Џ":{"ha":795,"x_min":99,"x_max":696,"o":"m 447 0 l 447 -149 q 397 -199 447 -199 q 348 -149 348 -199 l 348 0 l 149 0 q 99 50 99 0 l 99 944 q 149 994 99 994 q 199 944 199 994 l 199 99 l 596 99 l 596 944 q 646 994 596 994 q 696 944 696 994 l 696 50 q 646 0 696 0 l 447 0 z "},"А":{"ha":894,"x_min":99,"x_max":795,"o":"m 447 786 l 301 348 l 593 348 l 447 786 m 795 50 q 745 0 795 0 q 698 34 709 0 l 626 248 l 268 248 l 196 34 q 149 0 185 0 q 99 50 99 0 q 102 65 99 59 l 397 954 q 447 994 411 994 q 496 955 483 994 l 793 65 q 795 50 795 59 z "},"Б":{"ha":795,"x_min":99,"x_max":696,"o":"m 696 298 q 608 87 696 175 q 397 0 521 0 l 149 0 q 99 50 99 0 l 99 944 q 149 994 99 994 l 547 994 q 596 944 596 994 q 547 894 596 894 l 199 894 l 199 596 l 397 596 q 609 509 522 596 q 696 298 696 422 m 199 497 l 199 99 l 397 99 q 539 157 481 99 q 596 298 596 215 q 539 439 596 382 q 397 497 481 497 l 199 497 z "},"В":{"ha":795,"x_min":99,"x_max":696,"o":"m 554 552 q 696 298 696 467 q 608 87 696 175 q 397 0 521 0 l 149 0 q 99 50 99 0 l 99 944 q 149 994 99 994 l 397 994 q 574 922 502 994 q 646 745 646 850 q 554 552 646 626 m 199 894 l 199 596 l 397 596 q 503 640 459 596 q 547 745 547 684 q 503 851 547 807 q 397 894 459 894 l 199 894 m 199 497 l 199 99 l 397 99 q 539 157 481 99 q 596 298 596 215 q 539 439 596 382 q 397 497 481 497 l 199 497 z "},"Г":{"ha":696,"x_min":99,"x_max":596,"o":"m 199 894 l 199 50 q 149 0 199 0 q 99 50 99 0 l 99 944 q 149 994 99 994 l 547 994 q 596 944 596 994 q 547 894 596 894 l 199 894 z "},"Д":{"ha":894,"x_min":99,"x_max":795,"o":"m 696 99 q 760 96 748 99 q 795 50 795 87 l 795 -99 q 745 -149 795 -149 q 696 -99 696 -149 l 696 0 l 199 0 l 199 -99 q 149 -149 199 -149 q 99 -99 99 -149 l 99 50 q 134 96 99 87 q 198 99 146 99 l 304 947 q 348 994 310 994 l 646 994 q 696 944 696 994 l 696 99 m 596 99 l 596 894 l 397 894 l 298 99 l 596 99 z "},"Е":{"ha":696,"x_min":99,"x_max":596,"o":"m 99 50 l 99 944 q 149 994 99 994 l 547 994 q 596 944 596 994 q 547 894 596 894 l 199 894 l 199 596 l 447 596 q 497 547 497 596 q 447 497 497 497 l 199 497 l 199 99 l 547 99 q 596 50 596 99 q 547 0 596 0 l 149 0 q 99 50 99 0 z "},"Ж":{"ha":994,"x_min":99,"x_max":894,"o":"m 447 407 l 190 22 q 148 0 176 0 q 99 52 99 0 q 108 78 99 65 l 387 497 l 108 916 q 99 942 99 929 q 149 994 99 994 q 190 972 175 994 l 447 587 l 447 944 q 497 994 447 994 q 547 944 547 994 l 547 587 l 803 972 q 845 994 818 994 q 880 979 866 994 q 894 944 894 964 q 886 916 894 929 l 607 497 l 886 78 q 894 50 894 65 q 880 15 894 30 q 846 0 866 0 q 803 22 818 0 l 547 407 l 547 50 q 497 0 547 0 q 447 50 447 0 l 447 407 z "},"З":{"ha":745,"x_min":99,"x_max":646,"o":"m 348 894 q 172 851 261 894 q 149 845 160 845 q 114 860 129 845 q 99 894 99 875 q 128 939 99 922 q 348 994 224 994 l 397 994 q 573 921 501 994 q 646 745 646 848 q 547 547 646 622 q 637 413 618 492 q 646 248 646 373 q 573 73 646 145 q 397 0 501 0 l 348 0 q 128 55 227 0 q 99 99 99 71 q 114 134 99 120 q 149 149 129 149 q 172 143 160 149 q 282 105 231 114 q 397 99 318 99 q 503 143 460 99 q 547 248 547 186 l 547 348 q 527 422 547 388 q 379 498 483 498 q 349 497 368 498 q 320 496 329 496 q 263 511 278 496 q 248 547 248 525 q 263 583 248 568 q 318 598 279 598 q 347 597 326 598 q 380 595 368 595 q 502 639 458 595 q 547 745 547 684 q 503 851 547 807 q 397 894 459 894 l 348 894 z "},"И":{"ha":795,"x_min":99,"x_max":696,"o":"m 646 994 q 696 944 696 994 l 696 50 q 646 0 696 0 q 596 50 596 0 l 596 712 l 199 99 q 196 35 199 47 q 149 0 187 0 q 99 50 99 0 l 99 944 q 149 994 99 994 q 199 944 199 994 l 199 282 l 596 894 q 599 959 596 947 q 646 994 608 994 z "},"Й":{"ha":795,"x_min":99,"x_max":696,"o":"m 646 994 q 696 944 696 994 l 696 50 q 646 0 696 0 q 596 50 596 0 l 596 712 l 199 99 q 196 35 199 47 q 149 0 187 0 q 99 50 99 0 l 99 944 q 149 994 99 994 q 199 944 199 994 l 199 282 l 596 894 q 599 959 596 947 q 646 994 608 994 m 497 1093 l 298 1093 q 248 1143 248 1093 q 298 1192 248 1192 l 497 1192 q 547 1143 547 1192 q 497 1093 547 1093 z "},"К":{"ha":795,"x_min":99,"x_max":696,"o":"m 327 519 l 199 378 l 199 50 q 149 0 199 0 q 99 50 99 0 l 99 944 q 149 994 99 994 q 199 944 199 994 l 199 526 l 608 977 q 646 994 623 994 q 696 944 696 994 q 682 910 696 925 l 398 598 l 689 75 q 696 50 696 62 q 680 15 696 31 q 646 0 665 0 q 601 26 616 0 l 327 519 z "},"Л":{"ha":795,"x_min":99,"x_max":696,"o":"m 396 994 l 646 994 q 696 944 696 994 l 696 50 q 646 0 696 0 q 596 50 596 0 l 596 894 l 435 894 l 196 35 q 149 0 187 0 q 99 50 99 0 q 103 68 99 54 l 346 944 q 396 994 360 994 z "},"М":{"ha":894,"x_min":99,"x_max":795,"o":"m 745 994 q 795 944 795 994 l 795 50 q 745 0 795 0 q 696 50 696 0 l 696 781 l 493 477 q 447 447 473 447 q 400 477 421 447 l 199 781 l 199 50 q 149 0 199 0 q 99 50 99 0 l 99 944 q 149 994 99 994 q 193 969 176 994 l 447 587 l 703 972 q 745 994 717 994 z "},"Н":{"ha":795,"x_min":99,"x_max":696,"o":"m 99 50 l 99 944 q 149 994 99 994 q 199 944 199 994 l 199 596 l 596 596 l 596 944 q 646 994 596 994 q 696 944 696 994 l 696 50 q 646 0 696 0 q 596 50 596 0 l 596 497 l 199 497 l 199 50 q 149 0 199 0 q 99 50 99 0 z "},"О":{"ha":795,"x_min":99,"x_max":696,"o":"m 596 298 l 596 696 q 539 837 596 779 q 397 894 481 894 q 256 837 314 894 q 199 696 199 779 l 199 298 q 256 157 199 215 q 397 99 314 99 q 539 157 481 99 q 596 298 596 215 m 696 298 q 608 87 696 175 q 397 0 521 0 q 187 87 274 0 q 99 298 99 175 l 99 696 q 187 906 99 819 q 397 994 274 994 q 609 907 522 994 q 696 696 696 820 l 696 298 z "},"П":{"ha":795,"x_min":99,"x_max":696,"o":"m 149 994 l 646 994 q 696 944 696 994 l 696 50 q 646 0 696 0 q 596 50 596 0 l 596 894 l 199 894 l 199 50 q 149 0 199 0 q 99 50 99 0 l 99 944 q 149 994 99 994 z "},"Р":{"ha":795,"x_min":99,"x_max":696,"o":"m 149 994 l 397 994 q 609 907 522 994 q 696 696 696 820 q 613 480 696 563 q 397 397 530 397 l 199 397 l 199 50 q 149 0 199 0 q 99 50 99 0 l 99 944 q 149 994 99 994 m 199 894 l 199 497 l 397 497 q 539 554 481 497 q 596 696 596 612 q 539 837 596 779 q 397 894 481 894 l 199 894 z "},"С":{"ha":696,"x_min":99,"x_max":596,"o":"m 547 994 q 596 944 596 994 q 547 894 596 894 l 348 894 q 219 821 262 894 q 199 745 199 786 l 199 248 q 242 143 199 187 q 348 99 286 99 l 547 99 q 596 50 596 99 q 547 0 596 0 l 348 0 q 172 73 245 0 q 99 248 99 145 l 99 745 q 172 921 99 848 q 348 994 245 994 l 547 994 z "},"Т":{"ha":795,"x_min":99,"x_max":696,"o":"m 99 944 q 149 994 99 994 l 646 994 q 696 944 696 994 q 646 894 696 894 l 447 894 l 447 50 q 397 0 447 0 q 348 50 348 0 l 348 894 l 149 894 q 99 944 99 894 z "}}}
